<svg width="23" height="22" viewBox="0 0 23 22" fill="none" xmlns="http://www.w3.org/2000/svg">
<path d="M9.86426 1.7666L10.9482 0.682617C11.4072 0.223633 12.1494 0.223633 12.6035 0.682617L22.0957 10.1699C22.5547 10.6289 22.5547 11.3711 22.0957 11.8252L12.6035 21.3174C12.1445 21.7764 11.4023 21.7764 10.9482 21.3174L9.86426 20.2334C9.40039 19.7695 9.41016 19.0127 9.88379 18.5586L15.7676 12.9531H1.73438C1.08496 12.9531 0.5625 12.4307 0.5625 11.7812V10.2188C0.5625 9.56934 1.08496 9.04688 1.73438 9.04688H15.7676L9.88379 3.44141C9.40527 2.9873 9.39551 2.23047 9.86426 1.7666Z" fill="white"/>
</svg>
