<svg width="104" height="104" viewBox="0 0 104 104" fill="none" xmlns="http://www.w3.org/2000/svg">
<path d="M61.3417 12.6262C61.323 11.7769 61.0145 11.0907 61.8558 10.6135C63.0846 10.5435 62.738 11.7532 62.7301 12.6262C63.1061 12.6394 64.3323 12.5446 64.4867 12.772C65.5275 14.305 63.1977 14.0349 62.7301 14.0242C62.7082 14.8331 62.9962 15.643 62.2125 16.1044C61.0588 16.0571 61.3324 14.8826 61.3417 14.0242C60.943 13.9963 59.863 14.1421 59.6899 13.8964C58.6286 12.3906 60.8079 12.6207 61.3417 12.6262Z" fill="url(#paint0_linear_54_2405)"/>
<path d="M78.4385 12.6261C85.3602 9.91795 93.0369 17.0013 91.4184 24.6952C91.2342 25.5701 90.0642 28.4597 89.3112 28.7949C89.3004 28.71 90.1223 27.4855 90.2631 27.3271C90.6466 26.8955 91.2344 24.03 90.7288 23.5667C89.5495 24.045 90.0301 26.0062 89.103 26.5721C92.2789 19.8935 87.1942 12.6986 79.9317 13.7391C80.057 13.2972 82.5051 13.6948 82.8949 13.3499C84.1092 12.2753 80.407 12.3164 80.211 12.3262C79.6343 12.3769 79.0276 12.5981 78.4385 12.6261Z" fill="url(#paint1_linear_54_2405)"/>
<path d="M65.4601 29.582C63.1609 24.8289 67.1791 22.2809 70.1392 19.3077L73.3458 16.1061C74.7855 14.6657 76.3352 13.0397 78.4385 12.6263C79.0276 12.5983 79.6343 12.3771 80.211 12.3264C80.407 12.3166 84.1092 12.2755 82.8949 13.3501C82.5051 13.695 80.057 13.2974 79.9317 13.7393C76.3768 14.5643 75.6998 16.0001 73.257 18.3858L69.3265 22.2138C66.942 24.526 65.8041 24.9481 66.4578 28.4738C67.3073 27.9032 67.6024 27.6493 68.5626 27.3273C68.5372 26.4529 68.94 25.8331 69.5303 25.2301C70.7466 23.9871 76.8005 17.5916 78.0983 16.9356C78.7068 16.9496 79.9469 16.0688 81.2183 16.1758C82.4775 16.2819 84.1492 16.7414 85.1514 17.563C85.2091 17.6119 86.0478 19.1307 86.5861 19.7075C87.7904 20.9975 87.6931 22.9776 87.26 24.5585C87.1883 24.8201 86.8916 25.4771 86.908 25.6446C86.2527 27.0525 79.6286 33.1369 78.1489 34.7016C74.8686 38.1362 72.9936 33.6729 70.5617 31.9391C70.0558 32.3293 69.3127 33.142 68.8573 33.6283C71.4756 35.3812 72.9048 38.8325 76.7174 38.1001C78.6477 37.7293 79.2283 36.8482 80.5478 35.5181L86.6876 29.4386C87.6781 28.4494 88.3912 27.7955 89.103 26.5723C90.0301 26.0064 89.5495 24.0452 90.7288 23.5669C91.2344 24.0302 90.6465 26.8957 90.263 27.3273C90.1223 27.4858 89.3004 28.7102 89.3112 28.7951C89.0628 29.1709 88.3025 29.8903 87.9592 30.232L81.7663 36.431C79.003 39.1774 77.8261 40.1451 73.8755 39.3619C76.6065 44.4711 77.6518 49.305 76.9358 55.1079C74.7136 73.1145 55.2181 82.0512 39.6947 73.4018C39.338 73.6951 39.1602 73.8492 38.8493 74.1858C40.3619 78.5382 38.0467 80.3777 35.4465 82.996L31.7257 86.7239C30.8445 87.602 28.8683 89.691 27.8667 90.186C27.9516 89.9542 29.8153 88.7911 29.8583 88.1661C29.8683 88.0217 29.4395 87.5027 29.3296 87.6684C29.2829 87.7422 28.989 87.576 28.9705 87.5882C28.5163 87.888 28.1232 88.5709 27.5752 88.6965L33.8024 82.572C36.3853 80.0263 38.0345 79.2485 37.7138 75.3128C36.7171 76.1643 36.623 76.5285 35.3293 76.94C35.3336 77.836 34.8363 78.435 34.2249 79.0216C32.0996 81.0608 28.9471 84.7587 26.7042 86.3256C26.61 85.7266 28.9343 85.3236 27.7385 83.8196C27.6709 83.9194 27.7148 83.8889 27.6171 83.9232L27.5923 83.7368C27.2082 83.8446 26.4584 85.0591 25.9031 85.141C28.6457 82.7575 31.2065 79.6511 34.038 77.2672C31.603 77.3058 30.5796 76.55 28.9296 74.8643C27.1375 73.0337 27.7231 71.9214 29.37 70.3921C27.6475 68.787 26.8052 70.1678 25.5301 71.4394L22.7045 74.262C22.2925 74.6735 21.7023 75.3046 21.2891 75.6623L21.2119 75.7284L21.1697 75.6812C21.4709 75.0824 22.0191 75.2551 21.7699 74.3932C21.4611 73.3256 20.6356 74.3918 20.479 74.4363C21.7693 72.8726 23.5135 71.533 24.8783 69.9951C27.794 66.7096 29.538 68.3789 32.0578 71.0384C33.6712 72.7414 33.5538 72.3969 34.9639 70.8011C34.2919 69.9992 31.3133 67.0299 30.5467 66.5668C27.2541 64.5776 24.7766 66.9294 22.6387 69.0472L17.2607 74.4184C16.833 74.8443 16.3616 75.2644 15.9813 75.7284L15.898 75.6853C16.1356 75.1271 17.1541 74.5904 17.4453 74.0146C17.6273 73.6546 17.12 73.2628 16.9822 72.9663C16.4869 72.7457 15.4208 74.5386 14.8486 74.6912C15.0517 74.4123 15.7076 73.7794 15.9698 73.5206L18.25 71.2974C21.8934 67.6915 24.6971 63.1155 30.4311 64.8805C17.0482 42.8213 42.379 16.8541 64.8657 30.3439C65.0851 30.0271 65.2033 29.867 65.4601 29.582ZM81.2739 17.6225C78.6455 17.6549 77.9378 19.1433 76.1548 20.7572C74.5334 22.3144 71.1979 25.213 70.0052 26.9645C71.8233 26.953 72.9674 27.1918 74.2889 28.5664C76.8529 31.2334 77.6205 30.7786 75.0197 33.3804L74.5818 33.8281C75.1091 34.3583 75.3612 34.563 76.1536 34.5691C76.6679 34.2236 78.0418 32.741 78.6098 32.1783L82.7622 28.0037C84.1727 26.5798 85.6218 25.4815 86.0581 23.4115C86.6565 20.5726 84.2176 17.4769 81.2739 17.6225ZM50.5381 28.0815C48.9253 28.2471 47.45 28.4108 45.8719 28.8568C31.0302 33.0524 23.2121 50.9424 31.5575 63.9382C33.3742 62.2654 35.3061 59.3201 37.8292 59.441C40.1935 59.5056 44.7714 64.071 44.6432 66.7754C44.5276 69.2115 42.2065 70.5994 40.7013 72.2569C44.3972 74.5139 48.7512 75.4588 53.0538 75.3128C70.7529 75.0221 81.0649 55.5473 72.8711 40.449C71.9769 41.3722 70.4161 43.0293 69.383 43.648C65.798 45.6642 62.9421 43.0642 60.699 40.4912C57.8727 37.2492 61.1237 33.3236 63.8525 31.3888C59.879 29.008 55.1594 27.8682 50.5381 28.0815ZM70.0052 28.4738C67.7365 28.6035 63.7524 33.3733 62.0835 35.0704C59.3149 37.9055 62.5501 40.1455 64.232 41.9296C67.4891 44.9285 70.3826 40.7086 72.5771 38.8193C71.8227 38.3028 71.4275 38.0342 70.7701 37.381C70.5666 37.5729 70.356 37.7653 70.163 37.967C67.7407 40.3848 67.0471 42.1987 64.1332 38.8996C63.5082 38.1919 63.0589 37.5104 63.8218 36.6863C65.6376 34.7249 67.5815 32.7759 69.5163 30.9381C71.0588 29.4727 72.5333 31.9011 73.5765 32.8584C74.0851 32.262 74.4148 31.909 75.0197 31.3888L73.7059 30.0658C72.6129 28.9747 71.6714 28.1356 70.0052 28.4738ZM67.9368 34.5691C67.092 35.2169 65.6678 36.8594 64.8657 37.6538C65.5131 38.2179 66.097 38.7661 66.716 39.3619C67.7732 38.4289 68.6522 37.3148 69.7789 36.3938C69.5591 36.1505 68.1354 34.6522 67.9368 34.5691ZM37.4591 61.0215C35.6687 61.2124 33.3712 64.354 31.931 65.6485C32.4981 66.1345 32.9688 66.5715 33.5042 67.0941C34.6208 65.8821 36.0051 64.4567 37.2263 63.3337C37.8576 62.7531 39.2508 64.5473 39.7834 65.0105C41.4379 66.449 41.1488 66.6818 39.7751 68.0078L38.116 69.6405C36.8972 70.8531 34.1552 74.7263 32.3765 73.4018C31.724 72.8249 31.031 72.056 30.4311 71.4089C28.8947 72.6252 28.9621 72.8456 30.3818 74.1476C31.9129 75.7808 34.0419 76.6778 35.9695 74.9163C37.9126 73.1407 39.8842 70.9391 41.7529 69.1735C44.4098 66.6635 42.8786 64.9182 40.7296 62.9642C39.9035 62.213 38.8602 60.5667 37.4591 61.0215ZM37.7138 64.8805C36.6376 65.8825 35.61 67.045 34.5475 68.0982C34.7809 68.2993 36.0518 69.6228 36.1036 69.6435C37.1509 68.6669 38.2273 67.3954 39.2449 66.4941C38.9667 66.2347 37.8629 64.9769 37.7138 64.8805Z" fill="url(#paint2_linear_54_2405)"/>
<path d="M78.0983 16.9356C84.4261 13.0863 89.9572 21.5714 86.9081 25.6446C86.8916 25.477 87.1884 24.8201 87.2601 24.5585C87.6931 22.9776 87.7904 20.9975 86.5861 19.7075C86.0478 19.1307 85.2091 17.6119 85.1514 17.563C84.1492 16.7414 82.4775 16.2819 81.2183 16.1758C79.947 16.0688 78.7069 16.9496 78.0983 16.9356Z" fill="url(#paint3_linear_54_2405)"/>
<path d="M35.4934 20.4724C35.0098 20.4313 34.5731 19.7851 34.8774 19.4473C35.4479 18.8141 37.309 18.0402 38.1007 17.8257C38.6746 17.8978 38.8787 18.2686 38.7536 18.7914C38.688 19.0661 35.9639 20.2761 35.4934 20.4724Z" fill="url(#paint4_linear_54_2405)"/>
<path d="M20.4791 52.2306C19.6671 53.0715 19.0681 52.2428 19.1055 51.3415C19.7146 36.6466 30.7858 23.3044 45.1447 20.0741C47.0572 19.6438 48.8463 19.2783 50.8479 19.3154C53.453 19.01 52.6173 20.5975 51.946 20.6034C36.0427 20.7468 22.2249 33.7925 20.6883 49.5345C20.6178 50.2564 20.6588 51.6017 20.4791 52.2306Z" fill="url(#paint5_linear_54_2405)"/>
<path d="M24.8899 29.058C23.1768 29.2631 24.5586 27.5197 25.0349 27.0094C26.4879 25.4529 30.3853 21.791 32.3765 20.8253C32.4405 20.82 32.6085 20.8084 32.6513 20.8271C34.3687 21.492 31.918 22.8206 31.2433 23.2984C29.3406 24.6457 27.6597 26.159 26.1091 27.9089C25.8084 28.2483 25.2868 28.8648 24.8899 29.058Z" fill="url(#paint6_linear_54_2405)"/>
<path d="M22.7486 31.9389C21.5865 32.231 21.6082 30.8203 22.7486 30.0639C24.0995 29.9479 23.6171 31.3572 22.7486 31.9389Z" fill="url(#paint7_linear_54_2405)"/>
<path d="M18.0975 37.6537C18.3486 36.8276 19.5638 34.0749 20.2484 33.6282C20.7393 33.6055 21.2948 33.8907 21.1648 34.384C20.9913 34.8403 19.3532 38.1331 19.1424 38.2759C18.5974 38.296 18.3457 38.1329 18.0975 37.6537Z" fill="url(#paint8_linear_54_2405)"/>
<path d="M41.809 43.3734L41.7331 43.2554C41.2604 42.5111 40.0518 40.5609 41.0954 39.9497C41.6209 39.9792 42.9041 41.1043 43.431 41.4945C48.9978 41.3464 50.2284 46.9019 51.1233 46.9494C54.4903 47.129 56.8346 46.3098 59.0086 49.5715C62.1262 48.8224 64.6549 51.3345 65.0772 54.295C65.3514 56.2162 65.2917 57.4835 66.5281 59.0703C68.8066 61.9768 63.1323 60.2752 62.0393 59.5421C60.0608 58.2157 59.6982 56.6153 59.2591 54.4467C58.9587 55.0025 58.5 55.5534 58.0818 56.0197C59.0667 58.0821 59.7062 57.1861 57.6469 59.0648L55.7913 60.7749C55.2029 61.3126 53.9449 62.5833 53.2517 62.9802C52.8982 63.1825 52.0406 62.417 52.5994 61.8578C54.1322 60.3238 55.7621 58.8409 57.4139 57.425C56.7166 56.3326 56.1799 55.7346 57.4139 54.8808C58.6471 53.0633 58.8563 51.2987 57.2943 49.5717C55.389 47.4657 52.4692 49.0211 50.2743 48.0524C48.4612 47.2525 48.4762 42.8256 43.2333 42.8071C44.1464 44.1989 43.9169 45.3394 42.6981 44.3474C41.8962 45.4286 40.4176 47.0111 39.4818 48.0723C39.6772 48.3308 39.9508 48.6047 40.1775 48.8441C40.8113 48.587 43.7462 47.0331 44.08 47.391C45.0854 48.47 43.2715 50.9987 45.6239 53.2495C45.9227 53.5353 46.331 53.7768 46.6773 54.1087C46.7076 54.2006 46.394 58.4581 45.1035 56.8428C44.7966 56.4587 45.1622 55.1252 45.2538 54.6541C43.2171 53.3086 42.8655 51.4557 43.0237 49.1856C41.3516 49.8159 40.1339 51.0588 38.8133 49.3711C37.0764 47.1511 40.2013 45.3151 41.809 43.3734ZM59.606 50.8315C59.776 51.8766 59.9922 52.2473 60.4029 53.1965C60.5644 53.5694 60.655 54.6377 60.7437 55.0915C61.1551 57.1942 62.7463 58.7743 64.8657 59.1446C64.5631 58.4938 64.2462 57.8621 64.0654 57.1654C63.377 54.5144 63.9336 50.7966 59.606 50.8315Z" fill="url(#paint9_linear_54_2405)"/>
<path d="M86.3525 46.7618C85.0202 46.9996 83.7476 46.1126 83.5096 44.7803C83.2715 43.4482 84.1582 42.1752 85.4903 41.9369C86.8228 41.6985 88.0964 42.5855 88.3344 43.918C88.5725 45.2507 87.685 46.5239 86.3525 46.7618ZM85.6605 43.3405C85.1053 43.486 84.772 44.0525 84.9146 44.6084C85.0572 45.1644 85.6221 45.5006 86.1787 45.3608C86.7393 45.22 87.0785 44.6503 86.9349 44.0903C86.7913 43.5302 86.2197 43.1941 85.6605 43.3405Z" fill="url(#paint10_linear_54_2405)"/>
<path d="M73.8755 76.3735C72.6893 76.4523 72.6444 75.4174 73.3596 74.7826C79.0546 69.7309 82.6916 62.3682 83.3422 54.7911C83.395 54.175 83.3915 53.9018 83.9337 53.5737C85.9454 53.2664 84.2036 58.9773 83.9337 59.9902C82.4547 65.5386 79.7294 70.2873 75.8016 74.4485C75.3273 74.951 74.4374 76.0473 73.8755 76.3735Z" fill="url(#paint11_linear_54_2405)"/>
<path d="M47.8105 61.0213C47.5971 61.5386 47.1941 63.3928 46.3897 63.0472C45.9714 62.8677 45.9398 62.3981 46.0531 62.0042C46.251 61.3166 48.4004 54.6588 49.0573 54.582C50.6764 54.3927 50.934 55.2273 53.9419 54.4465C54.9022 54.4605 54.5768 55.7394 54.9224 56.231C55.2914 56.7559 56.6302 57.6961 55.2039 58.0089C54.3067 58.2056 53.5557 56.7812 53.4172 56.0195C52.1397 56.2673 51.0303 56.3441 49.7486 56.0195C49.1967 57.6228 48.4392 59.428 47.8105 61.0213Z" fill="url(#paint12_linear_54_2405)"/>
<path d="M14.0515 61.602C14.0344 60.8279 13.8453 60.2141 14.6472 59.8667C15.6666 59.8626 15.4467 60.8551 15.4331 61.602C17.7212 61.5431 17.7889 63.0011 15.4331 62.991C15.4918 63.7811 15.6589 64.3001 14.8487 64.6889C13.8302 64.5368 14.0396 63.8297 14.0515 62.991L13.9709 62.9993C12.3109 63.16 11.3196 61.5179 14.0515 61.602Z" fill="url(#paint13_linear_54_2405)"/>
<path d="M83.1545 72.2568C81.6422 71.7998 82.7487 70.6235 83.1836 69.8463C83.6975 68.928 85.2981 65.0716 85.9534 64.8803C86.9702 64.861 86.8888 65.51 86.5967 66.2467C86.2442 67.1265 84.0198 71.8564 83.1545 72.2568Z" fill="url(#paint14_linear_54_2405)"/>
<path d="M27.8667 90.1858C27.8596 90.1929 27.8527 90.2002 27.8458 90.2075C20.3127 94.7459 10.879 88.0332 12.5029 79.4342C12.849 77.6012 13.7534 75.7279 14.8486 74.691C15.4208 74.5384 16.4869 72.7454 16.9822 72.966C17.12 73.2626 17.6273 73.6544 17.4453 74.0144C17.1541 74.5902 16.1356 75.1269 15.898 75.6851L15.9813 75.7281C9.8462 81.4967 17.4384 93.9527 26.6396 89.2685C26.8486 89.1622 27.416 88.7501 27.5752 88.6962C28.1232 88.5707 28.5163 87.8878 28.9705 87.588C28.989 87.5758 29.2829 87.742 29.3296 87.6682C29.4395 87.5025 29.8683 88.0215 29.8583 88.1659C29.8153 88.7909 27.9516 89.954 27.8667 90.1858Z" fill="url(#paint15_linear_54_2405)"/>
<path d="M80.821 75.0227C79.2754 74.7387 80.591 73.3067 81.2739 72.8606C82.72 72.9388 81.7226 74.7015 80.821 75.0227Z" fill="url(#paint16_linear_54_2405)"/>
<path d="M20.4791 74.4362C20.6357 74.3917 21.4612 73.3255 21.7699 74.3932C22.0192 75.255 21.4709 75.0824 21.1697 75.6812L21.2119 75.7283C19.9363 77.175 18.4973 77.956 18.0031 79.9704C16.9407 84.3004 21.5382 87.7517 25.3695 85.4706C25.4857 85.4013 25.7963 85.1874 25.9031 85.1409C26.4585 85.059 27.2082 83.8446 27.5923 83.7367L27.6171 83.9232C27.7148 83.8888 27.6709 83.9193 27.7386 83.8196C28.9344 85.3235 26.61 85.7265 26.7042 86.3255C21.2585 91.2223 10.4425 82.3323 20.4791 74.4362Z" fill="url(#paint17_linear_54_2405)"/>
<path d="M66.4578 86.0659C65.935 86.0986 65.6453 85.4754 65.7964 85.0202C66.2092 84.5758 69.4592 83.1905 70.3011 82.6396C72.5369 81.1769 74.7384 79.7916 76.624 77.8453C77.0429 77.4132 77.7481 76.622 78.2677 76.3736C78.8913 76.2733 79.2624 76.7577 78.9183 77.3074C77.4335 79.6667 69.6288 85.2053 66.4578 86.0659Z" fill="url(#paint18_linear_54_2405)"/>
<path d="M52.5499 84.344C51.3914 84.293 51.0591 83.0586 53.0288 82.9692C59.4437 82.6779 63.1546 81.3221 68.5626 78.3059C69.3016 78.1854 69.7275 79.0891 69.1539 79.4736C64.2204 82.7795 58.4661 84.3618 52.5499 84.344Z" fill="url(#paint19_linear_54_2405)"/>
<path d="M36.7973 89.9081C36.8319 89.018 36.5105 88.4306 37.4591 88.0566C38.5383 88.0176 38.2706 89.1493 38.259 89.9081C38.7374 89.9333 39.8688 89.7936 40.0668 90.1631C40.8214 91.5703 38.7303 91.3186 38.259 91.2567C38.2472 91.927 38.4445 92.5431 37.868 92.994C36.5711 93.3202 36.7843 92.1348 36.7973 91.2567C34.0314 91.3424 34.3387 89.7412 36.7973 89.9081Z" fill="url(#paint20_linear_54_2405)"/>
<defs>
<linearGradient id="paint0_linear_54_2405" x1="59.4024" y1="13.3575" x2="64.7517" y2="13.3575" gradientUnits="userSpaceOnUse">
<stop stop-color="#C427E0"/>
<stop offset="0.471154" stop-color="#844AFF"/>
<stop offset="1" stop-color="#12A9FF"/>
</linearGradient>
<linearGradient id="paint1_linear_54_2405" x1="78.4385" y1="20.4161" x2="91.6369" y2="20.4161" gradientUnits="userSpaceOnUse">
<stop stop-color="#C427E0"/>
<stop offset="0.471154" stop-color="#844AFF"/>
<stop offset="1" stop-color="#12A9FF"/>
</linearGradient>
<linearGradient id="paint2_linear_54_2405" x1="14.8486" y1="51.2547" x2="90.9248" y2="51.2547" gradientUnits="userSpaceOnUse">
<stop stop-color="#C427E0"/>
<stop offset="0.471154" stop-color="#844AFF"/>
<stop offset="1" stop-color="#12A9FF"/>
</linearGradient>
<linearGradient id="paint3_linear_54_2405" x1="78.0983" y1="20.8013" x2="87.7707" y2="20.8013" gradientUnits="userSpaceOnUse">
<stop stop-color="#C427E0"/>
<stop offset="0.471154" stop-color="#844AFF"/>
<stop offset="1" stop-color="#12A9FF"/>
</linearGradient>
<linearGradient id="paint4_linear_54_2405" x1="34.7766" y1="19.149" x2="38.789" y2="19.149" gradientUnits="userSpaceOnUse">
<stop stop-color="#C427E0"/>
<stop offset="0.471154" stop-color="#844AFF"/>
<stop offset="1" stop-color="#12A9FF"/>
</linearGradient>
<linearGradient id="paint5_linear_54_2405" x1="19.1038" y1="35.9281" x2="52.6276" y2="35.9281" gradientUnits="userSpaceOnUse">
<stop stop-color="#C427E0"/>
<stop offset="0.471154" stop-color="#844AFF"/>
<stop offset="1" stop-color="#12A9FF"/>
</linearGradient>
<linearGradient id="paint6_linear_54_2405" x1="24.0564" y1="24.9458" x2="33.2507" y2="24.9458" gradientUnits="userSpaceOnUse">
<stop stop-color="#C427E0"/>
<stop offset="0.471154" stop-color="#844AFF"/>
<stop offset="1" stop-color="#12A9FF"/>
</linearGradient>
<linearGradient id="paint7_linear_54_2405" x1="21.8851" y1="31.0176" x2="23.5905" y2="31.0176" gradientUnits="userSpaceOnUse">
<stop stop-color="#C427E0"/>
<stop offset="0.471154" stop-color="#844AFF"/>
<stop offset="1" stop-color="#12A9FF"/>
</linearGradient>
<linearGradient id="paint8_linear_54_2405" x1="18.0975" y1="35.9523" x2="21.184" y2="35.9523" gradientUnits="userSpaceOnUse">
<stop stop-color="#C427E0"/>
<stop offset="0.471154" stop-color="#844AFF"/>
<stop offset="1" stop-color="#12A9FF"/>
</linearGradient>
<linearGradient id="paint9_linear_54_2405" x1="38.3031" y1="51.4816" x2="67.0627" y2="51.4816" gradientUnits="userSpaceOnUse">
<stop stop-color="#C427E0"/>
<stop offset="0.471154" stop-color="#844AFF"/>
<stop offset="1" stop-color="#12A9FF"/>
</linearGradient>
<linearGradient id="paint10_linear_54_2405" x1="83.4709" y1="44.3493" x2="88.373" y2="44.3493" gradientUnits="userSpaceOnUse">
<stop stop-color="#C427E0"/>
<stop offset="0.471154" stop-color="#844AFF"/>
<stop offset="1" stop-color="#12A9FF"/>
</linearGradient>
<linearGradient id="paint11_linear_54_2405" x1="72.8889" y1="64.9698" x2="84.8909" y2="64.9698" gradientUnits="userSpaceOnUse">
<stop stop-color="#C427E0"/>
<stop offset="0.471154" stop-color="#844AFF"/>
<stop offset="1" stop-color="#12A9FF"/>
</linearGradient>
<linearGradient id="paint12_linear_54_2405" x1="45.9967" y1="58.7682" x2="55.8468" y2="58.7682" gradientUnits="userSpaceOnUse">
<stop stop-color="#C427E0"/>
<stop offset="0.471154" stop-color="#844AFF"/>
<stop offset="1" stop-color="#12A9FF"/>
</linearGradient>
<linearGradient id="paint13_linear_54_2405" x1="12.3469" y1="62.2778" x2="17.1747" y2="62.2778" gradientUnits="userSpaceOnUse">
<stop stop-color="#C427E0"/>
<stop offset="0.471154" stop-color="#844AFF"/>
<stop offset="1" stop-color="#12A9FF"/>
</linearGradient>
<linearGradient id="paint14_linear_54_2405" x1="82.3844" y1="68.5683" x2="86.7897" y2="68.5683" gradientUnits="userSpaceOnUse">
<stop stop-color="#C427E0"/>
<stop offset="0.471154" stop-color="#844AFF"/>
<stop offset="1" stop-color="#12A9FF"/>
</linearGradient>
<linearGradient id="paint15_linear_54_2405" x1="12.3185" y1="82.3082" x2="29.8585" y2="82.3082" gradientUnits="userSpaceOnUse">
<stop stop-color="#C427E0"/>
<stop offset="0.471154" stop-color="#844AFF"/>
<stop offset="1" stop-color="#12A9FF"/>
</linearGradient>
<linearGradient id="paint16_linear_54_2405" x1="80.0994" y1="73.9416" x2="82.0043" y2="73.9416" gradientUnits="userSpaceOnUse">
<stop stop-color="#C427E0"/>
<stop offset="0.471154" stop-color="#844AFF"/>
<stop offset="1" stop-color="#12A9FF"/>
</linearGradient>
<linearGradient id="paint17_linear_54_2405" x1="16.3676" y1="80.8237" x2="28.0813" y2="80.8237" gradientUnits="userSpaceOnUse">
<stop stop-color="#C427E0"/>
<stop offset="0.471154" stop-color="#844AFF"/>
<stop offset="1" stop-color="#12A9FF"/>
</linearGradient>
<linearGradient id="paint18_linear_54_2405" x1="65.7565" y1="81.2138" x2="79.0498" y2="81.2138" gradientUnits="userSpaceOnUse">
<stop stop-color="#C427E0"/>
<stop offset="0.471154" stop-color="#844AFF"/>
<stop offset="1" stop-color="#12A9FF"/>
</linearGradient>
<linearGradient id="paint19_linear_54_2405" x1="51.6157" y1="81.3195" x2="69.42" y2="81.3195" gradientUnits="userSpaceOnUse">
<stop stop-color="#C427E0"/>
<stop offset="0.471154" stop-color="#844AFF"/>
<stop offset="1" stop-color="#12A9FF"/>
</linearGradient>
<linearGradient id="paint20_linear_54_2405" x1="34.8364" y1="90.5525" x2="40.2294" y2="90.5525" gradientUnits="userSpaceOnUse">
<stop stop-color="#C427E0"/>
<stop offset="0.471154" stop-color="#844AFF"/>
<stop offset="1" stop-color="#12A9FF"/>
</linearGradient>
</defs>
</svg>
