<svg width="104" height="104" viewBox="0 0 104 104" fill="none" xmlns="http://www.w3.org/2000/svg">
<path d="M50.3332 16.1561C49.2058 16.1534 47.9489 14.45 51.1506 14.2892C52.2899 14.3078 53.4808 16.1397 50.3332 16.1561Z" fill="url(#paint0_linear_54_2290)"/>
<path d="M15.1282 35.6781C13.437 36.3472 13.7269 34.7092 14.4534 33.5471C20.6056 23.7067 31.5027 16.9753 42.848 15.0532C43.9025 14.8746 44.9723 14.7402 46.0343 14.5931C47.6097 14.4084 47.8595 16.073 46.89 16.2237C44.4472 16.6035 42.0148 16.957 39.6076 17.5528C31.3709 19.5916 23.6767 24.6165 18.3268 31.1505C17.2431 32.4738 16.0911 34.6105 15.1282 35.6781Z" fill="url(#paint1_linear_54_2290)"/>
<path d="M17.3555 63.195C11.5846 51.7447 15.7199 38.4942 24.8562 30.1366C39.9624 16.3182 65.8452 16.6823 80.3855 31.1896C81.2491 32.0513 82.2081 32.9235 82.9152 33.9212C87.2356 39.0678 89.8318 46.9359 89.2539 53.6465C87.3214 76.0894 61.1599 87.6263 41.2567 81.7066C40.3201 81.4281 39.406 81.0647 38.4651 80.8057C37.2307 81.171 35.3833 82.2144 34.1617 82.7954L23.5742 87.9023C22.5722 88.378 20.7041 89.4178 19.7228 89.5736C15.998 90.1657 13.3819 86.085 15.3875 82.8801C17.8364 78.9666 19.9928 74.6094 22.5011 70.7645C20.7061 69.033 18.282 65.5186 17.3555 63.195ZM82.9152 36.9622C71.0951 20.3167 46.1615 17.1804 29.644 28.5082C18.6316 36.0604 13.5567 48.7339 18.5182 61.4613C19.6808 64.1867 21.3535 67.0751 23.4686 69.2071C24.9445 70.6948 24.4745 70.8888 23.5291 72.49L22.1164 74.8698C20.8453 77.0309 19.6378 79.2545 18.3372 81.4068C17.0457 83.5792 15.006 85.9251 18.1388 87.7049C18.7336 88.0429 19.8242 87.7045 20.4274 87.4138C26.031 84.7129 31.6348 82.0044 37.2448 79.316C37.701 79.0975 37.9437 78.9301 38.4651 78.8618C39.4255 78.9654 40.3121 79.4454 41.2303 79.7363C45.6635 81.1413 50.2563 81.795 54.9022 81.4397C55.901 81.3633 57.0823 81.1007 58.0364 81.0694C58.5229 81.4527 61.0872 80.4688 61.7973 80.4346C62.1046 80.3964 62.4026 80.5598 62.7028 80.5856C62.9976 80.6107 63.1749 80.2561 63.404 80.184L63.5149 80.3499C64.3154 80.524 64.9386 80.0834 65.5065 79.5297L65.4606 79.3814C65.755 79.1761 66.5508 78.9628 66.9313 78.819C69.0468 78.0195 74.4806 75.3242 76.0258 73.6381L76.0071 73.5548C76.0656 73.4646 76.9931 72.7309 77.1397 72.6237C77.781 72.154 78.2742 71.6204 78.849 71.0905C88.8925 61.8296 89.8767 48.192 82.9152 36.9622Z" fill="url(#paint2_linear_54_2290)"/>
<path d="M86.313 28.4382C85.6781 27.806 84.4315 26.5255 86.1241 26.2204C86.7049 26.257 87.1692 26.8322 87.5448 27.2367C89.4229 24.9625 90.1992 27.0439 89.3494 27.7227C89.1893 27.8505 88.8533 28.2346 88.7302 28.3876L88.6902 28.4382C89.4676 29.0083 90.3725 29.9197 89.012 30.5068C88.3319 30.5637 87.9634 30.0077 87.5448 29.5511C84.999 31.6959 84.763 29.4773 86.313 28.4382Z" fill="url(#paint3_linear_54_2290)"/>
<path d="M38.6124 63.1951C38.3796 61.1015 38.834 61.0627 40.2471 59.6568L42.9256 57.0197C49.936 50.2385 56.6702 43.1198 63.6989 36.3454C64.9644 35.1256 67.4903 31.9189 69.069 31.7038C71.1087 31.5608 72.6066 33.5587 71.5264 35.4104C71.1522 36.0519 69.7431 37.2109 69.1476 37.8189L46.4203 60.5488C45.0177 61.9505 43.0247 64.6476 41.2246 65.1325C40.5957 67.6835 37.223 74.7269 33.7518 73.0298C32.8396 72.3903 30.7699 70.3447 30.6708 69.2935C30.4319 66.7617 36.166 63.3423 38.6124 63.1951ZM69.3003 33.2997C68.744 33.6154 67.4082 35.032 66.8522 35.5875L44.9332 57.473C43.5055 58.9229 42.1185 60.4005 40.5959 61.7519C40.0493 62.2369 40.1598 63.3716 41.2246 63.1951C42.0263 62.7145 44.2134 60.305 44.9988 59.522L68.9536 35.5886C69.3361 35.2048 70.023 34.5748 70.3157 34.1504C70.0761 33.7228 69.8327 33.3615 69.3003 33.2997ZM39.2805 64.8201C36.431 65.2204 33.9578 66.7861 32.3655 69.2029C32.8449 69.7148 33.3257 70.2075 33.7518 70.7645C34.2442 71.0521 34.4449 71.4149 34.8747 71.7019C37.0666 70.1226 38.9287 67.5356 39.3666 64.8694L39.3172 64.8158L39.2805 64.8201Z" fill="url(#paint4_linear_54_2290)"/>
<path d="M31.3044 34.5779C31.7109 32.75 32.9166 33.817 33.7519 34.5779C34.2416 34.8328 35.5152 35.9606 36.0608 36.3715C37.6692 37.5832 36.9761 39.0125 35.0616 37.6191C35.6952 38.5961 36.5178 39.728 37.188 40.6989C38.6624 37.4083 38.2229 38.4489 40.872 40.0621C43.559 38.4678 45.2144 38.5301 47.9796 39.9246C50.4079 39.6981 52.736 40.1641 55.0772 40.7363C56.9863 41.2028 56.0022 42.8159 55.1389 42.5561C51.7583 41.539 50.5759 41.8636 47.6034 41.5601C45.5305 40.5981 44.5963 40.0948 42.2541 41.2546C43.079 41.7379 45.9374 43.1673 43.5911 43.9757C41.8596 43.1374 40.3287 41.8864 38.8416 40.6989C38.7441 41.3932 38.5861 41.6197 38.0084 41.9839C38.4922 42.7186 40.8495 45.3425 40.8466 45.3949C40.7654 46.8654 39.6919 46.2834 39.1449 45.7902C37.8469 47.0112 37.4144 49.3053 36.4366 50.8218C35.5723 52.162 34.2524 52.4854 33.7519 53.9508C34.3192 54.6006 34.9952 55.6972 35.6619 56.1019C38.6763 56.4035 36.9395 52.6229 39.1449 53.9508C40.298 53.29 42.4473 52.1446 43.8708 52.7678C44.239 52.9288 44.42 53.4874 44.1411 53.851C43.5675 54.5991 40.4136 54.341 38.6824 56.58C36.2024 59.7878 32.3895 56.265 32.1192 54.198C31.7028 51.9116 34.3227 51.1007 35.0675 49.7404C36.0978 47.8584 36.4732 46.2609 37.8241 44.4329C37.1851 43.7177 31.4779 35.1424 31.3044 34.5779Z" fill="url(#paint5_linear_54_2290)"/>
<path d="M12.8459 39.9246C11.2022 39.5738 11.8963 37.82 12.8459 37.3784C14.6079 37.3506 13.631 39.6219 12.8459 39.9246Z" fill="url(#paint6_linear_54_2290)"/>
<path d="M70.9966 47.7724C70.2802 47.1169 69.0375 46.186 70.3157 45.3536C71.149 45.2289 71.5733 45.9221 72.1106 46.4815C72.4319 46.2051 73.1248 45.4186 73.6104 45.3739C74.2344 45.3164 74.7363 45.9766 74.4709 46.5679C74.3122 46.9211 73.7006 47.4476 73.3803 47.7724C74.0018 48.3665 75.3774 49.4027 73.976 50.128C73.1036 50.2643 72.8832 49.6458 72.1106 49.0842C71.7248 49.45 71.2233 50.1248 70.684 50.1685C70.2018 50.2077 69.7342 49.6925 69.7789 49.2182C69.8337 48.6361 70.5656 48.1307 70.9966 47.7724Z" fill="url(#paint7_linear_54_2290)"/>
<path d="M61.4529 47.7723C61.6201 47.2785 61.6469 47.0648 62.1663 46.8763C62.8325 46.8534 62.8859 47.0055 63.2341 47.5655C67.4922 54.4161 63.137 62.2941 65.9637 69.5136C66.3165 70.4151 66.5536 70.957 65.6129 71.4835C63.0304 71.7785 63.1201 61.1213 63.2357 59.5268C63.5075 55.7807 63.8234 53.0999 62.2824 49.5334C62.0314 48.9527 61.6613 48.3681 61.4529 47.7723Z" fill="url(#paint8_linear_54_2290)"/>
<path d="M45.7709 63.5391C46.0417 63.2592 46.1624 63.2177 46.5461 63.195C48.8842 62.9685 46.4496 71.0307 44.8695 71.4835C43.0413 71.188 44.6318 69.0686 44.981 68.1539C45.5735 66.6004 45.6192 65.145 45.7709 63.5391Z" fill="url(#paint9_linear_54_2290)"/>
<path d="M90.6062 68.536C88.4108 68.7485 89.8081 65.9285 90.8008 65.4138C92.9048 65.2645 91.5832 68.0298 90.6062 68.536Z" fill="url(#paint10_linear_54_2290)"/>
<path d="M82.0998 78.4067C81.4708 78.3746 80.7948 77.7481 81.0276 77.235C81.2593 76.7242 82.5697 75.7861 83.0328 75.3604C83.8788 74.5826 87.775 70.0247 88.0224 69.8929C88.7565 69.8273 89.4997 70.4078 89.0863 71.2016C88.3329 72.6489 83.32 77.9413 82.0998 78.4067Z" fill="url(#paint11_linear_54_2290)"/>
<path d="M58.0365 81.0694C64.9935 80.1771 70.4212 77.521 76.0072 73.5548L76.0259 73.6381C74.4807 75.3242 69.0469 78.0195 66.9313 78.819C66.5509 78.9628 65.755 79.1761 65.4607 79.3814L65.5066 79.5297C64.9387 80.0835 64.3155 80.524 63.515 80.35L63.4041 80.184C63.175 80.2561 62.9976 80.6108 62.7029 80.5856C62.4027 80.5598 62.1047 80.3965 61.7974 80.4347C61.0872 80.4688 58.523 81.4527 58.0365 81.0694Z" fill="url(#paint12_linear_54_2290)"/>
<path d="M78.3128 81.2968C76.755 81.3512 76.895 79.7579 78.7678 78.8619C79.4109 78.8536 79.9748 79.5162 79.8088 80.14C79.677 80.6362 78.7548 81.0638 78.3128 81.2968Z" fill="url(#paint13_linear_54_2290)"/>
<defs>
<linearGradient id="paint0_linear_54_2290" x1="49.1144" y1="15.2227" x2="52.3525" y2="15.2227" gradientUnits="userSpaceOnUse">
<stop stop-color="#C427E0"/>
<stop offset="0.471154" stop-color="#844AFF"/>
<stop offset="1" stop-color="#12A9FF"/>
</linearGradient>
<linearGradient id="paint1_linear_54_2290" x1="13.8783" y1="25.2062" x2="47.4617" y2="25.2062" gradientUnits="userSpaceOnUse">
<stop stop-color="#C427E0"/>
<stop offset="0.471154" stop-color="#844AFF"/>
<stop offset="1" stop-color="#12A9FF"/>
</linearGradient>
<linearGradient id="paint2_linear_54_2290" x1="14.6935" y1="54.8329" x2="89.3339" y2="54.8329" gradientUnits="userSpaceOnUse">
<stop stop-color="#C427E0"/>
<stop offset="0.471154" stop-color="#844AFF"/>
<stop offset="1" stop-color="#12A9FF"/>
</linearGradient>
<linearGradient id="paint3_linear_54_2290" x1="85.2726" y1="28.3559" x2="89.713" y2="28.3559" gradientUnits="userSpaceOnUse">
<stop stop-color="#C427E0"/>
<stop offset="0.471154" stop-color="#844AFF"/>
<stop offset="1" stop-color="#12A9FF"/>
</linearGradient>
<linearGradient id="paint4_linear_54_2290" x1="30.6636" y1="52.4936" x2="71.8874" y2="52.4936" gradientUnits="userSpaceOnUse">
<stop stop-color="#C427E0"/>
<stop offset="0.471154" stop-color="#844AFF"/>
<stop offset="1" stop-color="#12A9FF"/>
</linearGradient>
<linearGradient id="paint5_linear_54_2290" x1="31.3044" y1="45.7206" x2="56.175" y2="45.7206" gradientUnits="userSpaceOnUse">
<stop stop-color="#C427E0"/>
<stop offset="0.471154" stop-color="#844AFF"/>
<stop offset="1" stop-color="#12A9FF"/>
</linearGradient>
<linearGradient id="paint6_linear_54_2290" x1="11.8566" y1="38.6514" x2="13.834" y2="38.6514" gradientUnits="userSpaceOnUse">
<stop stop-color="#C427E0"/>
<stop offset="0.471154" stop-color="#844AFF"/>
<stop offset="1" stop-color="#12A9FF"/>
</linearGradient>
<linearGradient id="paint7_linear_54_2290" x1="69.7629" y1="47.7547" x2="74.5841" y2="47.7547" gradientUnits="userSpaceOnUse">
<stop stop-color="#C427E0"/>
<stop offset="0.471154" stop-color="#844AFF"/>
<stop offset="1" stop-color="#12A9FF"/>
</linearGradient>
<linearGradient id="paint8_linear_54_2290" x1="61.4529" y1="59.1818" x2="66.2743" y2="59.1818" gradientUnits="userSpaceOnUse">
<stop stop-color="#C427E0"/>
<stop offset="0.471154" stop-color="#844AFF"/>
<stop offset="1" stop-color="#12A9FF"/>
</linearGradient>
<linearGradient id="paint9_linear_54_2290" x1="44.0065" y1="67.3369" x2="47.5138" y2="67.3369" gradientUnits="userSpaceOnUse">
<stop stop-color="#C427E0"/>
<stop offset="0.471154" stop-color="#844AFF"/>
<stop offset="1" stop-color="#12A9FF"/>
</linearGradient>
<linearGradient id="paint10_linear_54_2290" x1="89.4398" y1="66.9777" x2="91.923" y2="66.9777" gradientUnits="userSpaceOnUse">
<stop stop-color="#C427E0"/>
<stop offset="0.471154" stop-color="#844AFF"/>
<stop offset="1" stop-color="#12A9FF"/>
</linearGradient>
<linearGradient id="paint11_linear_54_2290" x1="80.9806" y1="74.1472" x2="89.2049" y2="74.1472" gradientUnits="userSpaceOnUse">
<stop stop-color="#C427E0"/>
<stop offset="0.471154" stop-color="#844AFF"/>
<stop offset="1" stop-color="#12A9FF"/>
</linearGradient>
<linearGradient id="paint12_linear_54_2290" x1="58.0365" y1="77.3564" x2="76.0259" y2="77.3564" gradientUnits="userSpaceOnUse">
<stop stop-color="#C427E0"/>
<stop offset="0.471154" stop-color="#844AFF"/>
<stop offset="1" stop-color="#12A9FF"/>
</linearGradient>
<linearGradient id="paint13_linear_54_2290" x1="77.2441" y1="80.08" x2="79.8381" y2="80.08" gradientUnits="userSpaceOnUse">
<stop stop-color="#C427E0"/>
<stop offset="0.471154" stop-color="#844AFF"/>
<stop offset="1" stop-color="#12A9FF"/>
</linearGradient>
</defs>
</svg>
