<svg width="104" height="104" viewBox="0 0 104 104" fill="none" xmlns="http://www.w3.org/2000/svg">
<path d="M52.1592 20.7206C51.8235 20.7378 51.4615 20.6231 51.3016 20.3002C51.1948 20.0844 50.7374 14.864 51.7544 14.374C52.1966 14.3485 52.6829 14.5473 52.7398 15.0453C52.8929 16.3888 52.9029 18.8453 52.7142 20.1586C52.6742 20.4291 52.3603 20.6022 52.1592 20.7206Z" fill="url(#paint0_linear_54_2383)"/>
<path d="M43.1182 21.146C42.8671 21.16 38.5783 18.5377 40.3809 17.3223C41.1773 17.1953 43.0958 19.3353 43.5358 19.9413C43.8874 20.4257 43.5059 20.8515 43.1182 21.146Z" fill="url(#paint1_linear_54_2383)"/>
<path d="M61.3829 21.1462C58.9733 21.0385 62.5761 17.7071 63.2962 17.3225C65.8893 17.6384 61.9584 20.9191 61.3829 21.1462Z" fill="url(#paint2_linear_54_2383)"/>
<path d="M42.0609 27.7636C42.2693 27.5936 42.5063 27.449 42.7397 27.3153C45.6724 25.6373 49.0031 23.6798 52.0296 22.187C54.0127 23.237 55.9715 24.4322 57.9566 25.5215C59.1116 26.214 61.7599 27.1004 61.7605 28.3543L61.7569 37.3009C62.8432 37.593 66.8925 39.8239 67.0723 40.4347C67.8616 43.119 61.5599 38.8041 61.1784 38.576C60.4502 38.9241 59.4376 39.5514 58.7088 39.9613L54.7962 42.1302C54.1931 42.4692 52.7489 43.3171 52.1592 43.4942C51.5576 43.4646 44.2831 39.3947 42.8565 38.576C41.4818 39.3568 40.0357 40.0482 38.6764 40.8668C36.9498 41.9066 36.3547 40.1967 37.5355 39.6346C38.6817 39.0283 40.9772 37.6674 42.0609 37.3009C42.1285 34.1681 41.9097 30.8613 42.0609 27.7636ZM52.0296 23.905L47.7425 26.3267C46.8325 26.8315 45.5611 27.4939 44.7277 28.073C47.0992 29.0862 49.7463 30.8586 52.0296 32.0471C53.9 30.8834 57.2244 28.8916 59.1843 28.073C57.2116 26.6263 54.158 25.3751 52.0296 23.905ZM43.6192 29.0593L43.617 34.5573C43.6166 35.3704 43.5764 36.5222 43.6192 37.3009C46.0549 38.5524 48.8977 39.9637 51.2269 41.3965V33.3491C49.0264 32.0749 45.8721 30.0534 43.6192 29.0593ZM60.1014 29.2879C57.7525 30.4087 55.1746 32.0871 52.8054 33.3491C52.8054 34.1846 52.7593 41.2477 52.8625 41.4223L52.9916 41.3965C55.1594 40.1227 58.0411 38.348 60.2749 37.3009L60.2759 32.329C60.2759 31.9399 60.4159 29.2661 60.1014 29.2879Z" fill="url(#paint3_linear_54_2383)"/>
<path d="M37.8505 28.4421C36.9348 28.5367 33.6527 28.5871 33.2989 28.0484C32.9643 27.5396 33.357 27.1114 33.8473 26.8472C35.0261 26.8512 36.2347 26.797 37.4073 26.8494C38.4154 26.8947 38.818 27.8238 37.8505 28.4421Z" fill="url(#paint4_linear_54_2383)"/>
<path d="M69.9971 28.4421C69.4202 28.5067 66.3666 28.5619 66.1304 28.2538C65.6923 27.6824 65.9435 27.2209 66.4682 26.8472C67.5023 26.8413 68.9536 26.7531 69.9674 26.9341C70.6733 27.06 70.8106 28.1037 69.9971 28.4421Z" fill="url(#paint5_linear_54_2383)"/>
<path d="M32.4618 35.6456L28.9857 35.65C28.3215 35.6502 24.8958 35.9411 26.0337 34.2668C26.2629 33.9296 26.9057 33.9692 27.276 33.9761L31.2809 33.9745C31.9168 33.9722 32.5429 33.9438 33.1831 33.9665C33.6952 33.9669 34.9568 35.2671 32.4618 35.6456Z" fill="url(#paint6_linear_54_2383)"/>
<path d="M77.4026 35.6456L73.2168 35.6492C72.5441 35.6499 71.8658 35.6653 71.2 35.6342C70.3909 35.5966 69.7507 34.1258 71.6028 33.9761C72.5597 33.9911 77.766 33.8144 78.235 34.1835C79.0892 34.8556 78.3819 35.5591 77.4026 35.6456Z" fill="url(#paint7_linear_54_2383)"/>
<path d="M85.5713 49.7844C85.6375 48.5531 85.385 41.3009 85.706 40.8892C85.8617 40.6893 86.0685 40.6716 86.3029 40.628C87.6915 40.3996 87.192 43.036 87.1916 44.0736L87.1886 49.5756C87.5649 49.262 92.1576 43.7882 92.2653 46.4442C92.2844 46.9179 87.1695 52.2268 86.3029 52.2853C85.6992 52.0617 81.3284 47.862 80.5874 46.8318C80.2277 46.3315 80.6969 45.5862 81.292 45.6636C81.8454 45.7355 85.1758 49.2216 85.5713 49.7844Z" fill="url(#paint8_linear_54_2383)"/>
<path d="M16.715 49.7843C16.7844 49.1763 16.7193 48.6342 16.7237 48.026L16.7103 43.0464C16.7084 42.0095 16.3991 41.1222 17.3309 40.6278C18.8673 40.5756 18.3393 42.8904 18.3361 44.1078L18.3337 49.5755C19.1044 48.8371 21.6093 46.0878 22.3787 45.7324C22.9797 45.4545 23.7691 46.1469 23.4301 46.762C23.1205 47.324 18.3922 52.0118 17.5138 52.2852C16.5099 52.1647 11.7869 47.0799 11.6636 46.7551C11.4847 46.2838 11.8531 45.6594 12.3752 45.631C12.8432 45.6054 16.3155 49.2718 16.715 49.7843Z" fill="url(#paint9_linear_54_2383)"/>
<path d="M70.5804 43.4942C70.0574 43.5879 67.0631 42.319 68.885 41.1776C69.4476 41.1435 72.5256 42.5895 70.5804 43.4942Z" fill="url(#paint10_linear_54_2383)"/>
<path d="M33.9558 43.4942C32.9087 43.8649 31.9574 42.0729 34.761 41.3965C35.8122 41.1912 36.2371 42.3059 35.2999 42.8087C34.8522 43.049 34.4122 43.2704 33.9558 43.4942Z" fill="url(#paint11_linear_54_2383)"/>
<path d="M52.1592 55.7113C51.3372 55.6922 51.2722 55.265 51.236 54.5649C51.1916 53.7024 51.1357 47.1246 51.3209 46.6745C51.4361 46.3946 51.7739 46.2753 52.0296 46.1638C52.3372 46.2046 52.6345 46.3351 52.7639 46.6424C52.873 46.9016 52.844 54.3463 52.8054 55.0503C52.7849 55.4279 52.4859 55.5976 52.1592 55.7113Z" fill="url(#paint12_linear_54_2383)"/>
<path d="M41.1769 50.5748C38.5582 50.7152 42.1062 47.1587 42.8565 46.8237C45.2223 46.9257 42.0036 50.0577 41.1769 50.5748Z" fill="url(#paint13_linear_54_2383)"/>
<path d="M63.2962 50.5748L63.2474 50.5785C62.491 50.6407 60.7746 48.4914 60.3336 47.8773C59.9974 47.4093 60.5948 46.9805 60.9586 46.8237C61.034 46.8203 65.3985 49.3821 63.2962 50.5748Z" fill="url(#paint14_linear_54_2383)"/>
<path d="M13.6558 79.0882C13.8605 78.9474 14.0482 78.8148 14.2636 78.6897V70.4588C12.4838 69.985 11.123 68.4587 11.5302 66.5168C11.8692 64.9003 13.5051 64.2253 14.8158 63.4309L30.9085 53.5296C33.7171 51.8262 35.9086 52.9931 38.3512 54.4873C42.5372 57.0477 46.6905 59.6634 50.8436 62.2768C52.6912 63.4397 53.6725 61.8987 55.5457 60.7302L64.0843 55.3071C69.7405 51.7661 70.3296 51.8049 76.0079 55.275L84.6184 60.6432C86.5349 61.8281 92.2291 64.4809 92.43 66.7374C92.597 68.6118 91.5641 69.921 89.7514 70.3106C89.7699 73.1945 89.6904 76.2239 89.7514 79.0882C90.3603 79.3324 91.7832 80.1081 92.1755 80.6277C92.3948 81.5235 92.2413 87.0275 92.2291 88.2753C92.2165 89.569 90.6665 89.4039 90.6175 88.5313C90.5765 87.7996 90.6006 87.0452 90.6012 86.304L90.6011 81.3683C89.4615 80.6876 87.857 79.7792 86.6757 79.1885C85.5006 79.6767 84.2091 80.688 83.0986 81.2163L83.0976 86.3759C83.0978 87.2906 83.5136 89.201 82.2756 89.2231C81.2051 89.2422 81.4519 87.5222 81.4525 86.7292L81.4621 83.8232C81.4667 80.2495 80.7054 80.6366 83.8319 78.8757C83.8008 78.1037 83.8293 77.2704 83.8309 76.4902L83.8264 69.2307C83.8244 68.8334 83.7978 68.0731 83.8319 67.701C81.0467 65.8922 77.9378 63.9802 75.0805 62.2351L71.6588 60.1092C71.2132 59.8269 70.3572 59.3237 69.9971 58.9993L59.8646 65.3848C58.2408 66.4079 56.5132 67.4459 54.9213 68.5074V78.6897C57.2012 80.5643 57.6109 79.8542 57.6111 82.7319L57.6091 85.3914C57.6083 86.161 57.6729 87.9908 57.6079 88.6465C57.0249 89.5581 55.9831 89.4823 55.965 88.4385C55.9254 86.1496 55.8498 83.6449 55.9201 81.3683C55.2933 81.1052 52.6839 79.1879 52.1592 78.6897C51.0014 79.2229 49.1591 80.4812 48.1404 81.2163C48.2026 82.5243 48.139 84.3896 48.1368 85.7489L48.1359 87.5473C48.141 88.3257 48.3521 89.2099 47.2257 89.2215C46.2154 89.2319 46.461 87.4007 46.4632 86.6914L46.4723 83.73C46.4756 80.6084 45.8345 80.2535 49.0177 78.6897V68.5074C47.696 67.79 46.0754 66.7128 44.7594 65.9084L37.9051 61.7163C36.5535 60.8776 35.2052 59.9934 33.8473 59.1744C32.6351 59.9498 31.4196 60.6363 30.1976 61.3893L20.3121 67.4776V78.8757C20.9083 79.2001 22.372 79.9358 22.7908 80.4051V85.6743C22.6175 85.8996 22.712 87.3891 22.6931 87.7852C22.5483 87.6065 22.7157 85.989 22.4624 86.6221C22.0732 86.5372 22.4014 86.3609 22.1122 86.5354C21.5089 87.4921 21.7185 89.682 21.1648 87.4153C21.1295 87.0917 21.1599 85.9221 21.1603 85.5319L21.1648 81.3683C20.1821 80.5684 18.467 79.6112 17.3309 78.8757C16.2492 79.3198 14.3037 80.5641 13.3409 81.2163V86.72L13.2932 86.6442C13.3717 84.7808 13.2576 82.947 13.3159 81.101C13.3238 80.8509 15.1785 80.3988 14.7324 79.6389C14.3167 79.516 14.0727 79.1189 13.6558 79.0882ZM33.6034 54.3037C31.8752 54.5113 30.3743 55.7971 28.9008 56.6941L22.0445 60.8927C20.7173 61.7194 14.2323 65.4313 13.4281 66.3612C12.3358 67.6244 14.158 69.44 15.5733 68.5344L32.4193 58.1017C34.5453 56.82 35.1837 58.1273 37.1824 59.3345L46.7057 65.2044C52.8685 68.9232 52.4284 68.1522 57.9174 64.6812L66.1627 59.5031C67.0885 58.923 69.2414 57.1834 70.308 57.4081C71.0405 57.701 71.6651 58.2019 72.3352 58.6057C77.1038 61.4793 81.7619 64.5367 86.5312 67.4108C87.5331 68.0144 88.7508 69.1231 89.9336 68.5958C90.6851 68.2771 91.1158 67.2537 90.7189 66.595C90.155 65.6592 88.2923 64.7529 87.3596 64.1819L76.2019 57.2874C70.4378 53.6781 70.7303 53.1083 64.7562 56.8095L55.917 62.4019C51.4723 65.1715 52.3496 65.1163 48.0159 62.4255L38.5986 56.5996C37.165 55.7317 35.3665 54.1633 33.6034 54.3037ZM18.7102 68.5074C18.0765 68.8552 16.4821 69.861 15.9399 70.3106V77.8737L16.5218 77.3417C16.8636 77.2286 17.0085 77.1636 17.3309 77.0043C17.8236 77.3618 18.1689 77.5916 18.7102 77.8737C18.7101 76.9511 18.7539 68.6141 18.7102 68.5074ZM85.4654 68.6835V77.8737C85.9336 77.5926 86.1329 77.4425 86.6757 77.3417C87.091 77.4969 87.3378 77.6501 87.7244 77.8737C88.4465 78.3352 88.0959 76.1063 88.0959 75.4179L88.0941 70.3106C87.3031 69.7999 86.2812 69.1103 85.4654 68.6835ZM50.6332 69.1556C50.6334 71.8527 50.7095 74.9542 50.6332 77.6111C51.7235 77.044 51.857 76.5916 52.9916 77.3417L53.3205 77.6111L53.3221 71.9096C53.3238 71.0841 53.3831 69.9269 53.3205 69.1556C52.3922 69.3146 51.5692 69.3228 50.6332 69.1556Z" fill="url(#paint15_linear_54_2383)"/>
<path d="M11.7045 80.2492C12.084 79.9441 13.1904 79.3201 13.6558 79.0881C14.0728 79.1188 14.3167 79.5159 14.7324 79.6388C15.1785 80.3987 13.3238 80.8509 13.3159 81.1009C13.2577 82.9469 13.3717 84.7807 13.2933 86.6442L13.3409 86.7199V88.6464C12.855 89.481 11.8182 89.4851 11.7314 88.5089C11.6555 87.6566 11.701 86.6168 11.7019 85.7466L11.7045 80.2492Z" fill="url(#paint16_linear_54_2383)"/>
<path d="M21.1648 87.4153C21.7185 89.682 21.5089 87.4921 22.1122 86.5354C22.4014 86.3609 22.0732 86.5372 22.4624 86.6221C22.7157 85.989 22.5483 87.6064 22.6931 87.7852C22.712 87.3891 22.6176 85.8996 22.7908 85.6743C22.7947 86.8344 23.2895 90.2357 21.332 88.9509C21.1132 88.8073 21.1597 87.6867 21.1648 87.4153Z" fill="url(#paint17_linear_54_2383)"/>
<defs>
<linearGradient id="paint0_linear_54_2383" x1="51.1066" y1="17.547" x2="52.8552" y2="17.547" gradientUnits="userSpaceOnUse">
<stop stop-color="#C427E0"/>
<stop offset="0.471154" stop-color="#844AFF"/>
<stop offset="1" stop-color="#12A9FF"/>
</linearGradient>
<linearGradient id="paint1_linear_54_2383" x1="39.9398" y1="19.2315" x2="43.6747" y2="19.2315" gradientUnits="userSpaceOnUse">
<stop stop-color="#C427E0"/>
<stop offset="0.471154" stop-color="#844AFF"/>
<stop offset="1" stop-color="#12A9FF"/>
</linearGradient>
<linearGradient id="paint2_linear_54_2383" x1="60.5637" y1="19.2344" x2="64.1726" y2="19.2344" gradientUnits="userSpaceOnUse">
<stop stop-color="#C427E0"/>
<stop offset="0.471154" stop-color="#844AFF"/>
<stop offset="1" stop-color="#12A9FF"/>
</linearGradient>
<linearGradient id="paint3_linear_54_2383" x1="36.9205" y1="32.8406" x2="67.1406" y2="32.8406" gradientUnits="userSpaceOnUse">
<stop stop-color="#C427E0"/>
<stop offset="0.471154" stop-color="#844AFF"/>
<stop offset="1" stop-color="#12A9FF"/>
</linearGradient>
<linearGradient id="paint4_linear_54_2383" x1="33.1743" y1="27.6641" x2="38.4028" y2="27.6641" gradientUnits="userSpaceOnUse">
<stop stop-color="#C427E0"/>
<stop offset="0.471154" stop-color="#844AFF"/>
<stop offset="1" stop-color="#12A9FF"/>
</linearGradient>
<linearGradient id="paint5_linear_54_2383" x1="65.9058" y1="27.6565" x2="70.5537" y2="27.6565" gradientUnits="userSpaceOnUse">
<stop stop-color="#C427E0"/>
<stop offset="0.471154" stop-color="#844AFF"/>
<stop offset="1" stop-color="#12A9FF"/>
</linearGradient>
<linearGradient id="paint6_linear_54_2383" x1="25.804" y1="34.8136" x2="33.9588" y2="34.8136" gradientUnits="userSpaceOnUse">
<stop stop-color="#C427E0"/>
<stop offset="0.471154" stop-color="#844AFF"/>
<stop offset="1" stop-color="#12A9FF"/>
</linearGradient>
<linearGradient id="paint7_linear_54_2383" x1="70.4015" y1="34.8002" x2="78.6177" y2="34.8002" gradientUnits="userSpaceOnUse">
<stop stop-color="#C427E0"/>
<stop offset="0.471154" stop-color="#844AFF"/>
<stop offset="1" stop-color="#12A9FF"/>
</linearGradient>
<linearGradient id="paint8_linear_54_2383" x1="80.4619" y1="46.4497" x2="92.2653" y2="46.4497" gradientUnits="userSpaceOnUse">
<stop stop-color="#C427E0"/>
<stop offset="0.471154" stop-color="#844AFF"/>
<stop offset="1" stop-color="#12A9FF"/>
</linearGradient>
<linearGradient id="paint9_linear_54_2383" x1="11.6178" y1="46.4561" x2="23.5116" y2="46.4561" gradientUnits="userSpaceOnUse">
<stop stop-color="#C427E0"/>
<stop offset="0.471154" stop-color="#844AFF"/>
<stop offset="1" stop-color="#12A9FF"/>
</linearGradient>
<linearGradient id="paint10_linear_54_2383" x1="68.3035" y1="42.3381" x2="71.2174" y2="42.3381" gradientUnits="userSpaceOnUse">
<stop stop-color="#C427E0"/>
<stop offset="0.471154" stop-color="#844AFF"/>
<stop offset="1" stop-color="#12A9FF"/>
</linearGradient>
<linearGradient id="paint11_linear_54_2383" x1="32.9139" y1="42.4579" x2="35.8186" y2="42.4579" gradientUnits="userSpaceOnUse">
<stop stop-color="#C427E0"/>
<stop offset="0.471154" stop-color="#844AFF"/>
<stop offset="1" stop-color="#12A9FF"/>
</linearGradient>
<linearGradient id="paint12_linear_54_2383" x1="51.192" y1="50.9376" x2="52.8401" y2="50.9376" gradientUnits="userSpaceOnUse">
<stop stop-color="#C427E0"/>
<stop offset="0.471154" stop-color="#844AFF"/>
<stop offset="1" stop-color="#12A9FF"/>
</linearGradient>
<linearGradient id="paint13_linear_54_2383" x1="40.2273" y1="48.7013" x2="43.7095" y2="48.7013" gradientUnits="userSpaceOnUse">
<stop stop-color="#C427E0"/>
<stop offset="0.471154" stop-color="#844AFF"/>
<stop offset="1" stop-color="#12A9FF"/>
</linearGradient>
<linearGradient id="paint14_linear_54_2383" x1="60.2345" y1="48.7018" x2="63.8681" y2="48.7018" gradientUnits="userSpaceOnUse">
<stop stop-color="#C427E0"/>
<stop offset="0.471154" stop-color="#844AFF"/>
<stop offset="1" stop-color="#12A9FF"/>
</linearGradient>
<linearGradient id="paint15_linear_54_2383" x1="11.4576" y1="70.9707" x2="92.4476" y2="70.9707" gradientUnits="userSpaceOnUse">
<stop stop-color="#C427E0"/>
<stop offset="0.471154" stop-color="#844AFF"/>
<stop offset="1" stop-color="#12A9FF"/>
</linearGradient>
<linearGradient id="paint16_linear_54_2383" x1="11.6876" y1="84.1729" x2="14.8017" y2="84.1729" gradientUnits="userSpaceOnUse">
<stop stop-color="#C427E0"/>
<stop offset="0.471154" stop-color="#844AFF"/>
<stop offset="1" stop-color="#12A9FF"/>
</linearGradient>
<linearGradient id="paint17_linear_54_2383" x1="21.1573" y1="87.4554" x2="22.8494" y2="87.4554" gradientUnits="userSpaceOnUse">
<stop stop-color="#C427E0"/>
<stop offset="0.471154" stop-color="#844AFF"/>
<stop offset="1" stop-color="#12A9FF"/>
</linearGradient>
</defs>
</svg>
