<svg width="104" height="104" viewBox="0 0 104 104" fill="none" xmlns="http://www.w3.org/2000/svg">
<path d="M13.7723 33.1376C13.7318 32.1116 13.7707 30.8073 13.7716 29.7639L13.7673 23.4396C13.7654 21.3791 14.1347 20.0591 15.5831 18.5301C17.8096 16.1798 20.5012 16.6062 23.4345 16.6089L57.9782 16.6079C57.8329 16.6992 57.7819 16.6684 57.5835 16.6779C57.6952 16.697 60.1857 16.6962 60.5329 16.7032C59.2964 17.196 52.1178 16.361 51.1525 16.9709C50.4455 17.3574 49.2383 16.9226 48.9781 17.5822C48.4981 17.6253 46.0186 17.6295 45.9322 17.6625L45.9357 17.7655C46.3389 17.8561 49.8564 17.9458 50.5405 17.9397L50.5992 17.9389L50.6405 17.982C49.4057 18.1086 47.7912 17.9154 46.6726 18.0143C45.2126 18.0404 41.8685 17.8817 40.7205 18.0792L22.0049 18.0764C16.1574 18.0609 15.1458 20.0752 15.1946 25.6386C15.2001 26.2705 14.949 29.5047 15.4363 29.5926C15.0039 29.679 14.5872 29.6255 14.473 29.1602L14.3766 29.0992C14.196 29.1888 14.1359 29.2215 13.9722 29.3371C13.956 28.9146 13.56 27.6546 13.848 27.3071L13.832 27.2266C13.7459 28.4828 13.9712 32.2708 13.7723 33.1376Z" fill="url(#paint0_linear_54_2308)"/>
<path d="M57.9782 16.6079L81.7227 16.605C89.2805 16.5987 90.3549 19.2126 90.3508 26.2813L90.3605 59.3433C90.3693 60.675 88.854 60.4288 88.8564 59.412L88.8635 31.0407H15.4363C16.1678 30.9322 15.322 30.7852 15.0961 31.1185C15.133 31.539 15.2081 31.8965 15.063 32.3202C14.8778 32.8609 15.195 33.5184 15.1987 34.0683C15.203 34.6994 15.0527 37.5921 15.1936 38.0426L15.1919 79.2055C15.215 84.3663 16.8626 85.6442 21.9834 85.6367L47.2221 85.6312C47.981 85.6312 49.0142 85.5966 49.7471 85.6322C49.6311 85.698 46.5508 85.6322 46.1445 85.6322L27.4166 85.7224C24.7652 85.7264 22.165 85.6895 19.5241 85.7272C18.9405 85.7465 18.1125 85.1028 17.9262 86.048C17.6697 87.3488 20.5386 87.0396 21.3734 87.0382L35.191 87.1593C35.8481 87.1538 36.5787 87.051 37.2287 87.1686C36.7961 87.2019 35.8792 87.1729 35.4152 87.1723L21.0961 87.1698C15.9195 87.1524 13.7585 84.7342 13.7669 79.6256L13.7723 33.1376C13.9712 32.2708 13.7459 28.4828 13.832 27.2266L13.848 27.3071C13.56 27.6546 13.956 28.9146 13.9722 29.3371C14.1359 29.2215 14.196 29.1888 14.3766 29.0992L14.473 29.1602C14.5872 29.6255 15.0039 29.679 15.4363 29.5926C19.4139 29.5431 23.5097 29.5926 27.4968 29.5926H76.4493C80.5573 29.5924 84.7647 29.5443 88.8635 29.5926L88.8653 25.5724C88.8655 24.491 88.9586 22.6474 88.6657 21.6628C87.4311 17.5119 83.0958 18.0795 79.7018 18.0798L40.7205 18.0792C41.8685 17.8817 45.2126 18.0404 46.6726 18.0143C47.7912 17.9154 49.4057 18.1086 50.6405 17.982L50.5992 17.9389L50.5405 17.9397C49.8564 17.9458 46.3389 17.8561 45.9357 17.7655L45.9322 17.6625C46.0186 17.6295 48.4981 17.6253 48.9781 17.5822C49.2383 16.9226 50.4455 17.3574 51.1525 16.9709C52.1178 16.361 59.2964 17.196 60.5329 16.7032C60.1857 16.6962 57.6952 16.697 57.5835 16.6779C57.7819 16.6684 57.8329 16.6992 57.9782 16.6079Z" fill="url(#paint1_linear_54_2308)"/>
<path d="M22.0181 26.3394C20.6121 26.4694 19.3697 25.4284 19.2516 24.0214C19.1335 22.6143 20.1849 21.3805 21.593 21.2743C22.9844 21.1693 24.2003 22.2056 24.3169 23.596C24.4337 24.9864 23.4075 26.211 22.0181 26.3394ZM21.622 22.8585C20.127 23.1875 20.3397 24.8741 22.0336 24.8282C23.3451 24.4067 23.0555 22.6503 21.622 22.8585Z" fill="url(#paint2_linear_54_2308)"/>
<path d="M30.4557 26.2529C29.109 26.5917 27.741 25.7814 27.391 24.4375C27.0408 23.0937 27.8395 21.7189 29.1805 21.3576C30.5374 20.9919 31.9323 21.8022 32.2865 23.1621C32.6408 24.522 31.8187 25.91 30.4557 26.2529ZM29.4574 22.8584C28.2683 23.3071 28.6327 25.1525 30.1911 24.8281C31.5222 24.1552 30.9191 22.7435 29.4574 22.8584Z" fill="url(#paint3_linear_54_2308)"/>
<path d="M38.911 26.195C33.5638 26.4014 34.5187 21.9568 37.0592 21.5296C42.7306 21.3531 41.0018 25.8495 38.911 26.195ZM37.8158 22.8584C35.8701 23.1213 36.076 24.753 38.0987 24.8281C39.3606 24.7445 40.4664 23.0906 37.8158 22.8584Z" fill="url(#paint4_linear_54_2308)"/>
<path d="M83.1667 24.5774L69.628 24.5725C68.4351 24.5625 68.327 23.4366 69.3855 23.1309C73.8242 23.0592 78.5877 23.0127 83.0349 23.1461C84.1005 23.1782 84.1677 24.3657 83.1667 24.5774Z" fill="url(#paint5_linear_54_2308)"/>
<path d="M15.4363 31.0407L15.2607 31.0578C15.1423 31.2252 15.2052 37.2943 15.1936 38.0427C15.0527 37.5921 15.203 34.6994 15.1987 34.0683C15.195 33.5184 14.8778 32.8609 15.063 32.3202C15.208 31.8965 15.1329 31.539 15.0961 31.1185C15.322 30.7852 16.1678 30.9323 15.4363 31.0407Z" fill="url(#paint6_linear_54_2308)"/>
<path d="M78.3624 45.5603C77.3242 45.7484 77.4595 44.6184 77.4219 43.9489C77.2677 40.5874 74.6168 37.8667 71.4011 37.154C70.5809 36.9722 69.3292 36.347 70.6264 35.6972C74.6822 35.3722 78.6549 40.0233 78.8287 43.9662C78.8602 44.6814 79.0579 45.1128 78.3624 45.5603Z" fill="url(#paint7_linear_54_2308)"/>
<path d="M67.7759 37.0685C67.0389 37.1249 63.2722 37.062 65.4452 35.6972C66.1409 35.6988 66.9565 35.6236 67.6313 35.6982C68.4568 35.7894 68.4762 36.6569 67.7759 37.0685Z" fill="url(#paint8_linear_54_2308)"/>
<path d="M38.5751 37.0685C35.8359 37.6185 35.7397 36.0315 36.7949 35.7585C37.2584 35.7506 38.8733 35.6062 39.1247 36.1928C39.272 36.5357 38.972 36.9466 38.5751 37.0685Z" fill="url(#paint9_linear_54_2308)"/>
<path d="M26.0256 45.3146C23.7606 46.3944 24.8211 37.6903 32.99 35.7585C33.3314 35.7561 33.7043 35.7403 33.9363 36.0153C34.8156 37.0587 32.6408 37.2881 32.1663 37.4353C29.1734 38.3527 26.8993 40.897 26.4843 44.0221C26.4203 44.5039 26.3758 44.9619 26.0256 45.3146Z" fill="url(#paint10_linear_54_2308)"/>
<path d="M45.3499 38.3833C44.8179 38.4475 44.1628 38.6589 43.7196 38.9675L43.7105 39.0481C43.9262 39.2151 44.4389 39.3041 44.9164 39.6008L44.9252 39.6872C42.975 39.1215 42.0552 40.3156 40.3711 41.4139L32.9028 46.3552C31.0369 47.6182 31.1364 47.9326 31.1354 50.1067L31.1423 52.9937C31.1435 53.378 31.1671 54.1186 31.1399 54.4734C31.0798 54.3575 30.9333 49.0295 31.1112 47.9641C31.1651 47.6419 32.4058 46.3121 32.2877 46.0245C31.9402 46.07 31.9371 45.8593 31.7584 45.5626C31.566 45.7029 31.3647 45.8126 31.1399 45.8898C31.4496 45.5309 32.2776 45.0428 32.6974 44.7622L39.7747 40.0587C41.6331 38.8145 43.0091 37.3364 45.3499 38.3833Z" fill="url(#paint11_linear_54_2308)"/>
<path d="M44.9252 39.6871L44.9164 39.6008C44.4389 39.304 43.9262 39.2151 43.7105 39.0481L43.7196 38.9675C44.1628 38.6589 44.8179 38.4475 45.3499 38.3833C46.6881 39.1009 48.5991 41.3637 49.7825 42.45C51.651 44.165 51.8154 44.8386 53.8726 42.8543L56.1911 40.5785C59.5693 37.2196 60.0421 37.3256 63.8101 39.8846L68.2171 42.8535C70.3875 44.3151 74.2335 46.0569 74.4142 48.7402C74.5231 50.3571 74.4482 52.0211 74.4484 53.6447C74.4492 59.853 74.3588 58.5418 69.8772 63.0232L56.8334 76.0906C52.8885 80.0676 52.1239 81.305 47.984 77.1535L30.7712 59.9036C29.5289 58.672 29.6762 56.8998 29.6764 55.2758L29.6786 52.1151C29.6804 50.3746 29.2821 46.8522 31.1399 45.8898C31.3647 45.8126 31.566 45.7029 31.7584 45.5625C31.9371 45.8593 31.9402 46.0699 32.2877 46.0244C32.4058 46.3121 31.1651 47.6419 31.1112 47.9641C30.9333 49.0295 31.0798 54.3574 31.1399 54.4734C31.1793 55.4368 30.9433 57.8118 31.4872 58.4543C32.7886 59.9915 34.5337 61.534 35.9493 62.9864L48.5333 75.6155C52.4552 79.5486 52.0932 78.8194 55.4302 75.4506L70.9032 59.9881C72.9589 57.9631 72.9495 58.3192 72.9438 55.4551L72.9363 52.4564C72.9316 49.9825 73.593 48.1926 71.4033 46.7346L61.2373 39.8736C59.6791 38.8269 58.7974 40.0105 57.7736 41.0304L55.5925 43.2049C51.3011 47.5645 50.7697 44.9946 47.1723 41.9292C46.6976 41.5246 45.2175 40.0997 44.9252 39.6871Z" fill="url(#paint12_linear_54_2308)"/>
<path d="M51.2968 50.2882C49.709 49.1038 49.9883 47.204 51.8881 47.1674C53.155 46.6949 55.0676 48.6466 52.7615 50.2882C52.7461 50.5405 52.7552 50.767 52.7615 51.0187C53.7306 51.4913 58.4163 54.1998 58.8053 54.8147C59.0332 55.1748 58.9414 62.0967 58.8459 62.4178C58.6893 62.9433 53.5742 65.9414 52.7615 66.3329C52.7524 66.8196 52.752 67.2711 52.7615 67.7578C54.068 68.5085 54.3997 70.1855 53.1477 70.9515C51.0624 72.2271 48.8894 69.2268 51.2968 67.7578C51.2883 67.2898 51.296 66.8027 51.2968 66.3329C50.5156 65.9 45.6231 63.0764 45.2693 62.6C44.9339 62.1483 45.0865 60.1116 45.1003 59.4611H42.6299C40.8078 62.4345 37.3224 58.5272 39.9771 57.0586C41.094 56.4407 42.0922 57.0131 42.6299 58.0425H45.1003C45.0986 57.187 45.0255 55.6119 45.2217 54.8508C45.86 54.0495 50.1855 51.6226 51.2968 51.0187V50.2882ZM51.907 48.3002C51.754 48.3545 51.6423 48.4871 51.6151 48.6472C51.5881 48.8072 51.6498 48.9693 51.7766 49.0707C51.9033 49.1723 52.075 49.197 52.2253 49.1355C52.4497 49.0437 52.56 48.7894 52.4737 48.5627C52.3872 48.3358 52.1357 48.2194 51.907 48.3002ZM51.8881 52.2002C50.2647 53.3954 48.2247 54.2654 46.4951 55.5603V61.8586C48.3915 62.7036 50.2611 64.2628 52.0711 65.25C53.6577 64.1182 55.7881 62.8757 57.4937 61.8586V55.5603C57.0129 55.1846 52.3352 52.3065 51.8881 52.2002ZM40.7284 58.2708C40.5121 58.3547 40.3971 58.5912 40.4648 58.8132C40.5324 59.035 40.7597 59.1672 40.986 59.1164C41.1483 59.0799 41.2764 58.9558 41.3179 58.7947C41.3595 58.6338 41.3075 58.4632 41.1832 58.3527C41.0589 58.2422 40.8834 58.2105 40.7284 58.2708ZM51.8881 68.9416C51.4469 69.4076 51.6033 69.979 52.2543 69.9095C52.7983 69.3903 52.5149 68.9802 51.8881 68.9416Z" fill="url(#paint13_linear_54_2308)"/>
<path d="M26.2066 50.7961C24.8595 50.6204 25.0658 47.7052 25.859 47.1675C27.2513 47.1431 26.8253 50.2518 26.2066 50.7961Z" fill="url(#paint14_linear_54_2308)"/>
<path d="M78.1785 51.9461C77.0266 51.6666 77.2238 49.9238 77.4806 49.0603C77.6786 48.8105 77.8681 48.7796 78.1785 48.7057C79.1362 48.7648 79.2126 51.55 78.1785 51.9461Z" fill="url(#paint15_linear_54_2308)"/>
<path d="M58.9073 51.1891C58.4659 49.865 58.787 49.1359 60.1459 48.7057C62.6295 48.4855 62.8997 52.0061 60.1459 51.9462C59.8112 52.209 59.3631 52.6697 59.047 52.9764C58.1992 53.7948 56.5076 53.2854 58.9073 51.1891ZM60.2861 49.998C59.9064 50.3787 59.9154 50.7587 60.5065 50.7961C60.929 50.4591 60.8648 49.9517 60.2861 49.998Z" fill="url(#paint16_linear_54_2308)"/>
<path d="M43.8809 52.2002C41.0585 52.3455 40.835 49.3287 43.1901 48.7057C44.6414 48.7406 45.0844 49.9864 44.9252 51.1891C45.4604 51.6502 46.9826 52.6926 45.8616 53.325C45.5776 53.4852 45.3716 53.4361 45.1003 53.2841C44.7377 52.9524 44.2837 52.4101 43.8809 52.2002ZM43.1679 50.0494C42.9423 50.0995 42.7986 50.322 42.846 50.5484C42.8931 50.7747 43.1133 50.9214 43.3404 50.8773C43.4901 50.8483 43.6126 50.7408 43.6609 50.5964C43.7093 50.4518 43.6759 50.2923 43.574 50.1792C43.472 50.0658 43.3168 50.0163 43.1679 50.0494Z" fill="url(#paint17_linear_54_2308)"/>
<path d="M26.2066 56.0068C24.8554 56.1675 24.9805 53.173 25.859 52.756C27.1814 52.8303 26.9063 55.5819 26.2066 56.0068Z" fill="url(#paint18_linear_54_2308)"/>
<path d="M61.7644 58.0425C62.0819 57.2125 62.309 57.0484 63.1583 56.7791C66.8135 56.5597 64.9659 62.3132 62.1733 59.9531C62.0202 59.7898 61.9022 59.636 61.7644 59.4611C61.36 59.4297 60.7882 59.4144 60.3598 59.429C59.3013 59.4652 58.446 57.63 61.7644 58.0425ZM63.3785 58.1908C63.2064 58.2056 63.0563 58.3139 62.9878 58.4723C62.9192 58.6308 62.943 58.8142 63.05 58.9499C63.1568 59.0856 63.3295 59.1518 63.4997 59.1221C63.7477 59.0791 63.9178 58.8481 63.8853 58.5983C63.8528 58.3486 63.6293 58.1689 63.3785 58.1908Z" fill="url(#paint19_linear_54_2308)"/>
<path d="M80.0125 68.3416C79.5744 68.3753 79.0963 68.0481 79.0924 67.5778C79.0796 66.0491 78.5547 61.1552 79.6839 60.4285C80.0302 60.4173 80.3566 60.5004 80.5437 60.8223C80.6191 60.9519 80.6751 67.5068 80.5817 67.846C80.5145 68.0897 80.2153 68.2278 80.0125 68.3416Z" fill="url(#paint20_linear_54_2308)"/>
<path d="M89.7006 65.25C88.6411 65.2592 88.2765 62.4723 89.7006 62.0569C90.6189 62.1095 90.8324 64.7262 89.7006 65.25Z" fill="url(#paint21_linear_54_2308)"/>
<path d="M44.056 64.7262C44.4961 64.3242 44.6861 64.1255 45.2217 63.8757C45.4915 63.8347 45.7242 63.8909 45.9245 64.0802C46.7153 64.8277 45.6143 65.3957 45.1002 65.8383C45.4915 67.4596 44.0915 68.3353 42.6298 67.9203C41.1692 67.0656 41.3353 64.6648 43.1901 64.5692C43.5429 64.5781 43.731 64.5889 44.056 64.7262ZM43.2301 65.9072C43.1098 65.9811 43.0385 66.1141 43.0436 66.2555C43.0487 66.3967 43.1293 66.5242 43.2546 66.5895C43.38 66.6547 43.5307 66.6475 43.6493 66.5708C43.8297 66.4538 43.8825 66.2135 43.7677 66.0317C43.6528 65.8499 43.4131 65.7944 43.2301 65.9072Z" fill="url(#paint22_linear_54_2308)"/>
<path d="M58.7135 65.8383C57.5356 65.1447 57.2358 64.3965 58.7135 63.8757C58.9217 63.9631 59.2999 64.3718 59.5823 64.5692C62.266 64.1365 63.1408 66.503 61.1512 67.9204C59.7389 68.4408 58.3968 67.3983 58.7135 65.8383ZM60.2999 65.7786C60.0677 65.8361 59.9255 66.0707 59.9822 66.3031C60.0387 66.5357 60.2729 66.6787 60.5055 66.6228C60.7395 66.5667 60.8833 66.3313 60.8264 66.0975C60.7695 65.8639 60.5335 65.7209 60.2999 65.7786Z" fill="url(#paint23_linear_54_2308)"/>
<path d="M49.7471 85.6322L81.2128 85.6334C83.3564 85.6336 85.7466 85.9812 87.3431 84.3058C89.3681 82.1809 88.8653 79.8785 88.8645 77.143L88.8635 68.3333C88.8643 66.376 90.3538 66.9138 90.3587 67.6983L90.3475 79.2982C90.3467 83.0349 89.2864 86.6446 84.8203 87.1479C84.179 87.2203 83.3771 87.1758 82.7127 87.1733L40.6278 87.1699C39.5641 87.1715 38.2775 87.2085 37.2287 87.1687C36.5787 87.051 35.8481 87.1538 35.191 87.1593L21.3734 87.0383C20.5386 87.0397 17.6697 87.3488 17.9262 86.048C18.1125 85.1029 18.9405 85.7466 19.5241 85.7273C22.165 85.6895 24.7652 85.7265 27.4166 85.7224L46.1445 85.6322C46.5508 85.6322 49.6311 85.698 49.7471 85.6322Z" fill="url(#paint24_linear_54_2308)"/>
<path d="M79.9037 73.7553C78.7761 73.3984 79.054 72.2308 79.0997 71.1653C79.1286 70.4923 79.2771 70.3144 79.9037 70.1344C80.9669 70.3245 81.0061 73.4102 79.9037 73.7553Z" fill="url(#paint25_linear_54_2308)"/>
<defs>
<linearGradient id="paint0_linear_54_2308" x1="13.7433" y1="24.8573" x2="60.5329" y2="24.8573" gradientUnits="userSpaceOnUse">
<stop stop-color="#C427E0"/>
<stop offset="0.471154" stop-color="#844AFF"/>
<stop offset="1" stop-color="#12A9FF"/>
</linearGradient>
<linearGradient id="paint1_linear_54_2308" x1="13.7433" y1="51.8948" x2="90.3606" y2="51.8948" gradientUnits="userSpaceOnUse">
<stop stop-color="#C427E0"/>
<stop offset="0.471154" stop-color="#844AFF"/>
<stop offset="1" stop-color="#12A9FF"/>
</linearGradient>
<linearGradient id="paint2_linear_54_2308" x1="19.2426" y1="23.8087" x2="24.326" y2="23.8087" gradientUnits="userSpaceOnUse">
<stop stop-color="#C427E0"/>
<stop offset="0.471154" stop-color="#844AFF"/>
<stop offset="1" stop-color="#12A9FF"/>
</linearGradient>
<linearGradient id="paint3_linear_54_2308" x1="27.3087" y1="23.7998" x2="32.3688" y2="23.7998" gradientUnits="userSpaceOnUse">
<stop stop-color="#C427E0"/>
<stop offset="0.471154" stop-color="#844AFF"/>
<stop offset="1" stop-color="#12A9FF"/>
</linearGradient>
<linearGradient id="paint4_linear_54_2308" x1="35.0175" y1="23.8632" x2="40.8961" y2="23.8632" gradientUnits="userSpaceOnUse">
<stop stop-color="#C427E0"/>
<stop offset="0.471154" stop-color="#844AFF"/>
<stop offset="1" stop-color="#12A9FF"/>
</linearGradient>
<linearGradient id="paint5_linear_54_2308" x1="68.6573" y1="23.8193" x2="83.8776" y2="23.8193" gradientUnits="userSpaceOnUse">
<stop stop-color="#C427E0"/>
<stop offset="0.471154" stop-color="#844AFF"/>
<stop offset="1" stop-color="#12A9FF"/>
</linearGradient>
<linearGradient id="paint6_linear_54_2308" x1="15.005" y1="34.4778" x2="15.7283" y2="34.4778" gradientUnits="userSpaceOnUse">
<stop stop-color="#C427E0"/>
<stop offset="0.471154" stop-color="#844AFF"/>
<stop offset="1" stop-color="#12A9FF"/>
</linearGradient>
<linearGradient id="paint7_linear_54_2308" x1="70.066" y1="40.6311" x2="78.8786" y2="40.6311" gradientUnits="userSpaceOnUse">
<stop stop-color="#C427E0"/>
<stop offset="0.471154" stop-color="#844AFF"/>
<stop offset="1" stop-color="#12A9FF"/>
</linearGradient>
<linearGradient id="paint8_linear_54_2308" x1="64.778" y1="36.3735" x2="68.2774" y2="36.3735" gradientUnits="userSpaceOnUse">
<stop stop-color="#C427E0"/>
<stop offset="0.471154" stop-color="#844AFF"/>
<stop offset="1" stop-color="#12A9FF"/>
</linearGradient>
<linearGradient id="paint9_linear_54_2308" x1="36.1721" y1="36.4603" x2="39.1628" y2="36.4603" gradientUnits="userSpaceOnUse">
<stop stop-color="#C427E0"/>
<stop offset="0.471154" stop-color="#844AFF"/>
<stop offset="1" stop-color="#12A9FF"/>
</linearGradient>
<linearGradient id="paint10_linear_54_2308" x1="24.9863" y1="40.5823" x2="34.1435" y2="40.5823" gradientUnits="userSpaceOnUse">
<stop stop-color="#C427E0"/>
<stop offset="0.471154" stop-color="#844AFF"/>
<stop offset="1" stop-color="#12A9FF"/>
</linearGradient>
<linearGradient id="paint11_linear_54_2308" x1="31.026" y1="46.2506" x2="45.3499" y2="46.2506" gradientUnits="userSpaceOnUse">
<stop stop-color="#C427E0"/>
<stop offset="0.471154" stop-color="#844AFF"/>
<stop offset="1" stop-color="#12A9FF"/>
</linearGradient>
<linearGradient id="paint12_linear_54_2308" x1="29.6439" y1="58.8686" x2="74.4733" y2="58.8686" gradientUnits="userSpaceOnUse">
<stop stop-color="#C427E0"/>
<stop offset="0.471154" stop-color="#844AFF"/>
<stop offset="1" stop-color="#12A9FF"/>
</linearGradient>
<linearGradient id="paint13_linear_54_2308" x1="39.0145" y1="59.1777" x2="58.9476" y2="59.1777" gradientUnits="userSpaceOnUse">
<stop stop-color="#C427E0"/>
<stop offset="0.471154" stop-color="#844AFF"/>
<stop offset="1" stop-color="#12A9FF"/>
</linearGradient>
<linearGradient id="paint14_linear_54_2308" x1="25.2293" y1="48.9817" x2="26.7872" y2="48.9817" gradientUnits="userSpaceOnUse">
<stop stop-color="#C427E0"/>
<stop offset="0.471154" stop-color="#844AFF"/>
<stop offset="1" stop-color="#12A9FF"/>
</linearGradient>
<linearGradient id="paint15_linear_54_2308" x1="77.2836" y1="50.3259" x2="78.9257" y2="50.3259" gradientUnits="userSpaceOnUse">
<stop stop-color="#C427E0"/>
<stop offset="0.471154" stop-color="#844AFF"/>
<stop offset="1" stop-color="#12A9FF"/>
</linearGradient>
<linearGradient id="paint16_linear_54_2308" x1="57.6732" y1="51.0216" x2="62.1112" y2="51.0216" gradientUnits="userSpaceOnUse">
<stop stop-color="#C427E0"/>
<stop offset="0.471154" stop-color="#844AFF"/>
<stop offset="1" stop-color="#12A9FF"/>
</linearGradient>
<linearGradient id="paint17_linear_54_2308" x1="41.5788" y1="51.0648" x2="46.2638" y2="51.0648" gradientUnits="userSpaceOnUse">
<stop stop-color="#C427E0"/>
<stop offset="0.471154" stop-color="#844AFF"/>
<stop offset="1" stop-color="#12A9FF"/>
</linearGradient>
<linearGradient id="paint18_linear_54_2308" x1="25.1946" y1="54.3845" x2="26.7913" y2="54.3845" gradientUnits="userSpaceOnUse">
<stop stop-color="#C427E0"/>
<stop offset="0.471154" stop-color="#844AFF"/>
<stop offset="1" stop-color="#12A9FF"/>
</linearGradient>
<linearGradient id="paint19_linear_54_2308" x1="59.4142" y1="58.6477" x2="65.195" y2="58.6477" gradientUnits="userSpaceOnUse">
<stop stop-color="#C427E0"/>
<stop offset="0.471154" stop-color="#844AFF"/>
<stop offset="1" stop-color="#12A9FF"/>
</linearGradient>
<linearGradient id="paint20_linear_54_2308" x1="78.9595" y1="64.3857" x2="80.6306" y2="64.3857" gradientUnits="userSpaceOnUse">
<stop stop-color="#C427E0"/>
<stop offset="0.471154" stop-color="#844AFF"/>
<stop offset="1" stop-color="#12A9FF"/>
</linearGradient>
<linearGradient id="paint21_linear_54_2308" x1="88.7643" y1="63.6535" x2="90.4715" y2="63.6535" gradientUnits="userSpaceOnUse">
<stop stop-color="#C427E0"/>
<stop offset="0.471154" stop-color="#844AFF"/>
<stop offset="1" stop-color="#12A9FF"/>
</linearGradient>
<linearGradient id="paint22_linear_54_2308" x1="41.6517" y1="65.9429" x2="46.2016" y2="65.9429" gradientUnits="userSpaceOnUse">
<stop stop-color="#C427E0"/>
<stop offset="0.471154" stop-color="#844AFF"/>
<stop offset="1" stop-color="#12A9FF"/>
</linearGradient>
<linearGradient id="paint23_linear_54_2308" x1="57.7145" y1="65.9657" x2="62.2368" y2="65.9657" gradientUnits="userSpaceOnUse">
<stop stop-color="#C427E0"/>
<stop offset="0.471154" stop-color="#844AFF"/>
<stop offset="1" stop-color="#12A9FF"/>
</linearGradient>
<linearGradient id="paint24_linear_54_2308" x1="17.91" y1="77.0882" x2="90.3587" y2="77.0882" gradientUnits="userSpaceOnUse">
<stop stop-color="#C427E0"/>
<stop offset="0.471154" stop-color="#844AFF"/>
<stop offset="1" stop-color="#12A9FF"/>
</linearGradient>
<linearGradient id="paint25_linear_54_2308" x1="79.0365" y1="71.9449" x2="80.7158" y2="71.9449" gradientUnits="userSpaceOnUse">
<stop stop-color="#C427E0"/>
<stop offset="0.471154" stop-color="#844AFF"/>
<stop offset="1" stop-color="#12A9FF"/>
</linearGradient>
</defs>
</svg>
