<svg width="104" height="104" viewBox="0 0 104 104" fill="none" xmlns="http://www.w3.org/2000/svg">
<path d="M78.0423 18.9138C78.0378 18.1847 77.8304 16.5975 78.3057 16.1103C78.8633 15.539 79.6386 15.9144 79.9904 16.5162C80.0268 17.8293 80.0934 19.8675 79.9904 21.163L79.9947 24.4679C79.9933 27.0754 80.3555 27.2233 77.6186 27.2158L70.1817 27.2064C69.7154 27.2032 69.0428 27.234 68.611 27.2113C67.7934 26.6119 67.6949 25.4215 68.8592 25.3127C69.5856 25.2446 70.4757 25.2918 71.2167 25.292L76.1951 25.2946C75.1526 24.2079 73.9103 23.2796 72.6853 22.4145C60.0604 13.4961 42.8899 13.5951 30.5189 22.9747C30.3042 23.1374 29.443 23.8577 29.2581 23.9383L29.2214 23.9066L29.223 23.8569C30.2149 22.9026 31.7342 22.0562 32.7608 21.2124C33.4785 20.6227 39.6738 17.8279 39.7097 17.4365C39.5225 17.3155 39.3679 17.324 39.1678 17.3986C38.8379 17.1607 38.7321 16.574 38.2584 16.6061C36.0123 16.8635 29.2082 21.4121 27.6502 22.9388L27.5393 22.9278C28.2706 22.0925 29.6016 21.1805 30.5062 20.5421C43.326 11.4962 60.5821 11.6272 73.472 20.4921C75.0809 21.5987 76.5467 22.8863 78.0423 24.1589C78.0258 22.435 78.0236 20.6367 78.0423 18.9138Z" fill="url(#paint0_linear_54_2342)"/>
<path d="M29.2581 23.9382C28.9614 24.2576 28.4479 24.653 28.1066 24.9547C22.9097 29.5479 18.8965 35.8554 17.1394 42.5819C16.993 43.7492 16.0479 44.7961 15.0968 43.5715C14.7991 42.7817 15.7506 40.2019 15.9793 39.5579C17.9136 34.1109 21.0627 28.9902 25.2202 24.9614C25.8213 24.379 26.8312 23.2848 27.5393 22.9277L27.6502 22.9387C29.2082 21.412 36.0123 16.8634 38.2584 16.606C38.7321 16.5739 38.8379 17.1606 39.1678 17.3985C39.3679 17.3239 39.5225 17.3155 39.7097 17.4364C39.6738 17.8278 33.4785 20.6226 32.7608 21.2123C31.7342 22.0561 30.2149 22.9025 29.223 23.8568L29.2214 23.9066L29.2581 23.9382Z" fill="url(#paint1_linear_54_2342)"/>
<path d="M88.3968 24.6439C87.4884 24.7073 84.5886 24.9338 84.7308 23.6045C84.7907 23.0435 85.0273 22.7579 85.566 22.6651C86.4925 22.6657 88.0998 22.4327 88.8987 22.9277C89.335 23.6726 89.2316 24.294 88.3968 24.6439Z" fill="url(#paint2_linear_54_2342)"/>
<path d="M45.0791 87.4841C74.6431 92.6321 97.6139 62.8188 84.5857 35.9937C84.2251 35.1134 83.343 33.9558 83.096 33.0843C82.8382 32.1758 84.3259 31.5351 84.9599 32.606C100.587 59.0047 79.1883 93.5159 47.8357 89.9356C47.9805 89.8363 59.4776 90.5078 62.4441 88.314C62.6216 88.1828 62.4902 87.1857 62.5241 86.8373C62.2401 86.6667 60.5753 87.2332 60.1729 87.3258C56.0753 88.2698 51.7325 88.5785 47.5633 87.9813C47.0265 87.9041 45.4246 87.8493 45.0791 87.4841Z" fill="url(#paint3_linear_54_2342)"/>
<path d="M72.4892 66.0799C72.1457 67.4686 71.0476 67.0996 69.8961 67.0888L66.8094 67.0807C63.2411 67.0738 60.0683 66.1087 57.5061 63.4921C53.5076 59.409 53.9266 55.3124 53.9325 50.1468C53.9403 43.274 58.1047 36.7872 65.482 36.8287C66.1487 36.7525 71.6375 36.7811 72.0297 36.914C73.5668 37.4342 71.0044 39.6035 70.6205 39.9795L61.7725 48.8449C61.448 49.1937 60.8575 49.2567 60.4742 48.9629C59.2804 48.0487 61.841 46.0802 62.6037 45.3124L66.2317 41.6498C67.0973 40.789 68.2742 39.6736 69.0491 38.7691C62.7729 38.2792 57.3826 40.1971 56.0812 47.2136C55.7202 49.1602 55.786 55.9882 56.278 57.6408C57.8981 63.084 62.2865 65.2584 67.6467 65.0943C67.9071 65.0864 68.8399 65.2192 68.9611 64.9869L68.8344 64.8059C68.1005 64.0058 67.1738 63.1354 66.3977 62.3566L62.5976 58.5116C61.9499 57.8641 60.6162 56.6906 60.153 56.0008C59.79 55.4601 60.7063 53.9145 61.8885 55.0831C63.6216 56.7963 65.3041 58.5649 67.0227 60.2912L70.4789 63.7529C71.0178 64.2993 72.2599 65.4321 72.4892 66.0799Z" fill="url(#paint4_linear_54_2342)"/>
<path d="M34.888 38.769C35.2394 39.2336 35.823 39.779 36.2497 40.1992L38.5452 42.4236C40.2472 44.0535 41.8523 45.8112 43.5825 47.4165C44.6766 48.4317 43.6999 49.65 42.6025 49.1881C42.4666 49.1308 41.3792 48.0394 41.2027 47.865L33.5291 40.3412C32.951 39.7686 32.3278 39.212 31.7714 38.65C30.7269 37.5952 31.8667 36.8804 32.9859 36.8286L36.815 36.8271C38.923 36.8278 40.817 36.8991 42.7966 37.7138C46.5719 39.2671 49.3889 43.1575 49.9785 47.181C50.4136 50.1485 50.138 57.2101 49.0726 59.7151C47.4374 63.5596 43.8275 66.4948 39.6523 67.0087C38.8207 67.1111 32.6107 67.1923 32.1874 66.9863C30.4158 66.1241 32.7155 64.4479 33.3706 63.7944L38.528 58.7393C39.5779 57.711 43.3471 52.7286 44.1019 55.6459C43.7367 56.7992 39.0151 60.973 37.8178 62.2399C36.8526 63.222 35.8924 64.1657 34.888 65.1044C38.5964 65.3345 42.2236 65.0609 44.9947 62.3047C47.8282 59.4864 48.0131 56.8313 48.0094 53.118L48.0224 49.1509C48.0458 45.3637 46.4328 42.0513 43.1237 40.0763C40.4845 38.5009 37.8304 38.7812 34.888 38.769Z" fill="url(#paint5_linear_54_2342)"/>
<path d="M14.2056 47.5447C14.4828 47.2778 14.5219 47.2532 14.8515 47.0761C15.2326 47.0521 15.6455 47.1455 15.8685 47.4874C16.1382 47.9005 16.3402 51.3815 15.1169 52.0447C13.2716 52.1926 13.8834 48.5483 14.2056 47.5447Z" fill="url(#paint6_linear_54_2342)"/>
<path d="M19.3731 70.0735C17.1723 70.2228 13.8021 58.0906 14.3774 56.95C14.5277 56.6518 14.8146 56.522 15.1169 56.4268C16.0985 56.5381 16.1977 57.1204 16.3282 57.9384C16.9437 61.8053 18.3364 65.4882 20.1727 68.9309C20.433 69.4188 19.8013 69.9348 19.3731 70.0735Z" fill="url(#paint7_linear_54_2342)"/>
<path d="M27.2387 78.3223C31.1102 82.2481 37.6374 85.6316 42.8882 86.9535C43.6093 87.1349 44.368 87.2797 45.0791 87.4841C45.4246 87.8493 47.0265 87.9041 47.5633 87.9813C51.7325 88.5785 56.0753 88.2697 60.1729 87.3258C60.5753 87.2332 62.2401 86.6667 62.5241 86.8373C62.4902 87.1857 62.6216 88.1828 62.4441 88.314C59.4776 90.5078 47.9806 89.8362 47.8357 89.9356C47.1733 89.94 44.6507 89.4647 43.9562 89.3106C37.0132 87.7707 31.281 84.556 26.0136 79.9201C26.013 80.8705 26.1156 87.2527 25.959 87.701C25.6496 88.587 24.3933 88.5133 24.0772 87.6486C23.9017 87.1684 23.9454 78.6774 23.9931 77.598C24.0746 75.7581 25.8369 76.2957 27.3794 76.2951L33.7592 76.2888C34.1855 76.287 34.8327 76.2494 35.2133 76.3173C36.337 76.5173 36.0984 78.3511 35.1077 78.34L27.2387 78.3223Z" fill="url(#paint8_linear_54_2342)"/>
<path d="M19.0553 80.703C18.3334 80.7733 16.7428 80.7546 16.0295 80.6754C14.9977 80.5606 14.7395 79.3259 15.8255 78.7027C16.7094 78.6974 18.1085 78.5974 18.9292 78.7335C19.9657 78.9052 20.1469 80.1416 19.0553 80.703Z" fill="url(#paint9_linear_54_2342)"/>
<defs>
<linearGradient id="paint0_linear_54_2342" x1="27.5393" y1="20.5101" x2="80.0454" y2="20.5101" gradientUnits="userSpaceOnUse">
<stop stop-color="#C427E0"/>
<stop offset="0.471154" stop-color="#844AFF"/>
<stop offset="1" stop-color="#12A9FF"/>
</linearGradient>
<linearGradient id="paint1_linear_54_2342" x1="15.0397" y1="30.3623" x2="39.7097" y2="30.3623" gradientUnits="userSpaceOnUse">
<stop stop-color="#C427E0"/>
<stop offset="0.471154" stop-color="#844AFF"/>
<stop offset="1" stop-color="#12A9FF"/>
</linearGradient>
<linearGradient id="paint2_linear_54_2342" x1="84.7257" y1="23.6548" x2="89.1518" y2="23.6548" gradientUnits="userSpaceOnUse">
<stop stop-color="#C427E0"/>
<stop offset="0.471154" stop-color="#844AFF"/>
<stop offset="1" stop-color="#12A9FF"/>
</linearGradient>
<linearGradient id="paint3_linear_54_2342" x1="45.0791" y1="61.1201" x2="90.1958" y2="61.1201" gradientUnits="userSpaceOnUse">
<stop stop-color="#C427E0"/>
<stop offset="0.471154" stop-color="#844AFF"/>
<stop offset="1" stop-color="#12A9FF"/>
</linearGradient>
<linearGradient id="paint4_linear_54_2342" x1="53.9174" y1="51.9641" x2="72.5162" y2="51.9641" gradientUnits="userSpaceOnUse">
<stop stop-color="#C427E0"/>
<stop offset="0.471154" stop-color="#844AFF"/>
<stop offset="1" stop-color="#12A9FF"/>
</linearGradient>
<linearGradient id="paint5_linear_54_2342" x1="31.3594" y1="51.9707" x2="50.1761" y2="51.9707" gradientUnits="userSpaceOnUse">
<stop stop-color="#C427E0"/>
<stop offset="0.471154" stop-color="#844AFF"/>
<stop offset="1" stop-color="#12A9FF"/>
</linearGradient>
<linearGradient id="paint6_linear_54_2342" x1="13.8444" y1="49.5608" x2="16.0727" y2="49.5608" gradientUnits="userSpaceOnUse">
<stop stop-color="#C427E0"/>
<stop offset="0.471154" stop-color="#844AFF"/>
<stop offset="1" stop-color="#12A9FF"/>
</linearGradient>
<linearGradient id="paint7_linear_54_2342" x1="14.3123" y1="63.2508" x2="20.2336" y2="63.2508" gradientUnits="userSpaceOnUse">
<stop stop-color="#C427E0"/>
<stop offset="0.471154" stop-color="#844AFF"/>
<stop offset="1" stop-color="#12A9FF"/>
</linearGradient>
<linearGradient id="paint8_linear_54_2342" x1="23.9507" y1="83.0906" x2="62.5394" y2="83.0906" gradientUnits="userSpaceOnUse">
<stop stop-color="#C427E0"/>
<stop offset="0.471154" stop-color="#844AFF"/>
<stop offset="1" stop-color="#12A9FF"/>
</linearGradient>
<linearGradient id="paint9_linear_54_2342" x1="15.124" y1="79.7045" x2="19.7944" y2="79.7045" gradientUnits="userSpaceOnUse">
<stop stop-color="#C427E0"/>
<stop offset="0.471154" stop-color="#844AFF"/>
<stop offset="1" stop-color="#12A9FF"/>
</linearGradient>
</defs>
</svg>
