<svg width="104" height="104" viewBox="0 0 104 104" fill="none" xmlns="http://www.w3.org/2000/svg">
<path d="M81.6623 14.6176C80.016 14.6956 80.403 12.196 81.1452 11.6809C82.4757 11.63 82.278 14.25 81.6623 14.6176Z" fill="url(#paint0_linear_54_2197)"/>
<path d="M77.0187 15.9344C77.1641 15.4897 77.234 15.2639 77.6819 15.0823C78.2811 15.0731 79.0038 15.0195 79.5805 15.1702C80.4347 15.3935 80.3662 16.4103 79.534 16.6538C78.5419 16.7103 77.4292 17.0311 77.0187 15.9344Z" fill="url(#paint1_linear_54_2197)"/>
<path d="M84.3605 16.6538C81.5876 16.8884 81.8332 15.2287 83.4748 15.0823C86.1742 15.143 85.657 16.7176 84.3605 16.6538Z" fill="url(#paint2_linear_54_2197)"/>
<path d="M16.4129 46.2882C15.1864 46.3676 15.5083 44.9197 15.5699 44.1509C16.6491 30.687 25.5771 20.3416 37.5787 15.0823C38.5694 15.1316 38.8028 16.2059 38.1154 16.4722C26.4857 20.9778 17.7689 32.2969 16.9828 44.8265C16.9416 45.4846 17.0046 45.9276 16.4129 46.2882Z" fill="url(#paint3_linear_54_2197)"/>
<path d="M85.3044 45.8766C84.0801 46.2668 84.1135 44.9089 84.0235 44.0647C82.9632 34.1305 77.2318 24.6919 68.6628 19.4575C68.143 19.14 64.7829 17.3104 64.728 17.2422C64.3742 16.8027 64.6261 16.3857 65.0254 16.1035C66.1704 16.038 67.2919 16.9577 68.2325 17.5099C77.5076 22.9545 84.1297 32.3345 85.4894 43.0867C85.5851 43.8441 86.0895 45.3645 85.3044 45.8766Z" fill="url(#paint4_linear_54_2197)"/>
<path d="M20.5191 53.1113C20.1293 51.2582 20.0181 49.1863 20.0339 47.3102C20.2321 23.8058 46.8355 8.9996 66.7582 21.9283C81.0964 31.2331 85.3218 49.2958 76.3021 63.7471C75.9488 64.1808 74.761 66.2518 74.2357 66.2595C72.868 66.2792 73.2412 65.3032 73.8436 64.5338C77.3211 60.0933 79.3173 54.2477 79.5285 48.6041C80.3059 27.8279 58.6369 12.5211 39.4012 20.8599C26.4377 26.4795 19.2009 39.7617 22.0451 53.5449C21.4492 52.8834 22.051 50.795 20.6202 51.1808C20.3929 51.0753 20.5152 51.0367 20.2897 50.8289C20.2361 51.3778 20.6763 52.6942 20.5191 53.1113Z" fill="url(#paint5_linear_54_2197)"/>
<path d="M81.4698 20.1906C80.1464 20.266 80.2169 17.8614 81.1452 17.2729C82.4356 17.3177 82.5853 19.6982 81.4698 20.1906Z" fill="url(#paint6_linear_54_2197)"/>
<path d="M51.3236 30.8256C50.009 30.8356 50.064 28.3313 50.7999 27.8427C52.649 27.7213 51.7877 30.4909 51.3236 30.8256Z" fill="url(#paint7_linear_54_2197)"/>
<path d="M55.5937 31.8916C53.4783 31.8969 55.9229 29.6308 56.6436 29.2047C58.5294 28.9329 56.8189 31.309 55.5937 31.8916Z" fill="url(#paint8_linear_54_2197)"/>
<path d="M47.5991 33.0513C46.7724 33.2538 44.733 31.561 46.0288 30.8257C46.7769 30.5714 48.8591 32.0509 47.5991 33.0513Z" fill="url(#paint9_linear_54_2197)"/>
<path d="M41.3138 41.7237C39.231 41.9555 37.3504 40.466 37.0988 38.3856C36.8473 36.3052 38.3185 34.4104 40.3965 34.139C42.5027 33.864 44.4289 35.3596 44.6838 37.4685C44.9388 39.5771 43.4247 41.4889 41.3138 41.7237ZM40.5123 35.5607C39.2076 35.786 38.3311 37.0244 38.5523 38.3297C38.7737 39.635 40.0095 40.5151 41.3154 40.2978C42.627 40.0794 43.5118 38.8373 43.2894 37.5264C43.0672 36.2156 41.8224 35.3346 40.5123 35.5607Z" fill="url(#paint10_linear_54_2197)"/>
<path d="M60.8627 41.7459C58.7539 41.9645 56.8703 40.4246 56.6654 38.3145C56.4602 36.2044 58.0123 34.3308 60.1236 34.1395C62.2158 33.95 64.0687 35.4848 64.2718 37.5755C64.4749 39.6663 62.9521 41.5292 60.8627 41.7459ZM60.1951 35.5287C59.3324 35.6302 58.5906 36.1876 58.253 36.9881C57.9152 37.7884 58.0334 38.7086 58.5626 39.3978C59.0917 40.0868 59.9501 40.4384 60.8107 40.3187C62.1219 40.1363 63.0419 38.9322 62.8731 37.619C62.7043 36.306 61.5099 35.3735 60.1951 35.5287Z" fill="url(#paint11_linear_54_2197)"/>
<path d="M52.8247 37.2692C52.2872 37.2694 51.1812 37.4272 50.8131 36.9192C50.4215 36.3789 50.8639 36.0342 51.3236 35.8108C51.8673 35.7712 54.1458 35.932 54.5346 36.2067C55.0493 36.5705 55.7032 39.9899 54.6583 40.1174C53.7152 40.2324 53.7757 38.9115 53.7749 38.2978C52.7146 39.2604 48.2154 43.667 47.5991 44.6934C47.1 45.0505 46.4271 45.9516 45.8642 46.0529C45.3572 46.1443 44.9623 45.4576 45.2244 45.0395C46.7391 42.6236 50.7193 39.8233 52.7609 37.3474L52.8247 37.2692Z" fill="url(#paint12_linear_54_2197)"/>
<path d="M48.0393 48.2259C48.2859 47.764 48.8847 47.5416 49.2881 47.9875C49.763 48.5117 49.5026 50.4016 49.5022 51.0801C49.4999 54.5121 50.0002 58.67 45.6387 59.8711C44.2971 60.2406 42.7194 60.0939 41.3339 60.0962C38.6035 60.1006 35.6283 60.4833 33.6373 58.1894C31.9475 56.2427 32.3267 53.7599 32.3261 51.3719C32.3257 48.8798 32.0797 46.5977 34.2099 44.7887C35.7719 43.4621 37.8308 43.4651 39.7668 43.6302C40.7526 43.6317 44.5195 43.1509 44.3692 44.3747C44.263 45.241 42.8712 45.0397 42.2847 45.0395C40.9614 45.0389 37.8794 44.8598 36.7599 45.0962C33.3775 45.811 33.7421 49.0807 33.7342 51.6472C33.7283 53.5174 33.3759 55.7211 34.7197 57.2469C36.3657 59.1159 39.2366 58.6473 41.4734 58.6528C46.4059 58.6647 48.0502 58.4878 48.0449 53.302L48.0352 50.2123C48.0301 49.5749 47.9938 48.9243 48.0348 48.2885L48.0393 48.2259Z" fill="url(#paint13_linear_54_2197)"/>
<path d="M64.7581 60.0953L59.3651 60.0988C52.6402 60.0976 51.9523 59.0716 51.9523 52.3303C51.9523 48.7725 51.2123 44.0676 56.2943 43.6302L61.2633 43.6282C64.3752 43.6298 68.0863 43.4718 68.9589 47.5028C69.2581 48.8859 69.1098 50.6074 69.1098 52.0266C69.1098 55.7464 69.3225 59.1214 64.7581 60.0953ZM55.9573 45.094C52.781 45.6779 53.4085 48.9038 53.4145 51.2828L53.4097 54.224C53.393 58.9511 55.0869 58.6546 59.4075 58.6495C61.2154 58.6475 63.2576 58.9103 65.0254 58.5043C68.1622 57.445 67.6875 54.4024 67.6764 51.7753C67.6664 49.4416 68.1377 46.5952 65.5444 45.3954C64.6498 44.9816 57.6154 44.9327 55.9573 45.094Z" fill="url(#paint14_linear_54_2197)"/>
<path d="M40.4974 55.0903C40.8948 55.1269 44.4708 54.6416 43.3457 56.1943C42.8098 56.9341 39.9608 56.5169 39.2113 55.926C37.0124 54.1923 36.9097 47.6846 40.7749 47.2288L40.9013 47.2274C41.5854 47.219 43.4789 46.8906 43.4283 48.0257C43.3473 49.8363 39.2742 46.8144 39.0953 51.2614C39.6522 51.2901 41.5809 51.1026 41.9214 51.4144C43.5579 52.913 39.5131 52.7126 39.0953 52.7089C39.2127 53.7473 39.5052 54.5618 40.4974 55.0903Z" fill="url(#paint15_linear_54_2197)"/>
<path d="M60.8176 55.7528C58.6475 55.9957 56.6861 54.4463 56.42 52.2787C56.1537 50.111 57.682 48.1332 59.8467 47.8439C61.2678 47.654 62.6811 48.242 63.548 49.384C64.415 50.5258 64.6015 52.0453 64.0366 53.363C63.4717 54.6807 62.2426 55.5933 60.8176 55.7528ZM59.7915 49.2934C58.8904 49.5034 58.1719 50.1813 57.9099 51.0683C57.6479 51.9556 57.8829 52.9149 58.5252 53.5806C59.1675 54.2462 60.1179 54.5153 61.0139 54.2852C62.3774 53.935 63.2054 52.5525 62.8706 51.1849C62.5357 49.8175 61.1626 48.9741 59.7915 49.2934Z" fill="url(#paint16_linear_54_2197)"/>
<path d="M20.5191 53.1113C20.6763 52.6943 20.2361 51.3778 20.2897 50.829C20.5152 51.0368 20.3929 51.0754 20.6202 51.1808C22.051 50.7951 21.4492 52.8834 22.0451 53.545C22.1987 54.1267 22.3043 54.7192 22.4666 55.3002C26.5011 69.7503 41.224 78.3999 55.7448 75.8603C56.4484 75.7372 57.1642 75.503 57.8677 75.4225C58.5839 75.3407 59.1784 75.9241 58.6265 76.596C58.2081 77.1052 54.5196 77.5391 53.7001 77.6281C39.4154 79.1773 25.8438 70.3828 21.4575 56.7661C21.0817 55.5998 20.6517 54.3343 20.5191 53.1113Z" fill="url(#paint17_linear_54_2197)"/>
<path d="M43.2603 81.4265C41.5177 81.3006 39.678 80.6715 38.0648 80.0308C29.5319 76.6427 22.1185 70.3501 18.4436 61.8237C17.9849 60.7593 16.1962 57.6611 17.6657 57.087C18.6755 57.1969 18.7353 58.6625 19.085 59.5765C22.7987 69.2831 31.4393 77.0384 41.511 79.6227C42.0688 79.7659 42.6658 79.8204 43.2075 80.0127C43.9378 80.2721 43.9729 81.1596 43.2603 81.4265Z" fill="url(#paint18_linear_54_2197)"/>
<path d="M57.6069 65.2549C57.0306 65.2608 54.5167 62.9344 56.2943 62.2605C57.0558 62.1794 59.241 64.6714 57.6069 65.2549Z" fill="url(#paint19_linear_54_2197)"/>
<path d="M85.7941 68.4996C84.1533 68.7866 82.591 67.6871 82.3073 66.0457C82.0233 64.4042 83.1259 62.8442 84.7679 62.5635C86.4053 62.2838 87.9602 63.3825 88.2432 65.0195C88.5261 66.6563 87.4305 68.2134 85.7941 68.4996ZM85.0019 64.0689C84.19 64.2354 83.6652 65.026 83.8269 65.8389C83.9885 66.6516 84.7761 67.1811 85.5898 67.0245C86.4104 66.8663 86.9456 66.0707 86.7825 65.2508C86.6194 64.4312 85.8205 63.9009 85.0019 64.0689Z" fill="url(#paint20_linear_54_2197)"/>
<path d="M80.5417 84.8902C78.9169 86.3328 78.2905 87.8174 75.9602 88.2389C73.4339 88.696 72.1934 87.5599 70.5942 85.9457L68.4149 83.7472C64.4759 79.7239 61.5534 77.5915 60.578 71.5656C59.8571 67.1117 60.1055 66.5761 64.1674 66.2427C68.3205 66.0364 73.0951 67.8661 76.025 70.8762L78.2917 73.1898C81.4182 76.3543 85.5168 79.3837 81.6623 83.8591C82.2483 84.4982 88.4715 90.8288 88.4755 91.222C88.5015 93.7071 85.6803 90.2818 85.3044 89.7258C83.6003 88.2806 82.1025 86.487 80.5417 84.8902ZM63.9649 67.7881C63.2547 67.8058 62.5903 67.9165 61.8966 68.0617C61.6945 71.4553 62.5351 75.1579 64.7581 77.8137C65.4491 76.7157 66.5228 75.7027 67.4844 74.8355C68.9778 73.1096 70.6958 71.5295 72.3013 69.9049C70.5445 68.5283 66.1675 67.3987 63.9649 67.7881ZM73.7795 70.7214C72.9263 71.3704 72.1815 72.165 71.4277 72.9241L68.6069 75.7815C67.6138 76.7957 66.4928 77.7542 65.6102 78.8649C65.8568 79.0908 67.2732 80.7704 67.4844 80.654C70.1114 77.8775 72.9302 75.2964 75.595 72.5636C75.3287 72.2971 73.9533 70.8011 73.7795 70.7214ZM76.5901 73.6129C74.306 75.8361 70.3954 79.3475 68.469 81.7659C69.7338 82.8829 72.4128 86.1027 73.7795 86.6619C74.6864 86.9101 75.8176 86.9873 76.6652 86.4979C77.4239 86.0602 80.6014 82.9217 81.1147 82.1657C82.0757 80.7503 81.7222 78.8164 80.5951 77.6114C80.2303 77.2214 76.6346 73.6318 76.5901 73.6129Z" fill="url(#paint21_linear_54_2197)"/>
<path d="M55.2246 69.4161C54.791 69.4226 53.9858 69.5317 53.6285 69.2524C52.3679 68.2672 54.2189 67.8848 55.0071 67.8744C55.4607 67.8634 56.2799 67.7418 56.6463 68.0535C57.837 69.0667 55.9792 69.4092 55.2246 69.4161Z" fill="url(#paint22_linear_54_2197)"/>
<path d="M59.3263 86.6619C58.1005 86.3024 58.0996 84.0193 59.3263 83.7C60.4047 83.8988 60.461 86.2205 59.3263 86.6619Z" fill="url(#paint23_linear_54_2197)"/>
<path d="M57.6069 88.7337C57.0474 88.7745 56.2804 88.8562 55.7426 88.6985C54.8133 88.4262 55.0597 87.5361 55.7564 87.192C56.357 87.1822 57.5031 86.9637 57.9176 87.5399C58.2404 87.9884 58.0273 88.4501 57.6069 88.7337Z" fill="url(#paint24_linear_54_2197)"/>
<path d="M62.7693 88.7337C62.1928 88.7561 61.4165 88.8465 60.8707 88.6369C60.0251 88.3123 60.2895 87.462 61.059 87.192C61.7482 87.1788 63.781 86.9607 63.2799 88.2802C63.1865 88.5259 62.9992 88.6344 62.7693 88.7337Z" fill="url(#paint25_linear_54_2197)"/>
<path d="M59.4862 92.225C58.2343 92.4322 58.071 89.8028 59.0137 89.2805C60.4965 89.0876 60.3734 91.7408 59.4862 92.225Z" fill="url(#paint26_linear_54_2197)"/>
<defs>
<linearGradient id="paint0_linear_54_2197" x1="80.5074" y1="13.1498" x2="82.1386" y2="13.1498" gradientUnits="userSpaceOnUse">
<stop stop-color="#C427E0"/>
<stop offset="0.471154" stop-color="#844AFF"/>
<stop offset="1" stop-color="#12A9FF"/>
</linearGradient>
<linearGradient id="paint1_linear_54_2197" x1="77.0187" y1="15.9032" x2="80.1904" y2="15.9032" gradientUnits="userSpaceOnUse">
<stop stop-color="#C427E0"/>
<stop offset="0.471154" stop-color="#844AFF"/>
<stop offset="1" stop-color="#12A9FF"/>
</linearGradient>
<linearGradient id="paint2_linear_54_2197" x1="82.2534" y1="15.8794" x2="85.4193" y2="15.8794" gradientUnits="userSpaceOnUse">
<stop stop-color="#C427E0"/>
<stop offset="0.471154" stop-color="#844AFF"/>
<stop offset="1" stop-color="#12A9FF"/>
</linearGradient>
<linearGradient id="paint3_linear_54_2197" x1="15.4862" y1="30.6868" x2="38.5092" y2="30.6868" gradientUnits="userSpaceOnUse">
<stop stop-color="#C427E0"/>
<stop offset="0.471154" stop-color="#844AFF"/>
<stop offset="1" stop-color="#12A9FF"/>
</linearGradient>
<linearGradient id="paint4_linear_54_2197" x1="64.5591" y1="31.0228" x2="85.737" y2="31.0228" gradientUnits="userSpaceOnUse">
<stop stop-color="#C427E0"/>
<stop offset="0.471154" stop-color="#844AFF"/>
<stop offset="1" stop-color="#12A9FF"/>
</linearGradient>
<linearGradient id="paint5_linear_54_2197" x1="20.0325" y1="41.6962" x2="81.0406" y2="41.6962" gradientUnits="userSpaceOnUse">
<stop stop-color="#C427E0"/>
<stop offset="0.471154" stop-color="#844AFF"/>
<stop offset="1" stop-color="#12A9FF"/>
</linearGradient>
<linearGradient id="paint6_linear_54_2197" x1="80.4604" y1="18.7326" x2="82.2185" y2="18.7326" gradientUnits="userSpaceOnUse">
<stop stop-color="#C427E0"/>
<stop offset="0.471154" stop-color="#844AFF"/>
<stop offset="1" stop-color="#12A9FF"/>
</linearGradient>
<linearGradient id="paint7_linear_54_2197" x1="50.2826" y1="29.3323" x2="51.9337" y2="29.3323" gradientUnits="userSpaceOnUse">
<stop stop-color="#C427E0"/>
<stop offset="0.471154" stop-color="#844AFF"/>
<stop offset="1" stop-color="#12A9FF"/>
</linearGradient>
<linearGradient id="paint8_linear_54_2197" x1="54.7505" y1="30.5374" x2="57.483" y2="30.5374" gradientUnits="userSpaceOnUse">
<stop stop-color="#C427E0"/>
<stop offset="0.471154" stop-color="#844AFF"/>
<stop offset="1" stop-color="#12A9FF"/>
</linearGradient>
<linearGradient id="paint9_linear_54_2197" x1="45.6086" y1="31.9324" x2="47.9953" y2="31.9324" gradientUnits="userSpaceOnUse">
<stop stop-color="#C427E0"/>
<stop offset="0.471154" stop-color="#844AFF"/>
<stop offset="1" stop-color="#12A9FF"/>
</linearGradient>
<linearGradient id="paint10_linear_54_2197" x1="37.0708" y1="37.927" x2="44.7119" y2="37.927" gradientUnits="userSpaceOnUse">
<stop stop-color="#C427E0"/>
<stop offset="0.471154" stop-color="#844AFF"/>
<stop offset="1" stop-color="#12A9FF"/>
</linearGradient>
<linearGradient id="paint11_linear_54_2197" x1="56.6472" y1="37.9451" x2="64.29" y2="37.9451" gradientUnits="userSpaceOnUse">
<stop stop-color="#C427E0"/>
<stop offset="0.471154" stop-color="#844AFF"/>
<stop offset="1" stop-color="#12A9FF"/>
</linearGradient>
<linearGradient id="paint12_linear_54_2197" x1="45.141" y1="40.933" x2="55.2147" y2="40.933" gradientUnits="userSpaceOnUse">
<stop stop-color="#C427E0"/>
<stop offset="0.471154" stop-color="#844AFF"/>
<stop offset="1" stop-color="#12A9FF"/>
</linearGradient>
<linearGradient id="paint13_linear_54_2197" x1="32.2901" y1="51.8307" x2="49.5738" y2="51.8307" gradientUnits="userSpaceOnUse">
<stop stop-color="#C427E0"/>
<stop offset="0.471154" stop-color="#844AFF"/>
<stop offset="1" stop-color="#12A9FF"/>
</linearGradient>
<linearGradient id="paint14_linear_54_2197" x1="51.9146" y1="51.8632" x2="69.1466" y2="51.8632" gradientUnits="userSpaceOnUse">
<stop stop-color="#C427E0"/>
<stop offset="0.471154" stop-color="#844AFF"/>
<stop offset="1" stop-color="#12A9FF"/>
</linearGradient>
<linearGradient id="paint15_linear_54_2197" x1="37.6856" y1="51.8837" x2="43.5637" y2="51.8837" gradientUnits="userSpaceOnUse">
<stop stop-color="#C427E0"/>
<stop offset="0.471154" stop-color="#844AFF"/>
<stop offset="1" stop-color="#12A9FF"/>
</linearGradient>
<linearGradient id="paint16_linear_54_2197" x1="56.3899" y1="51.7933" x2="64.359" y2="51.7933" gradientUnits="userSpaceOnUse">
<stop stop-color="#C427E0"/>
<stop offset="0.471154" stop-color="#844AFF"/>
<stop offset="1" stop-color="#12A9FF"/>
</linearGradient>
<linearGradient id="paint17_linear_54_2197" x1="20.2851" y1="64.3167" x2="58.8431" y2="64.3167" gradientUnits="userSpaceOnUse">
<stop stop-color="#C427E0"/>
<stop offset="0.471154" stop-color="#844AFF"/>
<stop offset="1" stop-color="#12A9FF"/>
</linearGradient>
<linearGradient id="paint18_linear_54_2197" x1="17.0969" y1="69.2568" x2="43.7755" y2="69.2568" gradientUnits="userSpaceOnUse">
<stop stop-color="#C427E0"/>
<stop offset="0.471154" stop-color="#844AFF"/>
<stop offset="1" stop-color="#12A9FF"/>
</linearGradient>
<linearGradient id="paint19_linear_54_2197" x1="55.6683" y1="63.7568" x2="58.1991" y2="63.7568" gradientUnits="userSpaceOnUse">
<stop stop-color="#C427E0"/>
<stop offset="0.471154" stop-color="#844AFF"/>
<stop offset="1" stop-color="#12A9FF"/>
</linearGradient>
<linearGradient id="paint20_linear_54_2197" x1="82.2627" y1="65.5326" x2="88.2877" y2="65.5326" gradientUnits="userSpaceOnUse">
<stop stop-color="#C427E0"/>
<stop offset="0.471154" stop-color="#844AFF"/>
<stop offset="1" stop-color="#12A9FF"/>
</linearGradient>
<linearGradient id="paint21_linear_54_2197" x1="60.262" y1="79.1715" x2="88.4757" y2="79.1715" gradientUnits="userSpaceOnUse">
<stop stop-color="#C427E0"/>
<stop offset="0.471154" stop-color="#844AFF"/>
<stop offset="1" stop-color="#12A9FF"/>
</linearGradient>
<linearGradient id="paint22_linear_54_2197" x1="53.2008" y1="68.6422" x2="57.0346" y2="68.6422" gradientUnits="userSpaceOnUse">
<stop stop-color="#C427E0"/>
<stop offset="0.471154" stop-color="#844AFF"/>
<stop offset="1" stop-color="#12A9FF"/>
</linearGradient>
<linearGradient id="paint23_linear_54_2197" x1="58.4066" y1="85.1809" x2="60.1563" y2="85.1809" gradientUnits="userSpaceOnUse">
<stop stop-color="#C427E0"/>
<stop offset="0.471154" stop-color="#844AFF"/>
<stop offset="1" stop-color="#12A9FF"/>
</linearGradient>
<linearGradient id="paint24_linear_54_2197" x1="55.1359" y1="87.9674" x2="58.074" y2="87.9674" gradientUnits="userSpaceOnUse">
<stop stop-color="#C427E0"/>
<stop offset="0.471154" stop-color="#844AFF"/>
<stop offset="1" stop-color="#12A9FF"/>
</linearGradient>
<linearGradient id="paint25_linear_54_2197" x1="60.3475" y1="87.9715" x2="63.3585" y2="87.9715" gradientUnits="userSpaceOnUse">
<stop stop-color="#C427E0"/>
<stop offset="0.471154" stop-color="#844AFF"/>
<stop offset="1" stop-color="#12A9FF"/>
</linearGradient>
<linearGradient id="paint26_linear_54_2197" x1="58.4097" y1="90.7536" x2="60.1436" y2="90.7536" gradientUnits="userSpaceOnUse">
<stop stop-color="#C427E0"/>
<stop offset="0.471154" stop-color="#844AFF"/>
<stop offset="1" stop-color="#12A9FF"/>
</linearGradient>
</defs>
</svg>
