<svg width="104" height="104" viewBox="0 0 104 104" fill="none" xmlns="http://www.w3.org/2000/svg">
<path d="M18.5363 29.894C18.8266 29.3283 20.8957 26.7618 21.3429 26.2382C29.0355 17.2287 38.364 13.0721 49.872 12.1363C56.2583 11.909 62.6222 13.0398 68.4184 15.7429C68.9973 16.0128 76.0124 19.3633 73.6809 20.2773C73.125 20.4954 72.6253 19.9485 72.1997 19.6586C61.3033 12.2337 47.791 12.0699 35.9208 16.9594C30.0483 19.5143 25.0731 23.8047 21.0866 28.764C20.4488 29.5572 19.2701 31.8663 18.5363 29.894Z" fill="url(#paint0_linear_54_2356)"/>
<path d="M76.2347 23.9199C77.4274 21.8668 78.9121 18.8548 80.3065 22.7443C80.4739 23.0008 80.5738 23.3104 80.6845 23.5996C81.8139 22.4465 85.2167 19.774 86.758 18.8136C87.2887 18.4829 88.0074 18.6673 88.0241 19.403C88.0326 19.7767 83.5443 26.3087 82.8836 27.4243C84.9615 29.9255 86.6142 33.8424 88.5942 36.8046C89.6294 38.2035 90.7258 39.0288 89.7315 40.8784C86.7375 46.4481 84.1941 41.5085 81.35 39.5624C79.321 39.4255 78.7246 39.4428 76.8808 38.4864C72.7785 44.3163 75.0803 47.9054 72.5031 53.6182C74.0377 54.796 77.817 56.8632 78.8509 58.0293C82.0975 61.6904 76.4537 66.146 74.1122 68.6635C73.3814 69.4492 72.6944 70.3787 71.9047 71.098C71.3189 71.6316 67.3807 74.0461 66.7195 74.1247C65.66 74.2507 65.9285 71.2467 65.9125 70.6267C65.8554 68.4187 65.8491 66.1427 68.9567 66.743C70.0444 65.6063 71.9839 63.3014 72.9554 61.9557C70.6026 61.235 68.4398 60.2078 66.1631 59.4296C61.5449 61.8152 57.0723 62.8923 51.8467 63.1913C50.8524 63.2482 49.4169 63.3682 48.4777 63.2655C47.7033 65.5285 46.5748 66.4659 44.5746 67.6426C43.784 69.8355 43.0229 70.5337 42.1467 72.3025L42.1725 72.3888C42.5141 73.5099 43.3894 75.1928 43.923 76.2888C46.8139 81.9172 45.692 82.461 43.0605 87.3362C42.8659 87.6967 42.3148 88.2986 41.9663 87.9013C41.2271 87.0583 39.4254 84.6817 39.0453 83.726C39.3153 82.7407 39.9052 81.784 40.2728 80.8274C39.4526 78.3351 37.0151 74.0392 35.7476 71.6864C34.8403 72.0827 34.3408 72.1473 33.9887 73.1865C33.3922 74.7319 31.132 80.5148 30.4759 81.395C29.8625 82.2178 27.0935 83.5751 26.1839 84.2936C25.7327 84.6503 24.2056 85.8331 23.9779 84.6503C23.9249 83.6184 24.0765 79.0202 24.3096 78.4139C24.7057 78.0176 25.8676 77.8437 26.489 77.6061L29.4424 70.278C30.1491 68.5573 30.0845 67.641 31.6821 66.6615L33.4681 65.5734C36.9771 63.4534 35.2792 62.7262 33.9181 60.1434C32.444 57.3458 32.2136 54.6796 32.9991 51.6731C29.6585 51.4964 29.7459 53.4832 28.5344 55.8382C26.4546 59.8808 21.2993 62.3561 16.9105 61.0441C16.7313 60.7268 15.7626 60.8148 16.2577 60.1457C16.2577 60.1457 16.2443 59.9297 16.2428 59.9054C16.514 59.7205 17.6907 60.0506 18.2051 59.9216C18.3166 59.9058 19.5127 59.9525 19.6843 59.9562C22.7602 60.0216 25.8778 57.8715 27.2781 55.2101C29.0758 51.7942 28.8503 50.1554 33.5772 50.2228C33.7659 49.5781 33.8439 49.5011 34.2711 48.9801C33.7062 48.5344 33.2077 48.235 32.5498 47.9594L32.6432 47.8617C32.468 47.1715 33.0097 46.8999 33.5772 46.8948C34.0923 47.1103 34.653 47.43 35.0866 47.7835C35.707 47.011 36.592 46.1601 37.4577 45.6702C37.6923 45.4159 38.8107 44.8798 39.1449 44.7246C43.2951 42.7974 45.6116 44.3316 49.5353 44.0334C53.9167 43.7005 58.2717 41.761 61.0986 38.3325C64.7987 33.6608 69.3605 26.0676 75.917 25.4789C74.5459 24.5541 71.3583 24.1844 69.9126 24.6303C69.5984 24.727 68.3445 25.469 67.9884 25.6652C65.8544 26.8419 63.6086 27.0282 61.2906 26.3046C60.9991 26.2039 60.3461 26.0032 60.2339 25.6875C59.6883 24.1349 61.7972 24.9563 62.4433 25.0944C66.7798 26.0286 67.9628 23.0024 70.8917 22.9935C72.6353 22.9882 74.6387 23.2003 76.2347 23.9199ZM78.7884 22.7443L78.6895 22.7114C77.8583 23.5056 76.9617 25.9815 77.1622 27.1752C77.6669 30.1819 75.8666 28.8762 75.7062 26.9022C68.2559 28.551 65.8383 35.6098 61.2991 40.2055C57.6849 43.8648 52.2385 45.8067 47.1255 45.4337C43.9929 45.2054 39.816 44.7218 37.4577 47.5907C33.6633 49.6486 33.2632 56.0949 35.2191 59.634C36.0986 61.2255 37.4045 62.0725 36.7636 64.1399C36.0273 66.5149 33.3253 66.8275 31.7725 68.4181C31.5988 68.5961 30.9957 70.2312 30.8553 70.5841L28.4944 76.4056C27.4475 78.9768 28.1353 78.7544 25.4837 79.3278C25.5097 80.6629 25.3446 81.9479 25.3482 83.2643C25.7287 83.0578 29.0979 80.7661 29.3061 80.5238C29.718 80.0446 30.0414 78.9723 30.2929 78.3707L33.1336 71.6996C33.4891 70.8719 38.9655 68.719 40.0433 68.2044C44.3772 66.1354 49.1524 64.7219 46.7649 58.415C46.5382 57.8231 45.3985 56.2749 46.6837 56.1092C48.2205 55.9109 48.6816 60.7475 48.6489 61.9557C53.6819 62.0317 60.3515 60.8917 64.7327 58.643C63.1496 57.2205 62.3608 55.9481 61.8443 53.8705C61.6668 53.157 62.2483 52.4787 62.9028 52.9881C63.5989 53.5297 63.076 56.8792 67.5192 58.506C69.2565 59.142 70.9886 59.7969 72.7168 60.4569C73.2904 60.676 75.634 61.1345 74.7846 62.1227C73.1937 63.8356 71.084 66.6747 69.537 68.0472C69.2106 68.0415 68.7816 67.9735 68.4515 67.9384C66.4323 67.7239 67.2257 71.1093 67.1467 72.5901C70.4121 71.14 71.2285 69.8345 73.3993 67.4098L76.617 63.8529C77.1108 63.3045 77.945 62.4576 78.2828 61.871C78.621 61.3262 78.414 59.269 77.9076 58.8668C76.151 57.4719 72.7196 55.8884 71.286 54.448C70.6938 52.7405 71.0264 52.2031 69.6772 50.4233C69.4306 50.0544 68.964 49.5614 68.988 49.0938C69.0024 48.8121 69.6181 48.3662 69.8547 48.5306C70.8714 49.2372 71.4629 50.5742 71.9266 51.6731C72.6467 49.7755 72.4933 48.1501 72.6329 46.2769C72.834 43.5747 74.0935 39.667 75.917 37.6398C72.6233 32.959 76.2792 29.5977 75.902 33.3787C75.6495 35.9078 77.5556 37.9161 80.0419 38.0942C80.5791 38.1342 81.094 38.0457 81.64 38.1346C83.0745 38.819 85.3235 41.9741 86.5912 42.0623C87.5191 42.1269 88.7368 40.185 88.712 39.4826C88.709 39.3908 84.9778 33.673 84.6128 32.9941C83.1942 30.3558 82.9055 29.2835 80.6845 27.1519C80.428 27.7554 79.6502 29.5814 78.792 28.3962C78.5755 27.6495 80.3285 26.261 78.7884 22.7443ZM84.3426 22.4944C83.5362 23.1934 81.3664 24.82 80.8503 25.4789C81.0366 25.6847 81.1261 25.7887 81.35 25.9628L81.8107 26.2801C82.1584 25.6942 84.2738 22.831 84.3426 22.4944ZM42.705 68.6745C41.0398 69.059 38.7116 70.582 37.0366 71.0693C37.4112 71.8914 37.8607 72.7004 38.2706 73.5087L40.2415 77.4594C42.2509 81.5187 41.6045 80.2585 40.5517 83.726C40.7865 84.0161 41.04 84.3165 41.246 84.6261C41.5785 85.1053 41.844 85.4973 42.1467 85.9976C44.5614 81.6414 45.0558 81.7949 42.8521 77.2222L41.4252 74.1883C41.0538 73.3921 40.7221 72.8548 40.5517 71.9929C40.829 71.359 42.1993 69.6383 42.7347 68.7094L42.705 68.6745Z" fill="url(#paint1_linear_54_2356)"/>
<path d="M53.4337 22.3109C52.9159 22.3113 44.7257 22.9879 46.4052 21.1291C46.7921 20.701 48.4764 20.8358 49.0554 20.8377L53.1244 20.8342C53.6523 20.834 57.0583 20.4942 56.0146 22.0885C55.7788 22.4488 53.9925 22.3156 53.4337 22.3109Z" fill="url(#paint2_linear_54_2356)"/>
<path d="M34.271 28.7841C33.3835 28.7857 31.4721 29.0623 31.2424 28.0534C31.0139 27.0496 32.748 27.3084 33.4333 27.309L45.4368 27.3112C46.2259 27.3214 48.2905 26.9539 48.3437 27.9805C48.3973 29.0197 46.7288 28.7855 46.0766 28.7859L34.271 28.7841Z" fill="url(#paint3_linear_54_2356)"/>
<path d="M55.4915 32.6625C54.5721 32.502 51.8517 32.2384 52.5084 30.9658C52.8228 30.3562 55.1768 31.2185 55.969 31.136C58.476 31.0452 59.5857 27.8874 64.1814 27.4243C64.8797 27.4046 65.5362 27.4395 66.2933 27.434C67.9059 27.4225 67.6292 28.7645 66.9469 28.8342C65.8685 28.9441 64.7658 28.7361 63.6805 28.8821C60.3689 29.1789 59.7368 32.4236 55.4915 32.6625Z" fill="url(#paint4_linear_54_2356)"/>
<path d="M82.5366 32.6624C82.1872 32.7207 78.8332 31.6334 80.6845 30.5656C81.38 30.5416 84.2954 31.6738 82.5366 32.6624Z" fill="url(#paint5_linear_54_2356)"/>
<path d="M56.6428 38.8119C53.8033 39.393 52.2868 37.724 49.6752 36.9878C49.1028 36.8265 48.7209 36.1595 49.2338 35.6596C49.7837 35.1743 50.8167 35.8225 51.4852 35.9013C56.4291 36.4849 57.2353 31.4992 62.4712 31.5427C62.8864 31.515 64.2228 31.3298 63.7932 32.5024C63.5832 33.076 61.8314 32.9294 61.1513 33.0825C58.8101 33.6093 57.0429 36.3295 53.7659 37.2625C55.8094 37.725 56.7691 37.379 58.5548 36.3785C59.3415 35.9377 61.2941 37.464 56.6428 38.8119Z" fill="url(#paint6_linear_54_2356)"/>
<path d="M38.548 33.6771C36.3331 33.7043 34.1024 33.6708 31.8871 33.673C31.2977 33.6736 30.6428 32.4677 31.8672 32.2522C32.6982 32.2221 38.2435 32.164 38.626 32.3082C39.3514 32.5816 39.1978 33.4459 38.548 33.6771Z" fill="url(#paint7_linear_54_2356)"/>
<path d="M16.3896 39.5624C15.1413 39.5963 15.0369 38.2579 16.1536 38.1825C17.302 38.1049 18.4325 38.1332 19.5747 38.1332L25.9474 38.1346C27.22 38.0527 27.1466 39.5289 26.1131 39.5561C25.0928 39.5829 24.0467 39.5648 23.0224 39.5642L16.3896 39.5624Z" fill="url(#paint8_linear_54_2356)"/>
<path d="M20.6302 44.7162C19.9523 44.7462 13.6269 44.7643 13.4712 44.6924C12.7837 44.3755 13.0208 43.5114 13.6947 43.3195C14.5988 43.3195 20.4998 43.2242 20.8575 43.3581C21.5707 43.625 21.2497 44.5472 20.6302 44.7162Z" fill="url(#paint9_linear_54_2356)"/>
<path d="M16.9105 61.0443C15.8551 60.9681 12.371 59.7851 12.0651 59.1318C11.5654 58.065 13.6405 58.3547 13.9957 58.3348C22.0139 57.8869 22.124 49.0286 28.0717 46.6949C29.921 45.9695 31.7737 46.1146 33.5772 46.895C33.0097 46.9001 32.468 47.1716 32.6433 47.8618L32.5498 47.9596C30.3628 46.8694 27.5105 48.0918 25.9351 49.7456C22.5819 53.2658 21.8675 58.209 15.6526 59.4298C16.5089 59.6524 17.454 59.7254 18.2051 59.9218C17.6907 60.0508 16.514 59.7207 16.2428 59.9055C16.2443 59.9299 16.2577 60.1458 16.2577 60.1458C15.7627 60.8149 16.7313 60.727 16.9105 61.0443Z" fill="url(#paint10_linear_54_2356)"/>
<path d="M86.9576 68.6744C90.0896 61.627 91.1107 56.2389 90.5513 48.3333C90.5176 47.8553 90.2125 46.5724 90.8395 46.3951C92.0947 46.04 91.8625 47.8139 91.9612 48.5472C92.4566 54.9546 91.5907 61.5295 89.009 67.4421C88.7953 67.9316 88.153 69.5135 87.8845 69.8172C87.8567 69.7709 87.877 69.7957 87.812 69.7543C87.1429 70.9202 86.1401 72.4755 85.5632 73.6213L85.524 73.7006L85.4844 73.6977C85.6916 72.8692 85.3903 73.0032 84.9692 72.6059C85.1047 72.094 86.6479 69.5777 87.0056 68.777L86.9576 68.6744Z" fill="url(#paint11_linear_54_2356)"/>
<path d="M79.3823 65.1491C78.7308 65.208 78.3467 64.7516 78.6142 64.1745C79.0048 63.7892 83.2753 63.0384 84.0098 62.88C84.55 62.8221 85.1159 63.3019 84.7248 63.8517C84.3814 64.3346 80.1241 65.0067 79.3823 65.1491Z" fill="url(#paint12_linear_54_2356)"/>
<path d="M46.7468 76.8928C44.6758 76.1384 47.5947 74.9731 48.2353 74.6386C51.1055 73.1399 61.0643 68.2186 64.1815 68.0474L64.3383 68.0652C65.7372 69.011 62.6343 69.7782 62.2016 69.9311C58.4535 71.2557 54.8662 72.8249 51.3198 74.6235L48.6128 75.9851C48.1234 76.2351 47.2264 76.7297 46.7468 76.8928Z" fill="url(#paint13_linear_54_2356)"/>
<path d="M73.3392 71.9931C72.6025 71.8232 72.3707 70.9135 73.1538 70.7002C76.0055 69.924 79.9625 68.8093 82.8835 68.4233C83.5038 68.5351 83.6807 69.4617 82.9206 69.6531C79.7269 70.457 76.5242 71.1381 73.3392 71.9931Z" fill="url(#paint14_linear_54_2356)"/>
<path d="M86.9577 68.6746L87.0056 68.7771C86.6479 69.5779 85.1048 72.0942 84.9693 72.606C85.3904 73.0034 85.6916 72.8693 85.4844 73.6978L85.524 73.7007L85.5632 73.6215C86.1401 72.4756 87.1429 70.9203 87.812 69.7544C87.877 69.7958 87.8567 69.771 87.8845 69.8173C82.6734 81.5825 69.1371 89.8841 56.7361 91.7234C53.3122 92.2312 54.5208 90.6247 54.9728 90.5745C69.1369 89.0003 80.4589 81.1432 86.9577 68.6746Z" fill="url(#paint15_linear_54_2356)"/>
<path d="M18.205 71.0693C17.511 71.065 15.9559 71.2919 15.4242 70.791C13.6481 69.1183 20.868 69.6694 21.1704 69.6698C21.8597 69.6803 23.2395 69.4815 23.8281 69.843C24.2055 70.0746 24.0573 70.9503 23.5009 71.0224C22.8722 71.104 22.2328 71.0756 21.5846 71.0748L18.205 71.0693Z" fill="url(#paint16_linear_54_2356)"/>
<path d="M48.0982 83.0048C47.3251 83.2166 46.9688 82.3913 47.1634 82.0594C47.971 80.6818 61.8477 74.8158 63.831 74.0963C64.8767 74.0035 64.9177 75.0687 64.5988 75.1907C59.7866 77.0327 55.1019 79.0284 50.6141 81.592C49.8004 82.057 48.9298 82.5804 48.0982 83.0048Z" fill="url(#paint17_linear_54_2356)"/>
<path d="M19.2982 76.0977L15.1909 76.0997C14.4646 76.1025 11.4177 76.5053 12.31 74.9449C12.4286 74.7375 12.8162 74.6402 13.0562 74.6087C15.1839 74.5706 17.3472 74.6252 19.477 74.613C20.2891 74.6083 20.6017 75.9776 19.2982 76.0977Z" fill="url(#paint18_linear_54_2356)"/>
<path d="M28.3429 91.8104C26.8909 91.871 27.4493 90.8237 28.0985 90.1357C29.9543 88.1694 34.6765 83.1878 37.0366 81.9075C38.7632 81.8482 37.3565 83.334 36.804 83.7848C34.0194 86.0565 31.429 88.5887 29.0101 91.2445C28.795 91.4808 28.6309 91.6565 28.3429 91.8104Z" fill="url(#paint19_linear_54_2356)"/>
<path d="M12.5421 91.8104C10.8079 91.2682 12.4317 89.9676 13.0783 89.2339C14.1677 87.9975 19.6051 82.5369 21.1705 82.0667C22.2785 82.1904 22.0049 83.0591 21.3015 83.6303C19.1476 85.4001 17.0307 87.1178 15.1259 89.16C14.533 89.7958 13.2103 91.5333 12.5421 91.8104Z" fill="url(#paint20_linear_54_2356)"/>
<path d="M38.0217 91.8104C35.7447 92.1265 38.8819 88.4477 39.3495 88.1606C41.4829 88.2228 38.522 91.6158 38.0217 91.8104Z" fill="url(#paint21_linear_54_2356)"/>
<defs>
<linearGradient id="paint0_linear_54_2356" x1="18.5363" y1="21.3896" x2="74.1539" y2="21.3896" gradientUnits="userSpaceOnUse">
<stop stop-color="#C427E0"/>
<stop offset="0.471154" stop-color="#844AFF"/>
<stop offset="1" stop-color="#12A9FF"/>
</linearGradient>
<linearGradient id="paint1_linear_54_2356" x1="16.1183" y1="53.3437" x2="90.1223" y2="53.3437" gradientUnits="userSpaceOnUse">
<stop stop-color="#C427E0"/>
<stop offset="0.471154" stop-color="#844AFF"/>
<stop offset="1" stop-color="#12A9FF"/>
</linearGradient>
<linearGradient id="paint2_linear_54_2356" x1="46.1786" y1="21.6175" x2="56.2122" y2="21.6175" gradientUnits="userSpaceOnUse">
<stop stop-color="#C427E0"/>
<stop offset="0.471154" stop-color="#844AFF"/>
<stop offset="1" stop-color="#12A9FF"/>
</linearGradient>
<linearGradient id="paint3_linear_54_2356" x1="31.2218" y1="28.0377" x2="48.345" y2="28.0377" gradientUnits="userSpaceOnUse">
<stop stop-color="#C427E0"/>
<stop offset="0.471154" stop-color="#844AFF"/>
<stop offset="1" stop-color="#12A9FF"/>
</linearGradient>
<linearGradient id="paint4_linear_54_2356" x1="52.4072" y1="30.0403" x2="67.4866" y2="30.0403" gradientUnits="userSpaceOnUse">
<stop stop-color="#C427E0"/>
<stop offset="0.471154" stop-color="#844AFF"/>
<stop offset="1" stop-color="#12A9FF"/>
</linearGradient>
<linearGradient id="paint5_linear_54_2356" x1="80.1306" y1="31.6149" x2="83.0924" y2="31.6149" gradientUnits="userSpaceOnUse">
<stop stop-color="#C427E0"/>
<stop offset="0.471154" stop-color="#844AFF"/>
<stop offset="1" stop-color="#12A9FF"/>
</linearGradient>
<linearGradient id="paint6_linear_54_2356" x1="48.993" y1="35.224" x2="63.8772" y2="35.224" gradientUnits="userSpaceOnUse">
<stop stop-color="#C427E0"/>
<stop offset="0.471154" stop-color="#844AFF"/>
<stop offset="1" stop-color="#12A9FF"/>
</linearGradient>
<linearGradient id="paint7_linear_54_2356" x1="31.1748" y1="32.9513" x2="39.1063" y2="32.9513" gradientUnits="userSpaceOnUse">
<stop stop-color="#C427E0"/>
<stop offset="0.471154" stop-color="#844AFF"/>
<stop offset="1" stop-color="#12A9FF"/>
</linearGradient>
<linearGradient id="paint8_linear_54_2356" x1="15.3801" y1="38.8494" x2="26.8954" y2="38.8494" gradientUnits="userSpaceOnUse">
<stop stop-color="#C427E0"/>
<stop offset="0.471154" stop-color="#844AFF"/>
<stop offset="1" stop-color="#12A9FF"/>
</linearGradient>
<linearGradient id="paint9_linear_54_2356" x1="13.0581" y1="44.0146" x2="21.264" y2="44.0146" gradientUnits="userSpaceOnUse">
<stop stop-color="#C427E0"/>
<stop offset="0.471154" stop-color="#844AFF"/>
<stop offset="1" stop-color="#12A9FF"/>
</linearGradient>
<linearGradient id="paint10_linear_54_2356" x1="11.9879" y1="53.6336" x2="33.5772" y2="53.6336" gradientUnits="userSpaceOnUse">
<stop stop-color="#C427E0"/>
<stop offset="0.471154" stop-color="#844AFF"/>
<stop offset="1" stop-color="#12A9FF"/>
</linearGradient>
<linearGradient id="paint11_linear_54_2356" x1="84.9692" y1="60.0246" x2="92.0944" y2="60.0246" gradientUnits="userSpaceOnUse">
<stop stop-color="#C427E0"/>
<stop offset="0.471154" stop-color="#844AFF"/>
<stop offset="1" stop-color="#12A9FF"/>
</linearGradient>
<linearGradient id="paint12_linear_54_2356" x1="78.5282" y1="64.0147" x2="84.8547" y2="64.0147" gradientUnits="userSpaceOnUse">
<stop stop-color="#C427E0"/>
<stop offset="0.471154" stop-color="#844AFF"/>
<stop offset="1" stop-color="#12A9FF"/>
</linearGradient>
<linearGradient id="paint13_linear_54_2356" x1="46.0154" y1="72.4701" x2="64.698" y2="72.4701" gradientUnits="userSpaceOnUse">
<stop stop-color="#C427E0"/>
<stop offset="0.471154" stop-color="#844AFF"/>
<stop offset="1" stop-color="#12A9FF"/>
</linearGradient>
<linearGradient id="paint14_linear_54_2356" x1="72.666" y1="70.2082" x2="83.4228" y2="70.2082" gradientUnits="userSpaceOnUse">
<stop stop-color="#C427E0"/>
<stop offset="0.471154" stop-color="#844AFF"/>
<stop offset="1" stop-color="#12A9FF"/>
</linearGradient>
<linearGradient id="paint15_linear_54_2356" x1="54.3933" y1="80.2485" x2="87.8845" y2="80.2485" gradientUnits="userSpaceOnUse">
<stop stop-color="#C427E0"/>
<stop offset="0.471154" stop-color="#844AFF"/>
<stop offset="1" stop-color="#12A9FF"/>
</linearGradient>
<linearGradient id="paint16_linear_54_2356" x1="15.1434" y1="70.3497" x2="24.0371" y2="70.3497" gradientUnits="userSpaceOnUse">
<stop stop-color="#C427E0"/>
<stop offset="0.471154" stop-color="#844AFF"/>
<stop offset="1" stop-color="#12A9FF"/>
</linearGradient>
<linearGradient id="paint17_linear_54_2356" x1="47.1111" y1="78.5648" x2="64.774" y2="78.5648" gradientUnits="userSpaceOnUse">
<stop stop-color="#C427E0"/>
<stop offset="0.471154" stop-color="#844AFF"/>
<stop offset="1" stop-color="#12A9FF"/>
</linearGradient>
<linearGradient id="paint18_linear_54_2356" x1="12.1478" y1="75.3717" x2="20.1818" y2="75.3717" gradientUnits="userSpaceOnUse">
<stop stop-color="#C427E0"/>
<stop offset="0.471154" stop-color="#844AFF"/>
<stop offset="1" stop-color="#12A9FF"/>
</linearGradient>
<linearGradient id="paint19_linear_54_2356" x1="27.4285" y1="86.8594" x2="37.8692" y2="86.8594" gradientUnits="userSpaceOnUse">
<stop stop-color="#C427E0"/>
<stop offset="0.471154" stop-color="#844AFF"/>
<stop offset="1" stop-color="#12A9FF"/>
</linearGradient>
<linearGradient id="paint20_linear_54_2356" x1="11.7665" y1="86.9385" x2="21.9163" y2="86.9385" gradientUnits="userSpaceOnUse">
<stop stop-color="#C427E0"/>
<stop offset="0.471154" stop-color="#844AFF"/>
<stop offset="1" stop-color="#12A9FF"/>
</linearGradient>
<linearGradient id="paint21_linear_54_2356" x1="37.2015" y1="89.9951" x2="40.1133" y2="89.9951" gradientUnits="userSpaceOnUse">
<stop stop-color="#C427E0"/>
<stop offset="0.471154" stop-color="#844AFF"/>
<stop offset="1" stop-color="#12A9FF"/>
</linearGradient>
</defs>
</svg>
