<svg width="104" height="104" viewBox="0 0 104 104" fill="none" xmlns="http://www.w3.org/2000/svg">
<path d="M30.8238 13.0696C40.2106 11.2564 49.7082 15.6326 54.429 23.9463C59.1496 32.2598 58.0416 42.6581 51.6752 49.7903C45.3087 56.9224 35.1022 59.199 26.3082 55.4487C17.5142 51.6984 12.0921 42.7567 12.8322 33.225C13.1601 33.0499 13.4473 28.5001 14.1261 28.0711C14.3542 27.947 14.336 27.853 14.4269 27.5918L14.4826 27.6289L14.4497 27.7504L14.4975 27.7975C15.3565 28.6569 13.505 33.5608 14.159 35.704C14.2272 40.8318 16.3663 45.2309 19.7201 49.0084C20.9288 47.7395 24.2466 45.2795 25.9314 44.9886C25.2552 41.9031 24.803 38.8735 24.8459 35.704C22.7636 35.4519 19.9502 36.0178 17.8465 35.5311C17.5354 35.4592 17.369 34.3316 18.1847 34.2957C18.8721 34.2656 19.6017 34.2801 20.2927 34.2796L24.8459 34.278C24.7693 31.6059 25.1985 27.2702 25.9314 24.8362C24.959 24.3803 23.8292 23.8736 22.9347 23.2938C22.789 22.8732 19.9313 21.4068 19.6691 20.6725C19.742 20.278 20.2568 20.5088 20.5664 20.1887C20.7102 20.1868 20.9836 20.4263 21.1764 20.5244L21.2703 20.4889C21.9808 20.9601 25.4532 23.3225 26.1824 23.3726C26.2765 23.2002 26.2915 23.1405 26.3506 22.9501L26.4589 22.9059C26.6376 22.315 27.1972 20.5173 27.6652 20.2252L27.7077 20.2462L27.6981 20.3965C28.5027 20.9888 27.3772 23.4521 27.6342 23.9568C31.9168 26.076 38.2011 25.2743 42.5137 23.7742C41.3272 20.1523 38.8936 13.4715 34.0141 14.3935L33.9398 14.3122C32.9479 14.602 30.4525 16.2544 30.1139 17.1484L30.0733 17.0097C28.2108 17.4558 30.7572 14.9504 30.6225 14.7351C30.4645 14.7053 30.2949 14.7259 30.1322 14.7351C29.5484 13.2139 29.9912 14.0843 30.8238 13.0696ZM39.322 14.7351L39.3581 14.7852C41.8025 18.0936 42.5758 19.0294 43.9138 23.2938C45.1338 22.6745 46.4819 22.0706 47.6013 21.3016C48.3285 20.7643 48.7661 20.3969 49.5845 20.0117C47.6867 18.002 42.2068 14.8803 39.322 14.7351ZM50.4522 21.0593C49.4041 21.8425 48.4069 22.578 47.2751 23.2416C46.3566 23.7803 45.1531 24.1683 44.3617 24.8362C44.9034 28.2576 45.3828 30.6384 45.3893 34.278L49.748 34.275C50.4916 34.275 51.311 34.2069 52.0477 34.3146C52.6703 34.4056 52.8603 35.2804 52.3435 35.6174C52.0366 35.8175 46.2038 35.7036 45.3893 35.704C45.4273 38.7984 45.083 41.9823 44.3617 44.9886L45.0515 45.2811C46.671 46.0058 49.506 47.6652 50.6561 49.0084C51.0965 48.4003 51.5611 47.8187 52.0006 47.2083C57.2486 39.9231 57.2337 29.2399 51.5328 22.21C51.3295 21.9593 50.7037 21.1998 50.4522 21.0593ZM42.7832 25.243C38.4006 26.7293 31.6087 27.5109 27.2553 25.3755C26.6449 27.9761 26.2706 31.6008 26.3506 34.278C27.7361 34.2766 29.703 34.2106 31.0278 34.278C31.0253 34.0261 31.0127 33.6756 31.0278 33.433C30.8206 30.5411 31.9112 30.8355 34.3761 30.9766C34.3706 30.3719 34.0336 27.9824 35.5977 28.8442C35.9229 29.0234 35.7965 30.5488 35.8004 30.9766C39.2503 30.9573 39.1755 30.7768 39.1491 34.278C40.5541 34.2805 42.56 34.3483 43.9138 34.278C43.9256 33.2665 43.4198 25.3874 42.7832 25.243ZM32.4456 32.4007C32.4438 34.1133 32.4182 35.8839 32.4456 37.5916C34.1539 37.5912 35.9611 37.5591 37.6602 37.5916V32.4007H32.4456ZM26.2602 35.704C26.4187 38.9678 26.6679 41.1936 27.2553 44.4377C31.3851 42.2785 38.8184 42.8645 43.0042 44.4377C43.2947 43.323 43.5216 41.6151 43.6693 40.4337C43.8411 38.7015 43.9329 37.4598 43.9138 35.704H39.1491C39.1355 39.0484 39.1022 39.0066 35.8004 38.9856C35.8231 39.4027 35.9231 40.1502 35.6594 40.4892C35.4234 40.7928 34.7062 40.7455 34.499 40.4293C34.2808 40.0965 34.3598 39.3823 34.3761 38.9856C31.1817 38.8282 31.0144 39.2729 31.0278 35.704C30.4324 35.6664 29.6995 35.6962 29.0873 35.7007L26.2602 35.704ZM34.0141 44.4377C31.7417 44.6315 29.7552 44.9082 27.6342 45.8064C28.5923 49.017 31.538 57.4123 36.3316 55.3147C40.0559 54.8694 41.4727 48.6054 42.7832 45.8064C39.5133 44.7528 37.4394 44.3953 34.0141 44.4377ZM26.2602 46.4123C24.829 46.9215 21.5898 48.8868 20.6897 50.085C22.8055 51.7772 24.1776 52.827 26.7493 53.958C28.1503 54.5552 29.4007 55.0008 30.8959 55.3147C28.8056 53.1591 27.6445 50.8778 26.7867 48.02C26.7268 47.8208 26.3492 46.4418 26.2602 46.4123ZM44.04 46.4123C43.052 49.6814 41.9303 52.9359 39.322 55.3147C41.0132 54.9379 42.0658 54.4861 43.6693 53.958C45.7915 52.817 47.8873 51.7037 49.5845 49.9121C47.5548 48.239 46.3749 47.534 44.04 46.4123Z" fill="url(#paint0_linear_54_2430)"/>
<path d="M12.8322 33.225C13.6088 23.2226 20.9735 14.9723 30.8238 13.0696C29.9912 14.0844 29.5484 13.2139 30.1322 14.7351C27.5513 15.4527 22.3279 17.6999 20.6897 20.0117C20.8957 20.1734 21.0716 20.3171 21.2702 20.4889L21.1764 20.5244C20.9836 20.4263 20.7102 20.1868 20.5664 20.1888C20.2568 20.5088 19.742 20.278 19.6691 20.6725C19.9313 21.4068 22.789 22.8732 22.9346 23.2939C22.1471 22.8738 20.3893 21.6624 19.72 21.0593C18.9322 21.6305 18.5033 22.3562 17.9516 23.1283C15.1993 26.98 14.1503 31.0544 14.159 35.704C13.505 33.5608 15.3564 28.657 14.4974 27.7975L14.4497 27.7504L14.4826 27.6289L14.4269 27.5918C14.336 27.853 14.3542 27.947 14.126 28.0712C13.4473 28.5002 13.16 33.0499 12.8322 33.225Z" fill="url(#paint1_linear_54_2430)"/>
<path d="M30.6225 14.7349C30.7572 14.9502 28.2108 17.4556 30.0733 17.0095L30.1139 17.1482C30.4525 16.2543 32.9479 14.6018 33.9397 14.312L34.0141 14.3933C30.5134 15.6656 28.2841 20.4777 27.6341 23.9567C27.3772 23.4519 28.5027 20.9886 27.6981 20.3963L27.7077 20.246L27.6652 20.225C27.1972 20.5171 26.6376 22.3148 26.4589 22.9057L26.3506 22.95C26.6346 20.8838 29.1817 15.8778 30.6225 14.7349Z" fill="url(#paint2_linear_54_2430)"/>
<path d="M63.0087 22.7881C62.5438 22.9225 61.5052 22.2254 61.0116 22.0582C60.5001 21.8537 56.9326 21.0674 59.0693 20.0115C59.754 19.9738 65.3873 21.352 63.0087 22.7881Z" fill="url(#paint3_linear_54_2430)"/>
<path d="M69.6743 26.7047C69.1846 26.6761 68.1375 25.6556 67.6758 25.3397C67.0739 24.9057 64.1416 23.526 66.0227 22.7881C66.5106 22.8005 71.9239 25.0158 69.6743 26.7047Z" fill="url(#paint4_linear_54_2430)"/>
<path d="M74.9604 31.4191C74.8461 31.426 70.0501 28.0009 72.5144 27.2668C73.0598 27.328 75.282 29.7832 75.6088 30.334C75.9112 30.8437 75.3687 31.2197 74.9604 31.4191Z" fill="url(#paint5_linear_54_2430)"/>
<path d="M79.0582 37.2821C78.1913 37.2727 77.0583 34.8448 76.56 34.0355C76.1436 33.3591 76.4406 33.0995 77.0556 32.8064C77.5025 32.8147 80.9619 36.5104 79.0582 37.2821Z" fill="url(#paint6_linear_54_2430)"/>
<path d="M81.6537 43.8704C81.2604 43.8889 81.0138 43.8113 80.8306 43.4335C80.4067 42.5601 78.9625 39.5262 80.2476 39.1094C81.2996 39.1512 81.3827 40.5725 81.7613 41.4014C82.1568 42.2674 82.6335 43.3807 81.6537 43.8704Z" fill="url(#paint7_linear_54_2430)"/>
<path d="M81.4182 48.7308C81.3552 47.7806 80.8283 46.3853 81.8242 45.8064C83.138 45.9437 82.8579 47.741 82.8874 48.7308C83.2756 48.3735 83.5776 47.9908 83.9895 47.6532C84.5924 47.1594 85.4837 47.5189 85.2761 48.3264C85.1333 48.8821 82.6658 51.1134 82.2416 51.3245C81.8529 51.3288 79.0036 48.5975 79.0343 48.3189C79.2687 46.1921 80.8789 48.2427 81.4182 48.7308Z" fill="url(#paint8_linear_54_2430)"/>
<path d="M89.5424 85.2615C88.9526 84.1359 88.7539 85.4806 88.4927 86.274C88.6942 86.5162 89.0332 86.6458 89.3249 86.7802C89.006 86.7307 88.6265 86.6634 88.3251 86.7802H56.0236C56.3236 89.728 58.3459 89.6658 60.6034 89.6646L83.6857 89.6581C84.0782 89.6575 85.4665 89.6254 85.796 89.6624C86.0036 89.758 86.0365 89.7461 86.2622 89.7048L86.3414 89.767C86.0643 89.9608 83.6993 89.6548 83.2303 89.8482C82.8121 90.0207 82.8842 90.2931 82.4414 90.2762C82.2478 91.4556 85.8273 90.7635 86.7753 91.1732C86.1283 91.0018 84.2388 91.0863 83.4846 91.1108C83.6159 91.1283 83.7814 91.1446 83.9073 91.1732L61.058 91.1773C57.9797 91.1793 54.4309 90.8732 54.479 86.6057C54.4959 85.1077 55.2791 85.2418 56.4363 85.2615L56.4349 70.2131C56.4375 66.2741 57.17 64.5535 61.409 64.5931L72.5145 64.5937C72.4627 63.8393 72.5108 62.5151 72.5145 61.7063C70.5401 61.6409 67.8741 62.1962 66.3175 60.7506C63.7738 58.388 65.4654 54.5024 69.1395 54.4964C70.7808 54.4937 72.4422 54.513 74.0852 54.5045C76.0943 54.5244 78.4943 54.0525 80.0754 55.5784C81.5298 56.9818 81.4652 59.1944 80.0583 60.609C78.9454 61.7278 77.6275 61.7024 76.1425 61.7069L73.9323 61.7063V64.5937C77.9164 64.702 81.9695 64.4757 85.9557 64.6335C87.5449 64.6965 89.3434 66.4354 89.5016 68.0054C89.6076 69.06 89.5463 70.4453 89.5441 71.5284L89.5412 82.946C89.5449 83.4571 89.5989 84.8197 89.5424 85.2615ZM77.31 56.0117L71.4038 56.008C70.3947 56.0076 69.2385 55.9487 68.2639 56.0897C65.9901 56.4189 66.0297 60.4306 68.9161 60.2521L74.2875 60.2547C75.4053 60.2543 76.8869 60.3151 77.9521 60.113C80.4418 59.6405 80.092 55.8061 77.31 56.0117ZM84.1314 66.1133L62.6129 66.111C58.4046 66.1084 57.9825 66.2388 57.9817 70.2534L57.9833 85.2615H62.0294H88.0312L88.0326 70.1776C88.0324 67.0265 87.5492 65.902 84.1314 66.1133Z" fill="url(#paint9_linear_54_2430)"/>
<path d="M21.6375 60.2521C21.1336 60.6157 20.8364 60.9973 20.3779 61.3997C19.7519 61.9256 18.9788 61.2104 19.2134 60.7757C19.6505 59.9659 21.5723 58.1044 22.3017 57.6833C22.4331 57.7059 27.3589 60.7006 24.8459 61.7062C24.298 61.3595 23.5258 60.5397 23.0515 60.0644C23.0096 60.8964 23.4159 62.8947 22.6966 63.4046C21.2239 63.9502 21.6306 61.1216 21.6375 60.2521Z" fill="url(#paint10_linear_54_2430)"/>
<path d="M26.3506 69.5435C26.1272 69.6118 26.1036 69.6223 25.8741 69.6278C25.4985 69.4722 22.3803 65.986 23.7325 65.2121C24.8328 65.1761 25.974 67.6091 26.7319 68.6353C26.9998 68.9981 26.6264 69.3276 26.3506 69.5435Z" fill="url(#paint11_linear_54_2430)"/>
<path d="M72.5144 70.477C72.4425 69.7063 72.1926 68.8071 72.9911 68.3921C74.0766 68.4504 73.8918 69.7343 73.6858 70.477C77.3575 71.2627 76.3979 75.5175 75.3135 74.6288C74.5826 74.03 75.2255 72.7713 74.3076 72.1834C72.9558 71.3181 70.2061 72.4044 71.1299 74.1907C71.7415 75.6237 73.361 74.6605 74.5176 75.2807C77.2141 76.5449 76.7666 79.9109 73.6858 80.9838C73.6956 81.635 73.8603 82.3466 73.3572 82.8034C72.1116 83.1221 72.3119 81.7987 72.3186 80.9838C69.3595 80.3397 69.1011 77.0294 70.2471 77.0271C71.2664 77.0253 70.8918 78.7084 71.5341 79.1427C72.6334 79.9056 74.9878 79.4624 74.7585 77.7673C74.5408 76.0497 72.9875 76.5813 71.9001 76.393C68.6672 75.8328 68.81 70.7016 72.5144 70.477Z" fill="url(#paint12_linear_54_2430)"/>
<path d="M31.19 74.6509C30.6609 74.7555 26.5547 71.8933 28.1992 70.7903C28.8675 70.691 31.2193 73.1086 31.641 73.6859C31.9715 74.138 31.6048 74.4429 31.19 74.6509Z" fill="url(#paint13_linear_54_2430)"/>
<path d="M49.1366 73.6312C48.5538 73.6812 46.043 73.6826 45.4066 73.5545C45.1094 73.4945 44.6422 72.3073 45.645 72.1196C46.4352 72.0856 49.8071 71.7875 49.735 72.8604C49.7096 73.24 49.4486 73.4547 49.1366 73.6312Z" fill="url(#paint14_linear_54_2430)"/>
<path d="M37.3752 78.5079C37.1162 78.5459 31.4764 76.696 33.5976 75.1907C34.2411 75.2711 36.0926 76.6487 36.8194 76.9118C37.6061 77.1965 38.3686 77.8695 37.3752 78.5079Z" fill="url(#paint15_linear_54_2430)"/>
<path d="M43.9138 81.142C43.1389 81.1908 37.3624 79.6848 40.0256 78.3003C40.2046 78.2981 43.7074 79.4802 43.9469 79.5995C44.8421 80.0455 44.7623 80.7126 43.9138 81.142Z" fill="url(#paint16_linear_54_2430)"/>
<path d="M51.2232 82.362C50.1867 82.3931 46.5812 82.3023 46.4664 81.1957C46.4246 80.7909 46.7141 80.5278 47.0281 80.3422C47.6718 80.3343 50.7973 80.6818 51.3134 80.7803C51.7851 80.8705 52.0701 82.0029 51.2232 82.362Z" fill="url(#paint17_linear_54_2430)"/>
<path d="M89.3248 86.7803C89.0331 86.6458 88.6941 86.5162 88.4926 86.2741C88.7538 85.4807 88.9525 84.136 89.5423 85.2615C90.6754 85.24 91.3597 85.5016 91.3794 86.7525C91.432 90.1065 88.959 91.1769 86.126 91.1757L83.9072 91.1733C83.7813 91.1446 83.6157 91.1284 83.4845 91.1109C84.2387 91.0863 86.1282 91.0018 86.7752 91.1733C85.8272 90.7636 82.2477 91.4556 82.4413 90.2763C82.8841 90.2931 82.812 90.0208 83.2302 89.8483C83.6992 89.6549 86.0642 89.9608 86.3413 89.7671L86.2621 89.7049C86.0364 89.7461 86.0035 89.7581 85.7959 89.6624C88.132 89.6249 89.5096 89.3964 89.792 86.7803C89.2626 86.7996 88.8566 86.8165 88.325 86.7803C88.6264 86.6635 89.0059 86.7307 89.3248 86.7803Z" fill="url(#paint18_linear_54_2430)"/>
<defs>
<linearGradient id="paint0_linear_54_2430" x1="12.7649" y1="34.9499" x2="57.3354" y2="34.9499" gradientUnits="userSpaceOnUse">
<stop stop-color="#C427E0"/>
<stop offset="0.471154" stop-color="#844AFF"/>
<stop offset="1" stop-color="#12A9FF"/>
</linearGradient>
<linearGradient id="paint1_linear_54_2430" x1="12.8322" y1="24.3868" x2="30.8238" y2="24.3868" gradientUnits="userSpaceOnUse">
<stop stop-color="#C427E0"/>
<stop offset="0.471154" stop-color="#844AFF"/>
<stop offset="1" stop-color="#12A9FF"/>
</linearGradient>
<linearGradient id="paint2_linear_54_2430" x1="26.3506" y1="19.1343" x2="34.0141" y2="19.1343" gradientUnits="userSpaceOnUse">
<stop stop-color="#C427E0"/>
<stop offset="0.471154" stop-color="#844AFF"/>
<stop offset="1" stop-color="#12A9FF"/>
</linearGradient>
<linearGradient id="paint3_linear_54_2430" x1="58.3936" y1="21.408" x2="63.591" y2="21.408" gradientUnits="userSpaceOnUse">
<stop stop-color="#C427E0"/>
<stop offset="0.471154" stop-color="#844AFF"/>
<stop offset="1" stop-color="#12A9FF"/>
</linearGradient>
<linearGradient id="paint4_linear_54_2430" x1="65.4012" y1="24.7464" x2="70.2191" y2="24.7464" gradientUnits="userSpaceOnUse">
<stop stop-color="#C427E0"/>
<stop offset="0.471154" stop-color="#844AFF"/>
<stop offset="1" stop-color="#12A9FF"/>
</linearGradient>
<linearGradient id="paint5_linear_54_2430" x1="71.8113" y1="29.343" x2="75.6967" y2="29.343" gradientUnits="userSpaceOnUse">
<stop stop-color="#C427E0"/>
<stop offset="0.471154" stop-color="#844AFF"/>
<stop offset="1" stop-color="#12A9FF"/>
</linearGradient>
<linearGradient id="paint6_linear_54_2430" x1="76.3665" y1="35.0442" x2="79.6257" y2="35.0442" gradientUnits="userSpaceOnUse">
<stop stop-color="#C427E0"/>
<stop offset="0.471154" stop-color="#844AFF"/>
<stop offset="1" stop-color="#12A9FF"/>
</linearGradient>
<linearGradient id="paint7_linear_54_2430" x1="79.7266" y1="41.4912" x2="82.2321" y2="41.4912" gradientUnits="userSpaceOnUse">
<stop stop-color="#C427E0"/>
<stop offset="0.471154" stop-color="#844AFF"/>
<stop offset="1" stop-color="#12A9FF"/>
</linearGradient>
<linearGradient id="paint8_linear_54_2430" x1="79.0341" y1="48.5654" x2="85.3068" y2="48.5654" gradientUnits="userSpaceOnUse">
<stop stop-color="#C427E0"/>
<stop offset="0.471154" stop-color="#844AFF"/>
<stop offset="1" stop-color="#12A9FF"/>
</linearGradient>
<linearGradient id="paint9_linear_54_2430" x1="54.4785" y1="72.814" x2="89.568" y2="72.814" gradientUnits="userSpaceOnUse">
<stop stop-color="#C427E0"/>
<stop offset="0.471154" stop-color="#844AFF"/>
<stop offset="1" stop-color="#12A9FF"/>
</linearGradient>
<linearGradient id="paint10_linear_54_2430" x1="19.1704" y1="60.5786" x2="25.559" y2="60.5786" gradientUnits="userSpaceOnUse">
<stop stop-color="#C427E0"/>
<stop offset="0.471154" stop-color="#844AFF"/>
<stop offset="1" stop-color="#12A9FF"/>
</linearGradient>
<linearGradient id="paint11_linear_54_2430" x1="23.3947" y1="67.4197" x2="26.8242" y2="67.4197" gradientUnits="userSpaceOnUse">
<stop stop-color="#C427E0"/>
<stop offset="0.471154" stop-color="#844AFF"/>
<stop offset="1" stop-color="#12A9FF"/>
</linearGradient>
<linearGradient id="paint12_linear_54_2430" x1="69.598" y1="75.622" x2="76.2947" y2="75.622" gradientUnits="userSpaceOnUse">
<stop stop-color="#C427E0"/>
<stop offset="0.471154" stop-color="#844AFF"/>
<stop offset="1" stop-color="#12A9FF"/>
</linearGradient>
<linearGradient id="paint13_linear_54_2430" x1="27.813" y1="72.7205" x2="31.769" y2="72.7205" gradientUnits="userSpaceOnUse">
<stop stop-color="#C427E0"/>
<stop offset="0.471154" stop-color="#844AFF"/>
<stop offset="1" stop-color="#12A9FF"/>
</linearGradient>
<linearGradient id="paint14_linear_54_2430" x1="45.0347" y1="72.8594" x2="49.7361" y2="72.8594" gradientUnits="userSpaceOnUse">
<stop stop-color="#C427E0"/>
<stop offset="0.471154" stop-color="#844AFF"/>
<stop offset="1" stop-color="#12A9FF"/>
</linearGradient>
<linearGradient id="paint15_linear_54_2430" x1="33.1216" y1="76.8496" x2="37.8476" y2="76.8496" gradientUnits="userSpaceOnUse">
<stop stop-color="#C427E0"/>
<stop offset="0.471154" stop-color="#844AFF"/>
<stop offset="1" stop-color="#12A9FF"/>
</linearGradient>
<linearGradient id="paint16_linear_54_2430" x1="39.329" y1="79.7217" x2="44.5849" y2="79.7217" gradientUnits="userSpaceOnUse">
<stop stop-color="#C427E0"/>
<stop offset="0.471154" stop-color="#844AFF"/>
<stop offset="1" stop-color="#12A9FF"/>
</linearGradient>
<linearGradient id="paint17_linear_54_2430" x1="46.4624" y1="81.3544" x2="51.7654" y2="81.3544" gradientUnits="userSpaceOnUse">
<stop stop-color="#C427E0"/>
<stop offset="0.471154" stop-color="#844AFF"/>
<stop offset="1" stop-color="#12A9FF"/>
</linearGradient>
<linearGradient id="paint18_linear_54_2430" x1="82.4337" y1="88.0031" x2="91.3802" y2="88.0031" gradientUnits="userSpaceOnUse">
<stop stop-color="#C427E0"/>
<stop offset="0.471154" stop-color="#844AFF"/>
<stop offset="1" stop-color="#12A9FF"/>
</linearGradient>
</defs>
</svg>
