<svg width="36" height="43" viewBox="0 0 36 43" fill="none" xmlns="http://www.w3.org/2000/svg">
<path d="M33.4286 3.5H2.56339C1.14911 3.5 0 4.66518 0 6.09554V36.9045C0 38.3348 1.14911 39.5 2.56339 39.5H33.4286C34.8429 39.5 36 38.3348 36 36.9045V6.09554C36 4.66518 34.8429 3.5 33.4286 3.5ZM10.8804 34.3571H5.54464V17.1768H10.8884V34.3571H10.8804ZM8.2125 14.8304C6.50089 14.8304 5.11875 13.4402 5.11875 11.7366C5.11875 10.033 6.50089 8.64286 8.2125 8.64286C9.91607 8.64286 11.3062 10.033 11.3062 11.7366C11.3062 13.4482 9.92411 14.8304 8.2125 14.8304ZM30.8812 34.3571H25.5455V26C25.5455 24.0071 25.5054 21.4438 22.7732 21.4438C19.9929 21.4438 19.567 23.6134 19.567 25.8554V34.3571H14.2313V17.1768H19.35V19.5232H19.4223C20.1375 18.1732 21.8813 16.7509 24.4768 16.7509C29.8768 16.7509 30.8812 20.3107 30.8812 24.9393V34.3571Z" fill="#0A66C2"/>
</svg>
