<svg width="191" height="266" viewBox="0 0 191 266" fill="none" xmlns="http://www.w3.org/2000/svg">
<path d="M95.7695 79.5616C95.7695 65.5396 95.7695 51.5176 95.7695 51.5176C110.276 51.5176 124.576 54.7404 137.501 60.9225C150.426 67.1047 161.609 76.0706 170.135 87.0873L121.798 120.055C118.813 116.199 114.899 113.061 110.376 110.897C105.852 108.734 100.847 107.606 95.7695 107.606C95.7695 107.606 95.7695 93.5836 95.7695 79.5616Z" fill="#8979FF"/>
<path d="M137.501 51.0407C124.576 44.8586 110.276 41.6357 95.7695 41.6357V51.5171C110.276 51.5171 124.576 54.74 137.501 60.9221V51.0407Z" fill="url(#paint0_linear_79_1939)"/>
<path d="M170.135 77.2058C161.609 66.1891 150.426 57.2232 137.501 51.041V60.9224C150.426 67.1046 161.609 76.0705 170.135 87.0871V77.2058Z" fill="url(#paint1_linear_79_1939)"/>
<path d="M121.797 110.174L170.135 77.2061V87.0874L121.797 120.055V110.174Z" fill="url(#paint2_linear_79_1939)"/>
<path d="M95.7695 97.7236C100.847 97.7236 105.852 98.8516 110.376 101.015V110.897C105.852 108.733 100.847 107.605 95.7695 107.605V97.7236Z" fill="url(#paint3_linear_79_1939)"/>
<path d="M110.375 101.016C114.899 103.179 118.813 106.317 121.798 110.173V120.055C118.813 116.199 114.899 113.061 110.375 110.897V101.016Z" fill="url(#paint4_linear_79_1939)"/>
<path d="M95.7693 41.6357C110.275 41.6357 124.576 44.8586 137.501 51.0407C150.426 57.2228 161.609 66.1888 170.135 77.2054L121.797 110.173C118.813 106.317 114.899 103.179 110.375 101.015C105.852 98.8517 100.846 97.7238 95.7693 97.7238L95.7693 41.6357Z" fill="#8979FF"/>
<path d="M170.135 87.0869C175.805 94.4124 180.211 102.53 183.192 111.142L126.367 128.474C125.324 125.46 123.782 122.619 121.798 120.055L170.135 87.0869Z" fill="#FF928A"/>
<path d="M183.192 101.26C180.211 92.6481 175.805 84.5306 170.135 77.2051V87.0865C175.805 94.412 180.211 102.53 183.192 111.141V101.26Z" fill="url(#paint5_linear_79_1939)"/>
<path d="M170.135 77.2051L121.798 110.173V120.054L170.135 87.0865V77.2051Z" fill="url(#paint6_linear_79_1939)"/>
<path d="M126.367 118.592L183.192 101.26V111.141L126.367 128.473V118.592Z" fill="url(#paint7_linear_79_1939)"/>
<path d="M121.798 110.173C123.782 112.737 125.324 115.578 126.367 118.592V128.473C125.324 125.459 123.782 122.618 121.798 120.054V110.173Z" fill="url(#paint8_linear_79_1939)"/>
<path d="M170.135 77.2054C175.805 84.5309 180.211 92.6485 183.192 101.26L126.367 118.592C125.324 115.578 123.782 112.737 121.797 110.173L170.135 77.2054Z" fill="#FF928A"/>
<path d="M183.192 111.142C186.173 119.753 187.691 128.752 187.691 137.806H127.942C127.942 134.637 127.411 131.488 126.367 128.474L183.192 111.142Z" fill="#3CC3DF"/>
<path d="M183.192 101.26L126.367 118.592V128.473L183.192 111.141V101.26Z" fill="url(#paint9_linear_79_1939)"/>
<path d="M187.691 127.925C187.691 118.87 186.172 109.871 183.192 101.26V111.141C186.172 119.753 187.691 128.751 187.691 137.806V127.925Z" fill="url(#paint10_linear_79_1939)"/>
<path d="M126.367 118.593C127.411 121.607 127.943 124.756 127.943 127.925V137.807C127.943 134.638 127.411 131.488 126.367 128.474V118.593Z" fill="url(#paint11_linear_79_1939)"/>
<path d="M127.942 127.926H187.691V137.807H127.942V127.926Z" fill="url(#paint12_linear_79_1939)"/>
<path d="M183.192 101.26C186.172 109.872 187.691 118.87 187.691 127.925H127.942C127.942 124.756 127.41 121.606 126.367 118.592L183.192 101.26Z" fill="#3CC3DF"/>
<path d="M187.691 137.807C187.691 151.424 184.258 164.848 177.672 176.981C171.086 189.114 161.535 199.612 149.8 207.616L114.68 162.24C118.788 159.439 122.131 155.764 124.436 151.518C126.741 147.271 127.942 142.573 127.942 137.807H187.691Z" fill="#FFAE4C"/>
<path d="M187.691 127.926H127.942V137.807H187.691V127.926Z" fill="url(#paint13_linear_79_1939)"/>
<path d="M127.942 127.926C127.942 132.692 126.741 137.39 124.436 141.637V151.518C126.741 147.272 127.942 142.573 127.942 137.807V127.926Z" fill="url(#paint14_linear_79_1939)"/>
<path d="M124.436 141.637C122.131 145.883 118.788 149.558 114.68 152.359V162.24C118.788 159.439 122.131 155.765 124.436 151.518V141.637Z" fill="url(#paint15_linear_79_1939)"/>
<path d="M177.672 167.1C184.258 154.967 187.691 141.543 187.691 127.926V137.807C187.691 151.425 184.258 164.849 177.672 176.982V167.1Z" fill="url(#paint16_linear_79_1939)"/>
<path d="M114.68 152.358L149.8 197.735V207.616L114.68 162.24V152.358Z" fill="url(#paint17_linear_79_1939)"/>
<path d="M149.8 197.735C161.536 189.731 171.087 179.233 177.672 167.1V176.981C171.087 189.114 161.536 199.612 149.8 207.616V197.735Z" fill="url(#paint18_linear_79_1939)"/>
<path d="M187.691 127.925C187.691 141.542 184.257 154.966 177.672 167.099C171.086 179.233 161.535 189.73 149.799 197.734L114.68 152.358C118.787 149.557 122.13 145.883 124.435 141.636C126.74 137.389 127.942 132.691 127.942 127.925H187.691Z" fill="#FFAE4C"/>
<path d="M149.799 207.616C138.064 215.62 124.477 220.904 110.149 223.034C95.8215 225.164 81.1603 224.081 67.3642 219.873C53.568 215.665 41.0286 208.451 30.7713 198.823C20.5139 189.194 12.8297 177.423 8.3471 164.472C5.35884 155.838 3.84988 146.844 3.84815 137.822C3.84728 133.311 4.22335 128.792 4.97986 124.308C7.24912 110.859 12.8771 98.1039 21.4035 87.0873C29.93 76.0706 41.113 67.1047 54.038 60.9225C66.9631 54.7404 81.2632 51.5176 95.7694 51.5176C95.7694 51.5176 95.7694 65.5396 95.7694 79.5616C95.7694 93.5836 95.7694 107.606 95.7694 107.606C90.6922 107.606 85.6872 108.734 81.1634 110.897C76.6396 113.061 72.7256 116.199 69.7413 120.055C66.7571 123.911 64.7873 128.375 63.993 133.082C63.7289 134.648 63.5973 136.226 63.5969 137.801C63.5963 140.963 64.1245 144.114 65.1716 147.14C66.7405 151.672 69.43 155.792 73.02 159.162C76.6101 162.532 80.9989 165.057 85.8275 166.53C90.6562 168.003 95.7876 168.382 100.802 167.636C105.817 166.891 110.572 165.042 114.68 162.24L149.799 207.616Z" fill="#537FF1"/>
<path d="M95.7694 41.6357C81.2633 41.6357 66.9631 44.8586 54.0381 51.0407V60.9221C66.9631 54.74 81.2633 51.5171 95.7694 51.5171V41.6357Z" fill="url(#paint19_linear_79_1939)"/>
<path d="M54.038 51.041C41.113 57.2232 29.93 66.1891 21.4036 77.2058V87.0871C29.93 76.0705 41.113 67.1046 54.038 60.9224V51.041Z" fill="url(#paint20_linear_79_1939)"/>
<path d="M21.4037 77.2061C12.8772 88.2227 7.24924 100.977 4.97998 114.427V124.308C7.24924 110.859 12.8772 98.1041 21.4037 87.0874V77.2061Z" fill="url(#paint21_linear_79_1939)"/>
<path d="M81.1633 101.015C85.6871 98.8516 90.6922 97.7236 95.7693 97.7236V107.605C90.6922 107.605 85.6871 108.733 81.1633 110.897V101.015Z" fill="url(#paint22_linear_79_1939)"/>
<path d="M69.7415 110.173C72.7257 106.317 76.6397 103.179 81.1635 101.016V110.897C76.6397 113.061 72.7257 116.199 69.7415 120.055V110.173Z" fill="url(#paint23_linear_79_1939)"/>
<path d="M63.9932 123.2C64.7874 118.493 66.7572 114.029 69.7415 110.173V120.054C66.7572 123.91 64.7874 128.374 63.9932 133.082V123.2Z" fill="url(#paint24_linear_79_1939)"/>
<path d="M4.98029 114.427C4.2235 118.91 3.84728 123.429 3.84814 127.941V137.791C3.84901 133.29 4.22523 128.782 4.98029 124.308V114.427Z" fill="url(#paint25_linear_79_1939)"/>
<path d="M63.5969 127.92C63.5972 126.345 63.7289 124.767 63.9932 123.201V133.083C63.7289 134.648 63.5972 136.226 63.5969 137.801V127.92Z" fill="url(#paint26_linear_79_1939)"/>
<path d="M63.5969 127.931C63.5969 127.927 63.5969 127.924 63.5969 127.92V127.931C63.5975 131.089 64.1259 134.237 65.1722 137.258V147.14C64.1247 144.114 63.5963 140.963 63.5969 137.801V127.931Z" fill="url(#paint27_linear_79_1939)"/>
<path d="M63.5969 127.92C63.5969 127.924 63.5969 127.927 63.5969 127.931V127.92Z" fill="url(#paint28_linear_79_1939)"/>
<path d="M3.84814 127.94C3.84987 136.962 5.35884 145.957 8.3471 154.59V164.471C5.35884 155.838 3.84987 146.844 3.84814 137.822V127.94Z" fill="url(#paint29_linear_79_1939)"/>
<path d="M73.0201 149.281C69.43 145.91 66.7406 141.791 65.1716 137.258V147.139C66.7406 151.672 69.43 155.792 73.0201 159.162V149.281Z" fill="url(#paint30_linear_79_1939)"/>
<path d="M85.8275 156.649C80.9989 155.176 76.6101 152.651 73.02 149.281V159.163C76.6101 162.533 80.9989 165.057 85.8275 166.53V156.649Z" fill="url(#paint31_linear_79_1939)"/>
<path d="M114.68 152.358C110.572 155.16 105.817 157.009 100.802 157.754V167.636C105.817 166.89 110.572 165.041 114.68 162.24V152.358Z" fill="url(#paint32_linear_79_1939)"/>
<path d="M100.802 157.755C95.7877 158.5 90.6563 158.121 85.8276 156.648V166.53C90.6563 168.003 95.7877 168.382 100.802 167.636V157.755Z" fill="url(#paint33_linear_79_1939)"/>
<path d="M8.34717 154.59C12.8298 167.541 20.5139 179.312 30.7713 188.941V198.822C20.5139 189.193 12.8298 177.422 8.34717 164.471V154.59Z" fill="url(#paint34_linear_79_1939)"/>
<path d="M149.799 197.735L114.68 152.358V162.24L149.799 207.616V197.735Z" fill="url(#paint35_linear_79_1939)"/>
<path d="M30.7715 188.941C41.0289 198.57 53.5682 205.784 67.3644 209.992V219.873C53.5682 215.665 41.0289 208.452 30.7715 198.823V188.941Z" fill="url(#paint36_linear_79_1939)"/>
<path d="M110.149 213.153C124.477 211.023 138.064 205.739 149.799 197.735V207.617C138.064 215.621 124.477 220.904 110.149 223.034V213.153Z" fill="url(#paint37_linear_79_1939)"/>
<path d="M67.3643 209.991C81.1604 214.199 95.8216 215.282 110.149 213.152V223.034C95.8216 225.164 81.1604 224.081 67.3643 219.873V209.991Z" fill="url(#paint38_linear_79_1939)"/>
<path d="M149.799 197.734C138.064 205.739 124.477 211.022 110.149 213.152C95.8215 215.282 81.1603 214.199 67.3641 209.991C53.568 205.783 41.0286 198.57 30.7712 188.941C20.5139 179.312 12.8297 167.541 8.34709 154.59C3.86445 141.639 2.71059 127.876 4.97985 114.426C7.2491 100.977 12.877 88.2221 21.4035 77.2054C29.93 66.1888 41.1129 57.2228 54.038 51.0407C66.963 44.8586 81.2632 41.6357 95.7693 41.6357V97.7238C90.6922 97.7238 85.6871 98.8517 81.1634 101.015C76.6396 103.179 72.7256 106.317 69.7413 110.173C66.757 114.029 64.7873 118.493 63.993 123.2C63.1988 127.908 63.6026 132.725 65.1716 137.258C66.7405 141.79 69.4299 145.91 73.02 149.28C76.6101 152.651 80.9989 155.175 85.8275 156.648C90.6562 158.121 95.7876 158.5 100.802 157.754C105.817 157.009 110.572 155.16 114.68 152.358L149.799 197.734Z" fill="#537FF1"/>
<defs>
<linearGradient id="paint0_linear_79_1939" x1="137.501" y1="51.2789" x2="95.7695" y2="51.2789" gradientUnits="userSpaceOnUse">
<stop stop-color="#4828FF"/>
<stop offset="0.5" stop-color="#5B42FF"/>
<stop offset="1" stop-color="#6D5AFF"/>
</linearGradient>
<linearGradient id="paint1_linear_79_1939" x1="170.135" y1="69.0641" x2="137.501" y2="69.0641" gradientUnits="userSpaceOnUse">
<stop stop-color="#2C00E9"/>
<stop offset="0.5" stop-color="#340CFF"/>
<stop offset="1" stop-color="#4828FF"/>
</linearGradient>
<linearGradient id="paint2_linear_79_1939" x1="170.135" y1="98.6306" x2="121.797" y2="98.6306" gradientUnits="userSpaceOnUse">
<stop stop-color="#AF9FFF"/>
<stop offset="1" stop-color="#AF9FFF"/>
</linearGradient>
<linearGradient id="paint3_linear_79_1939" x1="110.376" y1="104.31" x2="95.7695" y2="104.31" gradientUnits="userSpaceOnUse">
<stop stop-color="#4828FF"/>
<stop offset="0.5" stop-color="#5B42FF"/>
<stop offset="1" stop-color="#6D5AFF"/>
</linearGradient>
<linearGradient id="paint4_linear_79_1939" x1="121.798" y1="110.535" x2="110.375" y2="110.535" gradientUnits="userSpaceOnUse">
<stop stop-color="#2C00E9"/>
<stop offset="0.5" stop-color="#340CFF"/>
<stop offset="1" stop-color="#4828FF"/>
</linearGradient>
<linearGradient id="paint5_linear_79_1939" x1="183.192" y1="94.1731" x2="170.135" y2="94.1731" gradientUnits="userSpaceOnUse">
<stop stop-color="#FF302B"/>
<stop offset="0.5" stop-color="#FF100E"/>
<stop offset="1" stop-color="#F90002"/>
</linearGradient>
<linearGradient id="paint6_linear_79_1939" x1="170.135" y1="98.6296" x2="121.798" y2="98.6296" gradientUnits="userSpaceOnUse">
<stop stop-color="#FFB1AF"/>
<stop offset="1" stop-color="#FFB1AF"/>
</linearGradient>
<linearGradient id="paint7_linear_79_1939" x1="183.192" y1="114.867" x2="126.367" y2="114.867" gradientUnits="userSpaceOnUse">
<stop stop-color="#FF908B"/>
<stop offset="1" stop-color="#FF908B"/>
</linearGradient>
<linearGradient id="paint8_linear_79_1939" x1="126.367" y1="119.323" x2="121.798" y2="119.323" gradientUnits="userSpaceOnUse">
<stop stop-color="#FF302B"/>
<stop offset="0.5" stop-color="#FF100E"/>
<stop offset="1" stop-color="#F90002"/>
</linearGradient>
<linearGradient id="paint9_linear_79_1939" x1="183.192" y1="114.867" x2="126.367" y2="114.867" gradientUnits="userSpaceOnUse">
<stop stop-color="#36BFDE"/>
<stop offset="1" stop-color="#36BFDE"/>
</linearGradient>
<linearGradient id="paint10_linear_79_1939" x1="187.691" y1="119.533" x2="183.192" y2="119.533" gradientUnits="userSpaceOnUse">
<stop stop-color="#22B4D1"/>
<stop offset="0.5" stop-color="#1E99B5"/>
<stop offset="1" stop-color="#19809B"/>
</linearGradient>
<linearGradient id="paint11_linear_79_1939" x1="127.943" y1="128.2" x2="126.367" y2="128.2" gradientUnits="userSpaceOnUse">
<stop stop-color="#22B4D1"/>
<stop offset="1" stop-color="#19809B"/>
</linearGradient>
<linearGradient id="paint12_linear_79_1939" x1="187.691" y1="132.866" x2="127.942" y2="132.866" gradientUnits="userSpaceOnUse">
<stop stop-color="#22B4D1"/>
<stop offset="1" stop-color="#22B4D1"/>
</linearGradient>
<linearGradient id="paint13_linear_79_1939" x1="187.691" y1="132.866" x2="127.942" y2="132.866" gradientUnits="userSpaceOnUse">
<stop stop-color="#FF9F2A"/>
<stop offset="1" stop-color="#FF9F2A"/>
</linearGradient>
<linearGradient id="paint14_linear_79_1939" x1="127.942" y1="139.722" x2="124.436" y2="139.722" gradientUnits="userSpaceOnUse">
<stop stop-color="#FF9F2A"/>
<stop offset="1" stop-color="#FFC186"/>
</linearGradient>
<linearGradient id="paint15_linear_79_1939" x1="124.436" y1="151.939" x2="114.68" y2="151.939" gradientUnits="userSpaceOnUse">
<stop stop-color="#FFC186"/>
<stop offset="0.5" stop-color="#FFC58E"/>
<stop offset="1" stop-color="#FFB86F"/>
</linearGradient>
<linearGradient id="paint16_linear_79_1939" x1="187.691" y1="152.454" x2="177.672" y2="152.454" gradientUnits="userSpaceOnUse">
<stop stop-color="#FF9F2A"/>
<stop offset="1" stop-color="#FFC186"/>
</linearGradient>
<linearGradient id="paint17_linear_79_1939" x1="149.8" y1="179.987" x2="114.68" y2="179.987" gradientUnits="userSpaceOnUse">
<stop stop-color="#B95800"/>
<stop offset="1" stop-color="#B95800"/>
</linearGradient>
<linearGradient id="paint18_linear_79_1939" x1="177.672" y1="187.358" x2="149.8" y2="187.358" gradientUnits="userSpaceOnUse">
<stop stop-color="#FFC186"/>
<stop offset="0.5" stop-color="#FFC58E"/>
<stop offset="1" stop-color="#FFB86F"/>
</linearGradient>
<linearGradient id="paint19_linear_79_1939" x1="95.7694" y1="51.2789" x2="54.0381" y2="51.2789" gradientUnits="userSpaceOnUse">
<stop stop-color="#356AEF"/>
<stop offset="0.5" stop-color="#4C78F0"/>
<stop offset="1" stop-color="#6387F2"/>
</linearGradient>
<linearGradient id="paint20_linear_79_1939" x1="54.038" y1="69.0641" x2="21.4036" y2="69.0641" gradientUnits="userSpaceOnUse">
<stop stop-color="#6387F2"/>
<stop offset="0.5" stop-color="#7E99F5"/>
<stop offset="1" stop-color="#9DB0F7"/>
</linearGradient>
<linearGradient id="paint21_linear_79_1939" x1="21.4037" y1="100.757" x2="4.97998" y2="100.757" gradientUnits="userSpaceOnUse">
<stop stop-color="#9DB0F7"/>
<stop offset="0.5" stop-color="#7D99F4"/>
<stop offset="1" stop-color="#537DF1"/>
</linearGradient>
<linearGradient id="paint22_linear_79_1939" x1="95.7693" y1="104.31" x2="81.1633" y2="104.31" gradientUnits="userSpaceOnUse">
<stop stop-color="#356AEF"/>
<stop offset="0.5" stop-color="#4C78F0"/>
<stop offset="1" stop-color="#6387F2"/>
</linearGradient>
<linearGradient id="paint23_linear_79_1939" x1="81.1635" y1="110.535" x2="69.7415" y2="110.535" gradientUnits="userSpaceOnUse">
<stop stop-color="#6387F2"/>
<stop offset="0.5" stop-color="#7E99F5"/>
<stop offset="1" stop-color="#9DB0F7"/>
</linearGradient>
<linearGradient id="paint24_linear_79_1939" x1="69.7415" y1="121.627" x2="63.9932" y2="121.627" gradientUnits="userSpaceOnUse">
<stop stop-color="#9DB0F7"/>
<stop offset="0.5" stop-color="#7D99F4"/>
<stop offset="1" stop-color="#537DF1"/>
</linearGradient>
<linearGradient id="paint25_linear_79_1939" x1="4.98029" y1="126.124" x2="3.84814" y2="126.124" gradientUnits="userSpaceOnUse">
<stop stop-color="#537DF1"/>
<stop offset="0.5" stop-color="#4473F0"/>
<stop offset="1" stop-color="#356AEF"/>
</linearGradient>
<linearGradient id="paint26_linear_79_1939" x1="63.9932" y1="130.501" x2="63.5969" y2="130.501" gradientUnits="userSpaceOnUse">
<stop stop-color="#537DF1"/>
<stop offset="0.5" stop-color="#4473F0"/>
<stop offset="1" stop-color="#356AEF"/>
</linearGradient>
<linearGradient id="paint27_linear_79_1939" x1="65.1722" y1="137.53" x2="63.5969" y2="137.53" gradientUnits="userSpaceOnUse">
<stop stop-color="#1140D3"/>
<stop offset="0.5" stop-color="#174FEC"/>
<stop offset="1" stop-color="#356AEF"/>
</linearGradient>
<linearGradient id="paint28_linear_79_1939" x1="65.1722" y1="137.53" x2="63.5969" y2="137.53" gradientUnits="userSpaceOnUse">
<stop stop-color="#1140D3"/>
<stop offset="0.5" stop-color="#174FEC"/>
<stop offset="1" stop-color="#356AEF"/>
</linearGradient>
<linearGradient id="paint29_linear_79_1939" x1="8.3471" y1="146.206" x2="3.84814" y2="146.206" gradientUnits="userSpaceOnUse">
<stop stop-color="#1140D3"/>
<stop offset="0.5" stop-color="#174FEC"/>
<stop offset="1" stop-color="#356AEF"/>
</linearGradient>
<linearGradient id="paint30_linear_79_1939" x1="73.0201" y1="148.21" x2="65.1716" y2="148.21" gradientUnits="userSpaceOnUse">
<stop stop-color="#0F36BB"/>
<stop offset="0.5" stop-color="#0E30AD"/>
<stop offset="1" stop-color="#1140D3"/>
</linearGradient>
<linearGradient id="paint31_linear_79_1939" x1="85.8275" y1="157.906" x2="73.02" y2="157.906" gradientUnits="userSpaceOnUse">
<stop stop-color="#174FEC"/>
<stop offset="0.5" stop-color="#1142D7"/>
<stop offset="1" stop-color="#0F36BB"/>
</linearGradient>
<linearGradient id="paint32_linear_79_1939" x1="114.68" y1="159.997" x2="100.802" y2="159.997" gradientUnits="userSpaceOnUse">
<stop stop-color="#7593F4"/>
<stop offset="0.5" stop-color="#5B82F2"/>
<stop offset="1" stop-color="#4473F0"/>
</linearGradient>
<linearGradient id="paint33_linear_79_1939" x1="100.802" y1="162.328" x2="85.8276" y2="162.328" gradientUnits="userSpaceOnUse">
<stop stop-color="#4473F0"/>
<stop offset="0.5" stop-color="#2E63EE"/>
<stop offset="1" stop-color="#174FEC"/>
</linearGradient>
<linearGradient id="paint34_linear_79_1939" x1="30.7713" y1="176.706" x2="8.34717" y2="176.706" gradientUnits="userSpaceOnUse">
<stop stop-color="#0F36BB"/>
<stop offset="0.5" stop-color="#0E30AD"/>
<stop offset="1" stop-color="#1140D3"/>
</linearGradient>
<linearGradient id="paint35_linear_79_1939" x1="149.799" y1="179.987" x2="114.68" y2="179.987" gradientUnits="userSpaceOnUse">
<stop stop-color="#0D2EA6"/>
<stop offset="1" stop-color="#0D2EA6"/>
</linearGradient>
<linearGradient id="paint36_linear_79_1939" x1="67.3644" y1="204.407" x2="30.7715" y2="204.407" gradientUnits="userSpaceOnUse">
<stop stop-color="#174FEC"/>
<stop offset="0.5" stop-color="#1142D7"/>
<stop offset="1" stop-color="#0F36BB"/>
</linearGradient>
<linearGradient id="paint37_linear_79_1939" x1="149.799" y1="210.385" x2="110.149" y2="210.385" gradientUnits="userSpaceOnUse">
<stop stop-color="#7593F4"/>
<stop offset="0.5" stop-color="#5B82F2"/>
<stop offset="1" stop-color="#4473F0"/>
</linearGradient>
<linearGradient id="paint38_linear_79_1939" x1="110.149" y1="217.044" x2="67.3643" y2="217.044" gradientUnits="userSpaceOnUse">
<stop stop-color="#4473F0"/>
<stop offset="0.5" stop-color="#2E63EE"/>
<stop offset="1" stop-color="#174FEC"/>
</linearGradient>
</defs>
</svg>
