<svg width="394" height="52" viewBox="0 0 394 52" fill="none" xmlns="http://www.w3.org/2000/svg">
<rect width="394" height="52" rx="8" fill="#3390EC"/>
<path d="M160.629 16.0145L156.34 36.2401C156.017 37.6675 155.173 38.0228 153.974 37.3503L147.439 32.535L144.286 35.5676C143.937 35.9165 143.645 36.2084 142.973 36.2084L143.442 29.5532L155.553 18.6093C156.08 18.1398 155.439 17.8797 154.735 18.3492L139.763 27.7768L133.317 25.7593C131.915 25.3216 131.889 24.3572 133.609 23.6847L158.821 13.9717C159.988 13.5339 161.01 14.2318 160.629 16.0145Z" fill="white"/>
<path d="M173.537 20.6634V18.4545H185.142V20.6634H180.646V33H178.033V20.6634H173.537ZM190.513 33.2131C189.419 33.2131 188.475 32.9858 187.679 32.5312C186.889 32.072 186.28 31.4233 185.854 30.5852C185.428 29.7424 185.215 28.7505 185.215 27.6094C185.215 26.4872 185.428 25.5024 185.854 24.6548C186.285 23.8026 186.886 23.1397 187.658 22.6662C188.43 22.188 189.337 21.9489 190.378 21.9489C191.051 21.9489 191.685 22.0578 192.282 22.2756C192.883 22.4886 193.413 22.8201 193.872 23.2699C194.337 23.7197 194.701 24.2926 194.966 24.9886C195.231 25.6799 195.364 26.5038 195.364 27.4602V28.2486H186.422V26.5156H192.899C192.895 26.0232 192.788 25.5852 192.58 25.2017C192.372 24.8134 192.08 24.508 191.706 24.2855C191.337 24.063 190.906 23.9517 190.414 23.9517C189.888 23.9517 189.426 24.0795 189.029 24.3352C188.631 24.5862 188.321 24.9176 188.098 25.3295C187.881 25.7367 187.769 26.1842 187.765 26.6719V28.1847C187.765 28.8191 187.881 29.3636 188.113 29.8182C188.345 30.268 188.669 30.6136 189.086 30.8551C189.502 31.0919 189.99 31.2102 190.549 31.2102C190.923 31.2102 191.261 31.1581 191.564 31.054C191.867 30.9451 192.13 30.7865 192.353 30.5781C192.575 30.3698 192.743 30.1117 192.857 29.804L195.257 30.0739C195.106 30.7083 194.817 31.2623 194.391 31.7358C193.97 32.2045 193.43 32.5691 192.772 32.8295C192.113 33.0852 191.361 33.2131 190.513 33.2131ZM200.11 18.4545V33H197.539V18.4545H200.11ZM207.583 33.2131C206.49 33.2131 205.545 32.9858 204.75 32.5312C203.959 32.072 203.35 31.4233 202.924 30.5852C202.498 29.7424 202.285 28.7505 202.285 27.6094C202.285 26.4872 202.498 25.5024 202.924 24.6548C203.355 23.8026 203.957 23.1397 204.728 22.6662C205.5 22.188 206.407 21.9489 207.448 21.9489C208.121 21.9489 208.755 22.0578 209.352 22.2756C209.953 22.4886 210.484 22.8201 210.943 23.2699C211.407 23.7197 211.771 24.2926 212.037 24.9886C212.302 25.6799 212.434 26.5038 212.434 27.4602V28.2486H203.493V26.5156H209.97C209.965 26.0232 209.859 25.5852 209.65 25.2017C209.442 24.8134 209.151 24.508 208.777 24.2855C208.407 24.063 207.976 23.9517 207.484 23.9517C206.958 23.9517 206.497 24.0795 206.099 24.3352C205.701 24.5862 205.391 24.9176 205.169 25.3295C204.951 25.7367 204.84 26.1842 204.835 26.6719V28.1847C204.835 28.8191 204.951 29.3636 205.183 29.8182C205.415 30.268 205.739 30.6136 206.156 30.8551C206.573 31.0919 207.06 31.2102 207.619 31.2102C207.993 31.2102 208.332 31.1581 208.635 31.054C208.938 30.9451 209.2 30.7865 209.423 30.5781C209.645 30.3698 209.814 30.1117 209.927 29.804L212.328 30.0739C212.176 30.7083 211.887 31.2623 211.461 31.7358C211.04 32.2045 210.5 32.5691 209.842 32.8295C209.184 33.0852 208.431 33.2131 207.583 33.2131ZM219.354 37.3182C218.43 37.3182 217.637 37.1927 216.974 36.9418C216.312 36.6955 215.779 36.3641 215.376 35.9474C214.974 35.5308 214.695 35.0691 214.538 34.5625L216.854 34.0014C216.958 34.2145 217.109 34.4252 217.308 34.6335C217.507 34.8466 217.775 35.0218 218.111 35.1591C218.452 35.3011 218.88 35.3722 219.396 35.3722C220.125 35.3722 220.729 35.1946 221.207 34.8395C221.686 34.4891 221.925 33.9115 221.925 33.1065V31.0398H221.797C221.664 31.3049 221.47 31.5772 221.214 31.8565C220.964 32.1359 220.63 32.3703 220.213 32.5597C219.801 32.7491 219.283 32.8438 218.658 32.8438C217.82 32.8438 217.06 32.6473 216.378 32.2543C215.701 31.8565 215.161 31.2647 214.759 30.4787C214.361 29.688 214.162 28.6984 214.162 27.5099C214.162 26.312 214.361 25.3011 214.759 24.4773C215.161 23.6487 215.703 23.0213 216.385 22.5952C217.067 22.1643 217.827 21.9489 218.665 21.9489C219.304 21.9489 219.83 22.0578 220.241 22.2756C220.658 22.4886 220.99 22.7467 221.236 23.0497C221.482 23.348 221.669 23.6297 221.797 23.8949H221.939V22.0909H224.474V33.1776C224.474 34.1103 224.252 34.8821 223.807 35.4929C223.362 36.1037 222.753 36.5606 221.982 36.8636C221.21 37.1667 220.334 37.3182 219.354 37.3182ZM219.375 30.8267C219.919 30.8267 220.384 30.6941 220.767 30.429C221.151 30.1638 221.442 29.7827 221.641 29.2855C221.839 28.7884 221.939 28.1918 221.939 27.4957C221.939 26.8092 221.839 26.2079 221.641 25.6918C221.446 25.1757 221.158 24.7756 220.774 24.4915C220.395 24.2027 219.929 24.0582 219.375 24.0582C218.802 24.0582 218.324 24.2074 217.94 24.5057C217.557 24.804 217.268 25.2135 217.074 25.7344C216.88 26.2505 216.783 26.8376 216.783 27.4957C216.783 28.1634 216.88 28.7481 217.074 29.25C217.273 29.7472 217.564 30.1354 217.947 30.4148C218.336 30.6894 218.812 30.8267 219.375 30.8267ZM227.109 33V22.0909H229.602V23.9091H229.716C229.915 23.2794 230.256 22.794 230.739 22.4531C231.226 22.1075 231.783 21.9347 232.408 21.9347C232.55 21.9347 232.708 21.9418 232.884 21.956C233.063 21.9654 233.213 21.982 233.331 22.0057V24.3707C233.222 24.3329 233.049 24.2997 232.812 24.2713C232.58 24.2382 232.356 24.2216 232.138 24.2216C231.669 24.2216 231.248 24.3234 230.874 24.527C230.504 24.7259 230.213 25.0028 230 25.358C229.787 25.7131 229.68 26.1226 229.68 26.5866V33H227.109ZM237.983 33.2202C237.292 33.2202 236.669 33.0971 236.115 32.8509C235.566 32.5999 235.13 32.2306 234.808 31.7429C234.491 31.2552 234.332 30.6539 234.332 29.9389C234.332 29.3234 234.446 28.8144 234.673 28.4119C234.901 28.0095 235.211 27.6875 235.604 27.446C235.997 27.2045 236.439 27.0223 236.932 26.8991C237.429 26.7713 237.943 26.679 238.473 26.6222C239.112 26.5559 239.631 26.4967 240.028 26.4446C240.426 26.3878 240.715 26.3026 240.895 26.1889C241.08 26.0705 241.172 25.8883 241.172 25.642V25.5994C241.172 25.0644 241.013 24.6501 240.696 24.3565C240.379 24.063 239.922 23.9162 239.325 23.9162C238.696 23.9162 238.196 24.0535 237.827 24.3281C237.462 24.6027 237.216 24.9271 237.088 25.3011L234.687 24.9602C234.877 24.2973 235.189 23.7434 235.625 23.2983C236.061 22.8485 236.593 22.5123 237.223 22.2898C237.853 22.0625 238.549 21.9489 239.311 21.9489C239.837 21.9489 240.36 22.0104 240.881 22.1335C241.401 22.2566 241.877 22.4602 242.308 22.7443C242.739 23.0237 243.085 23.4048 243.345 23.8878C243.61 24.3707 243.743 24.9744 243.743 25.6989V33H241.271V31.5014H241.186C241.03 31.8045 240.81 32.0885 240.526 32.3537C240.246 32.6141 239.893 32.8248 239.467 32.9858C239.046 33.142 238.551 33.2202 237.983 33.2202ZM238.651 31.331C239.167 31.331 239.614 31.2292 239.993 31.0256C240.372 30.8172 240.663 30.5426 240.866 30.2017C241.075 29.8608 241.179 29.4891 241.179 29.0866V27.8011C241.098 27.8674 240.961 27.929 240.767 27.9858C240.578 28.0426 240.365 28.0923 240.128 28.1349C239.891 28.1776 239.657 28.2154 239.425 28.2486C239.193 28.2817 238.991 28.3101 238.821 28.3338C238.437 28.3859 238.094 28.4711 237.791 28.5895C237.488 28.7079 237.249 28.8736 237.074 29.0866C236.899 29.295 236.811 29.5649 236.811 29.8963C236.811 30.3698 236.984 30.7273 237.33 30.9688C237.675 31.2102 238.116 31.331 238.651 31.331ZM246.328 33V22.0909H248.785V23.9446H248.913C249.141 23.3196 249.517 22.8319 250.043 22.4815C250.568 22.1264 251.196 21.9489 251.925 21.9489C252.663 21.9489 253.286 22.1288 253.793 22.4886C254.304 22.8437 254.664 23.3291 254.872 23.9446H254.986C255.227 23.3385 255.634 22.8556 256.207 22.4957C256.785 22.1312 257.469 21.9489 258.26 21.9489C259.264 21.9489 260.083 22.2661 260.717 22.9006C261.352 23.535 261.669 24.4607 261.669 25.6776V33H259.091V26.0753C259.091 25.3982 258.911 24.9034 258.551 24.5909C258.191 24.2737 257.751 24.1151 257.23 24.1151C256.61 24.1151 256.125 24.3092 255.774 24.6974C255.428 25.081 255.256 25.5805 255.256 26.196V33H252.734V25.9688C252.734 25.4053 252.564 24.9555 252.223 24.6193C251.887 24.2831 251.446 24.1151 250.902 24.1151C250.533 24.1151 250.196 24.2098 249.893 24.3991C249.59 24.5838 249.349 24.8466 249.169 25.1875C248.989 25.5237 248.899 25.9167 248.899 26.3665V33H246.328Z" fill="#E0E0E0"/>
</svg>
