<svg width="104" height="104" viewBox="0 0 104 104" fill="none" xmlns="http://www.w3.org/2000/svg">
<path d="M33.593 50.8707C23.1457 51.5194 14.1485 43.5805 13.4918 33.1336C12.835 22.6867 20.7671 13.6834 31.2136 13.0187C41.6713 12.3532 50.6864 20.2958 51.3439 30.754C52.0012 41.2123 44.0517 50.2213 33.593 50.8707ZM31.471 14.4856C21.8363 14.9945 14.4363 23.2134 14.9374 32.8484C15.4385 42.4832 23.6513 49.89 33.2867 49.3968C42.9331 48.903 50.3502 40.6787 49.8487 31.0327C49.347 21.3867 41.1166 13.9761 31.471 14.4856Z" fill="url(#paint0_linear_54_2272)"/>
<path d="M31.7379 21.7596C31.6633 20.9183 31.41 19.5088 32.3038 19.0496C33.7238 18.9644 33.3149 20.7952 33.3074 21.7596C38.4879 22.7827 38.7735 29.6427 36.8621 28.7292C36.0902 28.3604 36.504 27.4863 36.4262 26.8211C36.1337 24.1872 33.515 22.5095 30.9839 23.4689C27.3163 24.8587 27.9429 30.3725 31.8102 30.9142C32.9733 30.9705 33.7417 30.8541 34.8416 31.3648C37.4717 32.5854 38.5791 35.7714 37.337 38.3941C36.4965 40.1688 35.0823 40.7991 33.3074 41.4371C33.3239 42.0989 33.4931 43.1306 32.9897 43.5773C31.4994 44.3087 31.7249 42.2533 31.7379 41.4371C29.5202 40.9825 27.6417 39.3636 27.1631 37.0695C27.001 36.2928 27.0489 33.8673 28.2906 34.9057C28.6904 35.2443 28.4798 36.0381 28.5523 36.5187C29.312 41.5521 36.8018 40.6718 36.3407 35.6779C36.1225 33.3142 34.1415 32.3463 32.0334 32.3304C25.7359 32.2831 25.3017 22.4177 31.7379 21.7596Z" fill="url(#paint1_linear_54_2272)"/>
<path d="M70.5157 22.9146C70.0649 22.8786 68.7901 22.4313 68.3262 22.2761C67.2275 21.9087 65.5099 22.2631 64.8682 21.28C64.6234 20.9048 63.9797 21.5191 63.9728 21.8012C63.4069 23.5018 69.5271 23.2548 69.6879 24.0675C69.5531 24.0584 68.9033 23.8485 68.7328 23.775C67.5663 23.2727 65.4666 23.3659 64.4325 22.9146C63.9882 22.4043 63.3596 20.8337 62.4483 21.7114C61.8668 22.2715 58.2189 25.7776 58.0759 26.4536C58.3389 27.2935 61.8016 30.3733 62.6403 31.1334C63.2635 31.6981 64.3923 29.8261 66.0703 30.3134C65.8438 30.47 65.2681 30.2988 64.9634 30.3717C64.0874 30.5817 63.7997 31.3995 62.8249 31.2333C61.5513 30.8342 60.7726 29.2242 59.7543 28.7298C57.8827 29.247 61.6358 32.3542 62.452 32.4951C64.52 32.8524 65.2153 30.8009 66.4331 31.8401C66.077 31.7763 65.728 31.7235 65.3701 31.6703C63.8763 32.3463 63.2131 33.5276 61.2446 31.955C60.5154 31.3727 57.1655 28.0711 56.8592 27.4189C56.0028 25.5952 57.7405 24.4709 58.8437 23.3277C59.6131 22.5304 61.0708 20.6731 62.0742 20.2504C63.4414 19.6744 64.8135 20.4805 65.3701 21.7596C66.96 21.8122 69.0952 22.2156 70.5157 22.9146Z" fill="url(#paint2_linear_54_2272)"/>
<path d="M69.6879 24.0675C69.5271 23.2548 63.4069 23.5018 63.9728 21.8012C63.9797 21.5191 64.6234 20.9049 64.8682 21.28C65.5099 22.2631 67.2275 21.9087 68.3262 22.2761C68.7901 22.4313 70.0649 22.8786 70.5157 22.9146C71.0909 23.0074 73.214 24.1053 73.7549 24.4638C78.5893 27.6675 81.6845 32.9063 82.0282 38.7106C83.4385 39.4359 83.7677 41.6636 82.6447 42.7142C81.2852 43.9864 80.001 45.3355 78.6691 46.6353C77.3496 47.9231 75.8694 46.9625 74.8122 45.8789C72.8735 43.8921 69.185 41.5964 72.1677 38.8897C71.7503 35.5455 69.9678 32.6049 66.4331 31.8401C65.2153 30.8009 64.52 32.8525 62.452 32.4952C61.6359 32.3542 57.8827 29.247 59.7543 28.7298C60.7726 29.2242 61.5514 30.8342 62.8249 31.2334C63.7997 31.3995 64.0874 30.5817 64.9635 30.3717C65.2681 30.2988 65.8438 30.47 66.0703 30.3134C70.3849 30.4501 73.7271 35.3986 73.6629 39.5375C73.2904 40.025 72.6081 40.2224 72.4907 40.9041C72.3499 41.7223 76.5666 45.8445 77.1709 45.8108C77.6874 45.7822 80.9179 42.3985 81.4208 41.8639C82.65 40.5572 81.4844 40.2923 80.6867 39.5375C80.4566 38.9529 80.4446 37.8325 80.3455 37.1709C79.5289 31.7166 75.9352 26.8792 70.8902 24.6178C70.5392 24.4606 70.1098 24.294 69.7741 24.1142L69.6879 24.0675Z" fill="url(#paint3_linear_54_2272)"/>
<path d="M45.2467 32.7549C44.5051 32.8248 43.0282 32.8575 42.3286 32.7054C41.4527 32.5148 41.5226 31.5356 42.2935 31.2333C43.1712 31.2266 44.3272 31.1551 45.1722 31.2687C46.0746 31.3901 46.057 32.307 45.2467 32.7549Z" fill="url(#paint4_linear_54_2272)"/>
<path d="M23.0222 32.7549C22.658 32.8317 20.0553 32.8658 19.8085 32.4429C19.6167 32.1145 19.6445 31.502 20.0765 31.2333C20.971 31.2313 24.8891 30.8703 23.0222 32.7549Z" fill="url(#paint5_linear_54_2272)"/>
<path d="M55.7619 45.9618C54.755 45.5472 49.2962 44.3455 51.5625 42.8942C52.0246 42.9657 56.7133 44.6219 56.9766 45.1226C57.6897 46.4787 58.758 49.059 59.2692 50.5526C59.4204 50.9936 59.0194 51.2708 58.6869 51.4469C57.7438 51.7086 56.1905 46.833 55.7619 45.9618Z" fill="url(#paint6_linear_54_2272)"/>
<path d="M51.0248 59.0596C50.7926 59.0776 45.7509 57.3901 45.3344 56.9767C44.9014 56.5469 43.2258 52.2417 42.9837 51.5724C42.8252 51.135 43.1137 51.0067 43.4559 50.8817C43.8163 50.8149 44.1005 50.7006 44.2975 51.0983C45.0944 52.7066 45.6188 54.4291 46.4358 56.0265C47.0567 56.1262 53.3128 57.6296 51.0248 59.0596Z" fill="url(#paint7_linear_54_2272)"/>
<path d="M62.0996 53.0963C69.5321 49.5406 78.388 50.9387 84.3635 56.6116C90.339 62.2842 92.1952 71.0554 89.0303 78.6626C85.8654 86.2698 78.3354 91.1359 70.0995 90.896C61.8635 90.6563 54.6295 85.3602 51.9127 77.5818C51.9675 77.3774 51.0758 74.4337 51.1113 73.6019C51.2407 73.6141 52.5578 74.3765 52.5819 74.3824C53.9811 81.9518 59.9412 87.8522 67.5242 89.1751C75.1073 90.4979 82.7131 86.9643 86.5926 80.3158C90.4723 73.6674 89.8068 65.3073 84.9245 59.3562C80.042 53.405 71.9731 51.1191 64.6947 53.6248C63.7221 53.3089 59.593 56.7149 58.8293 55.278C59.0143 54.8115 61.8109 53.4727 62.0996 53.0963Z" fill="url(#paint8_linear_54_2272)"/>
<path d="M51.9127 77.5818C48.5715 68.0165 52.9598 57.469 62.0996 53.0963C61.8109 53.4727 59.0143 54.8115 58.8293 55.2781C59.593 56.715 63.7221 53.309 64.6947 53.6248C56.0757 56.5921 50.9251 65.4189 52.582 74.3824C52.5578 74.3765 51.2407 73.6142 51.1113 73.602C51.0758 74.4338 51.9675 77.3775 51.9127 77.5818Z" fill="url(#paint9_linear_54_2272)"/>
<path d="M84.9213 65.5438C84.5359 65.3206 84.5418 64.3214 83.8867 64.2209C82.6853 64.5678 83.6138 65.478 83.5581 65.8721C79.9605 58.6824 72.2412 54.9427 64.6175 58.6477C49.2726 66.105 58.7433 89.3417 74.9452 84.0637C75.4047 85.9185 75.5091 84.8218 76.494 85.1157C68.6564 88.3503 59.685 84.5762 56.5163 76.712C53.3477 68.8476 57.1969 59.9081 65.0875 56.8056C72.9783 53.7032 81.8852 57.6274 84.9213 65.5438Z" fill="url(#paint10_linear_54_2272)"/>
<path d="M22.2066 64.8944C21.3616 63.9202 19.7787 62.7717 20.8908 61.3365C21.7492 60.2284 25.5525 56.2376 26.652 56.0266C28.2033 55.8511 31.8006 60.1565 32.776 61.2942C34.0464 62.8213 32.7017 63.8475 31.7379 64.8944C32.4118 69.1155 35.3275 73.2365 40.107 72.124C40.6146 72.028 41.5413 71.5372 42.0296 71.5758C43.2784 71.6749 46.5597 75.3105 47.5784 76.5146C48.763 77.9151 46.4222 79.7424 45.5719 80.595L43.1169 83.0968C41.4525 84.8634 40.2311 83.7375 39.1448 82.134C38.3583 81.9679 37.4723 81.9648 36.6462 81.7932C28.3804 80.075 22.8686 73.0556 22.2066 64.8944ZM26.8623 57.3298C26.3317 57.7275 22.02 62.0565 21.9026 62.3824C21.9302 63.0303 23.3332 63.8447 23.517 64.3445C23.7429 64.959 23.7522 66.0833 23.867 66.78C25.0995 74.2662 31.5467 80.3591 39.2176 80.7012C40.9929 80.7804 40.5421 83.8996 42.795 81.4075C43.5476 80.6049 46.1145 78.131 46.4358 77.4351C45.5333 76.2775 43.1685 73.9621 42.0386 72.9109C36.347 75.8278 29.9388 70.2301 30.4484 64.2865C30.473 63.9992 31.6704 62.9503 31.9239 62.5144C31.5339 61.9416 30.8114 61.2694 30.3085 60.7712L28.1649 58.6408C27.9482 58.423 27.026 57.4292 26.8623 57.3298Z" fill="url(#paint11_linear_54_2272)"/>
<path d="M62.663 67.2326C63.256 66.1605 69.6912 62.6089 70.5156 62.5144C70.6968 62.4693 71.0044 62.4368 71.1732 62.5355L76.1491 65.4479C79.0896 67.1534 78.6591 66.6222 78.6595 70.1371L78.6573 74.9637C78.1221 75.9129 76.4355 76.4626 75.4906 76.9899L72.3375 78.7628C71.8551 79.0352 71.2853 79.4059 70.7941 79.6305C70.2985 79.637 62.6768 75.2962 62.6742 74.8081C62.6608 72.3857 62.636 69.6349 62.663 67.2326ZM70.5156 63.8725C68.7767 65.0967 66.8429 66.2285 64.9624 67.2326C65.6159 67.5996 70.5506 70.6 70.7941 70.5496C72.4573 69.5238 74.8889 68.3532 76.3626 67.2326C76.0358 67.0053 70.6121 63.8965 70.5156 63.8725ZM64.1361 68.5496V74.2355L68.2047 76.6198C68.5961 76.8493 69.6723 77.5337 69.9959 77.6488C70.0665 75.906 69.9934 73.6849 69.9959 71.8837C69.0895 71.2638 65.0969 68.8417 64.1361 68.5496ZM77.1901 68.5496C75.454 69.4416 73.1349 70.86 71.4766 71.8837L71.4724 75.7746C71.4718 76.2174 71.4389 77.2572 71.4766 77.6488C72.0413 77.3474 72.5694 77.0088 73.1266 76.6946L77.1901 74.4458C77.1901 73.89 77.2464 68.7111 77.1901 68.5496Z" fill="url(#paint12_linear_54_2272)"/>
<path d="M83.5581 65.872C83.6138 65.478 82.6853 64.5678 83.8868 64.2208C84.5418 64.3214 84.5359 65.3205 84.9213 65.5438C87.8857 73.2735 84.1466 81.9573 76.494 85.1157C75.5091 84.8218 75.4047 85.9184 74.9452 84.0637C82.1779 81.6987 85.8286 74.5325 84.0072 67.2254C83.8902 66.7562 83.6968 66.3321 83.5581 65.872Z" fill="url(#paint13_linear_54_2272)"/>
<defs>
<linearGradient id="paint0_linear_54_2272" x1="13.4538" y1="31.9437" x2="51.3819" y2="31.9437" gradientUnits="userSpaceOnUse">
<stop stop-color="#C427E0"/>
<stop offset="0.471154" stop-color="#844AFF"/>
<stop offset="1" stop-color="#12A9FF"/>
</linearGradient>
<linearGradient id="paint1_linear_54_2272" x1="27.0963" y1="31.3894" x2="37.9465" y2="31.3894" gradientUnits="userSpaceOnUse">
<stop stop-color="#C427E0"/>
<stop offset="0.471154" stop-color="#844AFF"/>
<stop offset="1" stop-color="#12A9FF"/>
</linearGradient>
<linearGradient id="paint2_linear_54_2272" x1="56.6298" y1="26.398" x2="70.5157" y2="26.398" gradientUnits="userSpaceOnUse">
<stop stop-color="#C427E0"/>
<stop offset="0.471154" stop-color="#844AFF"/>
<stop offset="1" stop-color="#12A9FF"/>
</linearGradient>
<linearGradient id="paint3_linear_54_2272" x1="59.2376" y1="34.2073" x2="83.3192" y2="34.2073" gradientUnits="userSpaceOnUse">
<stop stop-color="#C427E0"/>
<stop offset="0.471154" stop-color="#844AFF"/>
<stop offset="1" stop-color="#12A9FF"/>
</linearGradient>
<linearGradient id="paint4_linear_54_2272" x1="41.6935" y1="32.0092" x2="45.8519" y2="32.0092" gradientUnits="userSpaceOnUse">
<stop stop-color="#C427E0"/>
<stop offset="0.471154" stop-color="#844AFF"/>
<stop offset="1" stop-color="#12A9FF"/>
</linearGradient>
<linearGradient id="paint5_linear_54_2272" x1="19.6951" y1="32.0032" x2="23.5203" y2="32.0032" gradientUnits="userSpaceOnUse">
<stop stop-color="#C427E0"/>
<stop offset="0.471154" stop-color="#844AFF"/>
<stop offset="1" stop-color="#12A9FF"/>
</linearGradient>
<linearGradient id="paint6_linear_54_2272" x1="51.0166" y1="47.1756" x2="59.3021" y2="47.1756" gradientUnits="userSpaceOnUse">
<stop stop-color="#C427E0"/>
<stop offset="0.471154" stop-color="#844AFF"/>
<stop offset="1" stop-color="#12A9FF"/>
</linearGradient>
<linearGradient id="paint7_linear_54_2272" x1="42.9391" y1="54.9367" x2="51.5257" y2="54.9367" gradientUnits="userSpaceOnUse">
<stop stop-color="#C427E0"/>
<stop offset="0.471154" stop-color="#844AFF"/>
<stop offset="1" stop-color="#12A9FF"/>
</linearGradient>
<linearGradient id="paint8_linear_54_2272" x1="51.1103" y1="71.027" x2="90.556" y2="71.027" gradientUnits="userSpaceOnUse">
<stop stop-color="#C427E0"/>
<stop offset="0.471154" stop-color="#844AFF"/>
<stop offset="1" stop-color="#12A9FF"/>
</linearGradient>
<linearGradient id="paint9_linear_54_2272" x1="50.7973" y1="65.3391" x2="64.6947" y2="65.3391" gradientUnits="userSpaceOnUse">
<stop stop-color="#C427E0"/>
<stop offset="0.471154" stop-color="#844AFF"/>
<stop offset="1" stop-color="#12A9FF"/>
</linearGradient>
<linearGradient id="paint10_linear_54_2272" x1="55.4063" y1="71.0085" x2="84.9213" y2="71.0085" gradientUnits="userSpaceOnUse">
<stop stop-color="#C427E0"/>
<stop offset="0.471154" stop-color="#844AFF"/>
<stop offset="1" stop-color="#12A9FF"/>
</linearGradient>
<linearGradient id="paint11_linear_54_2272" x1="20.5082" y1="70.0071" x2="47.9064" y2="70.0071" gradientUnits="userSpaceOnUse">
<stop stop-color="#C427E0"/>
<stop offset="0.471154" stop-color="#844AFF"/>
<stop offset="1" stop-color="#12A9FF"/>
</linearGradient>
<linearGradient id="paint12_linear_54_2272" x1="62.6509" y1="71.0507" x2="78.6814" y2="71.0507" gradientUnits="userSpaceOnUse">
<stop stop-color="#C427E0"/>
<stop offset="0.471154" stop-color="#844AFF"/>
<stop offset="1" stop-color="#12A9FF"/>
</linearGradient>
<linearGradient id="paint13_linear_54_2272" x1="74.9452" y1="74.698" x2="85.9369" y2="74.698" gradientUnits="userSpaceOnUse">
<stop stop-color="#C427E0"/>
<stop offset="0.471154" stop-color="#844AFF"/>
<stop offset="1" stop-color="#12A9FF"/>
</linearGradient>
</defs>
</svg>
