<svg width="104" height="104" viewBox="0 0 104 104" fill="none" xmlns="http://www.w3.org/2000/svg">
<path d="M87.4201 23.3578C85.5477 23.6223 83.8156 22.3184 83.5518 20.446C83.2877 18.5736 84.592 16.8419 86.4646 16.5785C88.3364 16.3152 90.0672 17.6188 90.3311 19.4905C90.5949 21.3623 89.2917 23.0935 87.4201 23.3578ZM86.8534 18.129C86.1963 18.1504 85.6013 18.5234 85.2956 19.1056C84.9901 19.6877 85.021 20.3893 85.3767 20.9422C85.7323 21.4953 86.3578 21.8144 87.0143 21.7779C88.0132 21.7222 88.7814 20.8734 88.7374 19.8739C88.6933 18.8744 87.8532 18.0964 86.8534 18.129Z" fill="url(#paint0_linear_54_2251)"/>
<path d="M62.6935 21.9405C60.7748 21.9891 61.3726 17.1105 62.2081 16.7673C62.5521 16.7496 62.9643 16.8261 63.1365 17.1663C63.3435 17.5747 63.6472 21.5552 62.6935 21.9405Z" fill="url(#paint1_linear_54_2251)"/>
<path d="M71.4503 26.1145C71.7379 25.6051 74.0009 23.3581 74.5666 23.0496C77.3949 23.1196 73.0088 26.798 72.5047 27.1712C71.8279 27.1667 71.613 26.665 71.4503 26.1145Z" fill="url(#paint2_linear_54_2251)"/>
<path d="M52.479 27.1713C52.1143 27.1388 47.6553 23.7842 50.0006 23.3444C50.4776 23.2377 54.7783 26.1709 52.479 27.1713Z" fill="url(#paint3_linear_54_2251)"/>
<path d="M18.4399 34.7588C19.2943 34.1811 20.7614 33.3913 21.6821 32.8839L31.1431 27.5525C35.0155 25.3653 34.7752 25.4323 38.3904 27.4085L51.8277 34.8758C55.058 36.7136 56.3661 36.6883 56.3641 40.8621L56.3623 53.4741C58.0427 52.0471 60.5619 50.774 62.6935 50.1737L62.6927 35.4035C62.6935 34.6103 62.6923 33.8153 62.7615 33.0288C62.8548 31.9684 64.353 31.9307 64.3683 32.9715C64.3894 34.4246 64.3776 35.8776 64.3762 37.3301L64.3735 45.5175C64.3733 46.8364 64.3311 48.4262 64.3752 49.7273C66.8045 49.2796 69.0444 49.334 71.4502 49.9158C71.839 50.2793 72.9501 50.2168 73.3204 50.7181C73.464 50.9125 73.2735 51.1849 73.6243 51.166L73.5942 51.2424L73.4449 51.2617C73.0299 52.2665 72.1171 51.4093 71.7007 51.6421C62.037 49.7092 52.6492 55.2236 50.7321 65.1215C47.7959 80.2821 64.561 91.4924 77.3916 82.9246C80.7405 80.6884 81.9181 78.5324 83.7096 75.2469L83.7811 75.324C83.5918 75.8266 82.6749 76.9612 83.2881 76.8298L83.3346 76.8903C83.1949 77.6943 83.0789 78.5336 82.835 79.3155C82.7391 79.6228 82.3176 80.2125 82.2593 80.4664C82.3913 80.3012 82.9836 79.5046 83.0933 79.4266L83.1522 79.4694C83.043 79.74 82.2219 80.7046 81.9985 80.9602C76.105 87.6976 66.2358 89.4514 58.399 85.0155C53.5 82.2468 50.7113 78.0764 49.2748 72.8055C45.8006 74.424 42.0838 76.8725 38.6142 78.7073C35.1642 80.5318 35.324 80.9275 31.5345 78.781L28.1608 76.8806C25.7316 75.5245 22.3149 73.8313 20.0634 72.3314C20.4079 72.3166 25.2045 75.125 26.6333 75.3372C27.1525 75.4118 27.2045 75.5729 27.6242 75.1323L27.7509 75.0011L27.8472 74.9891L27.8903 75.1356C28.0198 75.1512 27.966 75.1408 28.1251 75.0401C29.4897 75.7533 34.3606 79.0981 35.6996 78.5048C36.9232 77.9624 38.0587 77.2164 39.2303 76.5767L48.9403 71.1858C47.9887 65.9726 49.9425 60.1311 53.3871 56.2025C53.811 55.719 54.2695 55.2474 54.6656 54.7333L54.666 39.5919C54.5228 37.7126 52.8425 37.3291 51.2819 36.4624L37.6423 28.8334C33.6474 26.6439 34.7146 27.4865 30.4399 29.7816C26.6575 31.8124 22.9836 34.0308 19.2084 36.0779L19.191 35.998C18.1673 36.3588 15.0134 37.9698 15.213 39.4495C15.3002 40.0957 15.2159 38.9852 14.8504 38.9511L14.7977 39.0762C14.5004 38.8934 14.6657 38.585 14.0996 38.3898C14.2353 36.7331 17.3317 35.6639 18.4785 34.8323L18.4399 34.7588Z" fill="url(#paint4_linear_54_2251)"/>
<path d="M19.2085 36.0779C16.5389 38.2367 15.3098 36.5877 15.3204 41.1316L15.3217 46.7688C15.321 47.5173 15.5478 49.3757 14.8983 49.8628C14.2945 50.3155 13.7321 49.5408 13.7251 48.9071C13.662 45.758 13.6732 42.586 13.7236 39.4366C13.7597 37.1869 16.5287 35.5715 18.44 34.7588L18.4785 34.8323C17.3317 35.6639 14.2353 36.7332 14.0996 38.3899C14.6657 38.5851 14.5004 38.8934 14.7977 39.0762L14.8504 38.9511C15.2159 38.9852 15.3002 40.0957 15.213 39.4496C15.0134 37.9698 18.1674 36.3588 19.191 35.9981L19.2085 36.0779Z" fill="url(#paint5_linear_54_2251)"/>
<path d="M79.2811 37.2226C77.972 37.2338 76.1965 37.3461 74.9562 37.0896C74.5674 37.0091 74.063 35.776 75.2944 35.5442C76.4823 35.5308 77.6835 35.5349 78.868 35.5401C80.4328 35.5468 80.4987 36.9122 79.2811 37.2226Z" fill="url(#paint6_linear_54_2251)"/>
<path d="M25.4365 44.0735C26.2117 43.5074 27.8123 42.7617 28.6989 42.2395C30.6863 41.0691 32.7503 39.8863 34.7803 38.7876C35.2093 38.7492 36.4701 39.5747 36.9038 39.8115L41.6764 42.4714C42.1895 42.7627 44.3597 43.9449 44.6776 44.2386L44.6802 51.7865C44.6816 52.9768 44.7267 54.3085 44.6235 55.486C44.5912 55.8549 36.0127 60.5522 35.3271 60.9834C34.72 61.2109 27.5909 56.9087 26.4776 56.2931C26.1357 56.1042 25.7163 55.9014 25.4365 55.6351C25.4089 55.0463 25.4343 54.273 25.4347 53.6705L25.4355 46.1005C25.4335 45.4316 25.4047 44.7373 25.4365 44.0735ZM35.034 40.4668C32.6885 41.6935 29.9618 43.5531 27.6555 44.615L32.4017 47.3028C33.0657 47.6858 34.4218 48.5185 35.034 48.7951C37.2273 47.357 40.0136 46.0938 42.2374 44.615C39.923 43.1753 37.2456 42.0195 35.034 40.4668ZM43.067 46.0724C41.1158 46.968 37.6078 48.9619 35.762 50.1737C35.7622 50.93 35.7411 58.8403 35.762 58.8858C38.1833 57.6997 40.6313 55.9943 43.067 54.7333L43.0674 48.3428C43.0678 47.9745 43.195 46.2597 43.067 46.0724ZM27.0142 46.0724V54.7333C29.355 56.0148 31.8996 57.5437 34.2262 58.8858V50.1737L29.6079 47.5315C29.0028 47.1821 27.611 46.328 27.0142 46.0724Z" fill="url(#paint7_linear_54_2251)"/>
<path d="M71.4503 49.9158C76.3368 50.957 80.6333 53.8168 83.3832 58.0188C83.8525 58.848 82.8305 59.9128 82.16 58.9443C78.9478 54.3043 76.5046 53.3931 71.7007 51.6421C72.1171 51.4094 73.03 52.2665 73.4449 51.2617L73.5942 51.2424L73.6243 51.166C73.2735 51.1849 73.464 50.9125 73.3204 50.7181C72.9501 50.2168 71.839 50.2794 71.4503 49.9158Z" fill="url(#paint8_linear_54_2251)"/>
<path d="M14.6028 57.0808C13.508 57.3197 13.7114 56.1588 13.6976 55.4468C13.6765 54.3634 13.3872 53.6122 14.3319 53.1162C15.9021 53.0053 15.3814 56.3879 15.1145 56.8809C14.9469 57.0201 14.822 57.0274 14.6028 57.0808Z" fill="url(#paint9_linear_54_2251)"/>
<path d="M68.7868 81.6477C61.5426 82.2683 55.1671 76.8983 54.5472 69.6538C53.9272 62.4094 59.2979 56.0343 66.5421 55.415C73.7858 54.7956 80.16 60.1654 80.78 67.4091C81.3997 74.6527 76.0305 81.0274 68.7868 81.6477ZM66.7223 57.1098C60.3823 57.6235 55.6638 63.1871 56.1923 69.526C56.7206 75.865 62.295 80.5704 68.6327 80.0274C74.9497 79.4861 79.6366 73.9339 79.1099 67.6157C78.5832 61.2975 73.0417 56.5977 66.7223 57.1098Z" fill="url(#paint10_linear_54_2251)"/>
<path d="M20.0634 72.3313C17.6457 71.2767 14.0345 69.2607 13.7534 66.486C13.678 65.7416 12.9185 59.2643 14.9159 60.5009C15.4389 60.8247 15.3262 61.8139 15.3272 62.3319L15.3213 64.7188C15.3145 67.6422 15.7263 68.1147 18.2098 69.5292L28.1251 75.04C27.966 75.1408 28.0198 75.1511 27.8903 75.1355L27.8472 74.989L27.7509 75.001L27.6242 75.1322C27.2045 75.5728 27.1525 75.4117 26.6333 75.3372C25.2045 75.1249 20.4079 72.3165 20.0634 72.3313Z" fill="url(#paint11_linear_54_2251)"/>
<path d="M85.3615 64.5196C84.2449 64.4538 83.4519 62.192 84.6032 61.6493C85.8792 61.5997 86.3852 64.1008 85.3615 64.5196Z" fill="url(#paint12_linear_54_2251)"/>
<path d="M70.7346 70.8018C70.6971 69.9393 70.6631 63.5435 70.8092 63.1523C70.9036 62.8986 71.2248 62.7753 71.4502 62.6666C73.0322 62.5645 72.5065 65.6664 72.5075 66.8163L72.5067 72.8796C72.4917 75.0238 71.2693 74.0841 70.3721 72.9192C68.5882 70.6027 66.64 68.3576 64.8964 66.0103C64.9265 66.4234 64.8999 67.0342 64.8993 67.4616L64.8995 70.2773C64.8995 71.3567 65.2535 73.9206 64.3752 74.5166C62.6813 74.7524 63.1126 73.0488 63.113 71.8786L63.1138 65.392C63.1118 64.7861 63.1002 64.1625 63.1179 63.5569C63.1323 62.8761 64.1329 62.3297 64.5938 62.9388C66.584 65.5685 68.822 68.122 70.7346 70.8018Z" fill="url(#paint13_linear_54_2251)"/>
<path d="M83.7097 75.2468C84.8516 72.1638 84.7283 71.1418 85.0923 68.2095C85.1921 67.4054 86.2629 67.3265 86.5347 67.9928C86.6948 68.3854 86.5883 69.1683 86.5881 69.5979C86.4514 72.2964 85.0998 77.3845 83.1523 79.4694L83.0934 79.4265C82.9837 79.5045 82.3914 80.3012 82.2593 80.4663C82.3176 80.2124 82.7391 79.6227 82.835 79.3154C83.079 78.5336 83.1949 77.6942 83.3347 76.8903L83.2882 76.8298C82.6749 76.9612 83.5918 75.8265 83.7812 75.324L83.7097 75.2468Z" fill="url(#paint14_linear_54_2251)"/>
<defs>
<linearGradient id="paint0_linear_54_2251" x1="83.5178" y1="19.9683" x2="90.365" y2="19.9683" gradientUnits="userSpaceOnUse">
<stop stop-color="#C427E0"/>
<stop offset="0.471154" stop-color="#844AFF"/>
<stop offset="1" stop-color="#12A9FF"/>
</linearGradient>
<linearGradient id="paint1_linear_54_2251" x1="61.4175" y1="19.3529" x2="63.3519" y2="19.3529" gradientUnits="userSpaceOnUse">
<stop stop-color="#C427E0"/>
<stop offset="0.471154" stop-color="#844AFF"/>
<stop offset="1" stop-color="#12A9FF"/>
</linearGradient>
<linearGradient id="paint2_linear_54_2251" x1="71.4503" y1="25.1104" x2="75.5097" y2="25.1104" gradientUnits="userSpaceOnUse">
<stop stop-color="#C427E0"/>
<stop offset="0.471154" stop-color="#844AFF"/>
<stop offset="1" stop-color="#12A9FF"/>
</linearGradient>
<linearGradient id="paint3_linear_54_2251" x1="49.3222" y1="25.2564" x2="53.1509" y2="25.2564" gradientUnits="userSpaceOnUse">
<stop stop-color="#C427E0"/>
<stop offset="0.471154" stop-color="#844AFF"/>
<stop offset="1" stop-color="#12A9FF"/>
</linearGradient>
<linearGradient id="paint4_linear_54_2251" x1="14.0996" y1="56.6887" x2="83.7811" y2="56.6887" gradientUnits="userSpaceOnUse">
<stop stop-color="#C427E0"/>
<stop offset="0.471154" stop-color="#844AFF"/>
<stop offset="1" stop-color="#12A9FF"/>
</linearGradient>
<linearGradient id="paint5_linear_54_2251" x1="13.6817" y1="42.3785" x2="19.2085" y2="42.3785" gradientUnits="userSpaceOnUse">
<stop stop-color="#C427E0"/>
<stop offset="0.471154" stop-color="#844AFF"/>
<stop offset="1" stop-color="#12A9FF"/>
</linearGradient>
<linearGradient id="paint6_linear_54_2251" x1="74.5162" y1="36.3959" x2="80.1257" y2="36.3959" gradientUnits="userSpaceOnUse">
<stop stop-color="#C427E0"/>
<stop offset="0.471154" stop-color="#844AFF"/>
<stop offset="1" stop-color="#12A9FF"/>
</linearGradient>
<linearGradient id="paint7_linear_54_2251" x1="25.4216" y1="49.8892" x2="44.6912" y2="49.8892" gradientUnits="userSpaceOnUse">
<stop stop-color="#C427E0"/>
<stop offset="0.471154" stop-color="#844AFF"/>
<stop offset="1" stop-color="#12A9FF"/>
</linearGradient>
<linearGradient id="paint8_linear_54_2251" x1="71.4503" y1="54.6226" x2="83.5025" y2="54.6226" gradientUnits="userSpaceOnUse">
<stop stop-color="#C427E0"/>
<stop offset="0.471154" stop-color="#844AFF"/>
<stop offset="1" stop-color="#12A9FF"/>
</linearGradient>
<linearGradient id="paint9_linear_54_2251" x1="13.6396" y1="55.1131" x2="15.4157" y2="55.1131" gradientUnits="userSpaceOnUse">
<stop stop-color="#C427E0"/>
<stop offset="0.471154" stop-color="#844AFF"/>
<stop offset="1" stop-color="#12A9FF"/>
</linearGradient>
<linearGradient id="paint10_linear_54_2251" x1="54.4985" y1="68.5314" x2="80.8286" y2="68.5314" gradientUnits="userSpaceOnUse">
<stop stop-color="#C427E0"/>
<stop offset="0.471154" stop-color="#844AFF"/>
<stop offset="1" stop-color="#12A9FF"/>
</linearGradient>
<linearGradient id="paint11_linear_54_2251" x1="13.5496" y1="67.8864" x2="28.1251" y2="67.8864" gradientUnits="userSpaceOnUse">
<stop stop-color="#C427E0"/>
<stop offset="0.471154" stop-color="#844AFF"/>
<stop offset="1" stop-color="#12A9FF"/>
</linearGradient>
<linearGradient id="paint12_linear_54_2251" x1="84.0393" y1="63.0841" x2="85.9081" y2="63.0841" gradientUnits="userSpaceOnUse">
<stop stop-color="#C427E0"/>
<stop offset="0.471154" stop-color="#844AFF"/>
<stop offset="1" stop-color="#12A9FF"/>
</linearGradient>
<linearGradient id="paint13_linear_54_2251" x1="63.0636" y1="68.6014" x2="72.5905" y2="68.6014" gradientUnits="userSpaceOnUse">
<stop stop-color="#C427E0"/>
<stop offset="0.471154" stop-color="#844AFF"/>
<stop offset="1" stop-color="#12A9FF"/>
</linearGradient>
<linearGradient id="paint14_linear_54_2251" x1="82.2593" y1="74.0052" x2="86.623" y2="74.0052" gradientUnits="userSpaceOnUse">
<stop stop-color="#C427E0"/>
<stop offset="0.471154" stop-color="#844AFF"/>
<stop offset="1" stop-color="#12A9FF"/>
</linearGradient>
</defs>
</svg>
