<svg width="104" height="104" viewBox="0 0 104 104" fill="none" xmlns="http://www.w3.org/2000/svg">
<path d="M76.2119 30.214C70.9977 27.914 71.6972 20.738 74.3535 16.7196C77.222 12.38 82.1809 11.1083 86.8991 9.88686C88.2503 9.53417 89.6494 8.86114 91.0538 8.59736C92.3475 8.48233 93.5007 9.1433 94.0402 10.3396C94.5884 11.5556 93.8748 13.1321 93.5356 14.3522C91.8942 20.2562 89.6307 27.4141 83.6597 30.1876C81.4391 31.2164 78.4889 31.113 76.2119 30.214ZM91.3189 10.1136C89.2962 10.6114 87.2552 11.5129 85.2091 11.9614C81.3095 12.8162 77.4189 14.543 75.3145 18.1277C74.019 20.2924 73.3125 24.3181 74.5926 26.6179C75.6368 25.7853 77.1477 24.2336 78.101 23.1802C78.1135 21.882 77.9248 19.0927 78.1369 17.9272C78.2415 17.3533 78.9323 17.0557 79.3479 17.5515C79.8432 18.1423 79.5874 20.7563 79.6232 21.61C80.5551 20.8461 81.3339 19.8959 82.2735 19.1936C82.3471 17.8665 82.1752 16.5079 82.3134 15.1864C82.3662 14.6815 83.2492 14.5074 83.5142 14.9821C83.9278 15.7226 83.6278 16.9338 83.6881 17.7554C85.3029 16.3484 86.7348 14.5616 88.3858 13.1832C88.7758 12.8577 90.6484 13.0824 88.6054 15.0675C87.2976 16.3777 85.2451 18.1451 84.1405 19.4971C84.8766 19.5017 86.7667 19.2986 87.3537 19.7723C87.7264 20.0729 87.4577 20.841 86.904 20.844C85.552 20.9486 84.1673 20.8861 82.8078 20.8895C82.2658 21.2706 81.0694 22.4595 80.6193 22.9616C81.6755 22.9813 83.3491 22.8917 84.4129 23.0398C85.0623 23.13 85.0098 24.4846 84.1567 24.4351C82.4592 24.5385 80.7548 24.4383 79.0554 24.4745C78.0524 25.3124 76.2623 27.1035 75.4175 28.119C86.0561 33.1806 89.9663 21.1885 92.1627 13.4151C92.4452 12.415 93.4393 9.95288 91.3189 10.1136Z" fill="url(#paint0_linear_54_2228)"/>
<path d="M40.5876 25.1799C39.9843 25.1291 37.8107 23.5531 39.3599 22.7914C40.1875 22.8698 41.9083 24.4048 40.5876 25.1799Z" fill="url(#paint1_linear_54_2228)"/>
<path d="M43.7462 25.1799C41.899 25.1574 43.3818 23.3254 44.4236 22.7914C44.9678 22.8302 45.0535 23.067 45.2452 23.5234C44.9926 24.0432 44.2375 24.8515 43.7462 25.1799Z" fill="url(#paint2_linear_54_2228)"/>
<path d="M39.7144 28.9783C37.9818 29.0177 39.0703 27.3567 40.1652 26.6179C42.1871 26.5984 40.4097 28.465 39.7144 28.9783Z" fill="url(#paint3_linear_54_2228)"/>
<path d="M44.4237 28.9782C44.0119 29.0249 41.9248 27.4497 43.3695 26.6179C44.2782 26.6065 45.7972 28.2266 44.4237 28.9782Z" fill="url(#paint4_linear_54_2228)"/>
<path d="M49.8536 92.6368C49.6596 92.754 49.3498 92.87 49.1345 92.9587C34.7065 98.8776 18.327 92.5604 11.6428 78.4655C5.25925 65.0047 10.9299 47.6765 24.4317 41.3138C40.7767 32.4841 62.4993 41.8143 66.3156 60.178C66.467 60.8662 66.5448 61.623 66.6904 62.2598C67.5135 61.4419 71.9363 56.4373 72.7756 56.5142C73.594 56.889 74.8512 58.3377 75.5578 58.9318L75.555 43.2581C75.5532 42.6124 75.5274 41.7731 75.5578 41.1397C67.8637 43.1663 61.9779 38.1936 59.9861 31.0834C59.4055 29.0105 63.5716 29.2187 65.0069 29.2047C69.2396 29.1635 73.6832 31.8508 75.5578 35.7179L75.5527 33.3976C75.5505 32.9077 75.5345 32.4098 75.5794 31.9266C75.6742 30.9059 77.1178 30.9676 77.1686 32.0161C77.2011 32.6844 77.1881 33.3316 77.1873 33.9923L77.1818 38.0319C77.181 38.5862 77.1491 39.4895 77.1842 40.0152L77.2501 39.9417C77.9423 39.1596 78.4918 38.2198 79.2096 37.4621C82.9827 33.4809 88.2349 33.2002 93.2388 34.4413C95.2872 34.9493 95.1687 35.0506 94.5313 37.1085C92.0536 45.1082 84.7602 48.6113 77.0356 45.9759L77.0331 56.9627C77.0179 59.3027 77.4152 57.9325 77.7372 58.6529C78.4936 59.4849 79.2017 60.3062 79.8923 61.1932C80.2386 60.8711 80.8787 60.2113 81.4117 60.2357C81.8961 60.2578 84.2627 63.1615 84.6672 63.6078L86.9466 66.1659C87.3795 66.6563 87.8491 67.0552 88.104 67.6638C87.9385 68.0499 87.5534 68.6975 87.0317 68.4588C86.4697 68.2019 82.0527 62.9612 81.2053 62.0762C80.8305 62.3616 79.9419 63.1684 79.5273 62.9503C79.0733 62.7114 77.2401 60.4134 77.0356 60.0216C76.6389 60.5451 76.0697 61.5916 75.3472 60.9095C74.5629 60.1689 73.618 59.3379 72.9205 58.5189L72.7738 58.3432C71.8843 58.9822 67.714 63.2123 67.0249 64.166C67.0258 73.0397 65.2854 80.0788 58.6383 86.6702C56.5868 88.7045 52.5889 91.6731 49.8536 92.6368ZM48.7354 91.4739C48.8662 91.4032 49.0169 91.3398 49.1548 91.2793C70.4082 81.8569 71.0692 51.7333 49.7542 42.0099C41.9128 38.4329 33.9014 38.5663 26.1156 42.0926C13.8318 48.2326 7.38361 61.5505 11.7793 74.8938C16.2485 88.4601 30.901 96.2656 44.8441 92.7477C45.8274 92.4997 48.1646 91.5503 48.7354 91.4739ZM63.818 30.8238C63.1796 30.9091 62.2623 31.0196 61.6588 31.1929C63.1514 36.6866 68.5833 41.3315 74.4467 39.8521C72.7466 38.5755 70.1131 37.0378 68.2595 36.0539C67.5795 35.579 66.4079 34.2824 67.9417 34.1752C68.7007 34.1221 74.0852 37.8424 75.4175 38.4708C72.7468 33.8471 70.0745 30.2193 63.818 30.8238ZM87.1059 35.346C82.1852 35.843 78.9705 39.0857 77.1842 43.6093L77.2529 43.5772C79.9315 42.3014 82.8947 40.3341 85.7149 38.9118C86.6505 38.4398 87.141 39.5182 86.917 39.8824C86.4959 40.5671 84.3188 41.364 83.4035 42.0926C82.3603 42.2766 79.2468 44.0598 78.3589 44.9847C79.5348 44.9422 80.3859 45.2353 81.5165 45.3298C87.0555 45.7929 91.8623 41.1929 93.1822 36.0539C91.6358 35.6206 88.7012 35.1833 87.1059 35.346Z" fill="url(#paint5_linear_54_2228)"/>
<path d="M46.0885 36.8319C45.6412 36.9674 45.1691 36.7135 45.0357 36.2656C44.902 35.8179 45.1582 35.3468 45.6065 35.2154C46.0521 35.0848 46.5193 35.3389 46.6519 35.7838C46.7846 36.2286 46.5327 36.6972 46.0885 36.8319Z" fill="url(#paint6_linear_54_2228)"/>
<path d="M60.1329 44.1046C59.3858 44.317 58.4114 43.0764 57.8041 42.5951C55.8198 41.0228 53.6837 39.6819 51.3583 38.6722C50.7215 38.3957 47.0372 37.2635 48.9554 36.2672C51.3404 36.0612 58.5684 41.1389 60.2834 42.7335C60.8463 43.2565 60.7319 43.6934 60.1329 44.1046Z" fill="url(#paint7_linear_54_2228)"/>
<path d="M57.2299 78.0147C51.2272 88.0436 38.5367 91.7935 28.0471 86.6377C17.5577 81.482 12.7748 69.1438 17.0485 58.265C21.3221 47.3863 33.2242 41.6027 44.4182 44.9652C44.3473 45.002 37.3562 43.4958 36.449 44.2661L36.5114 44.2622C37.3976 44.2155 40.827 44.2972 41.4861 44.635L41.5507 44.7304L41.3053 44.793L41.3916 44.9953C41.3439 45.1086 40.7546 45.51 40.5877 45.6461C40.4418 45.6301 40.2617 45.6049 40.1189 45.6022L40.1319 45.642C41.1761 46.0142 45.0672 46.3122 45.6587 47.0733L45.6126 47.1151C27.5743 40.5469 10.4765 58.4064 18.8842 75.432C25.7614 89.3586 44.7655 91.3505 54.4751 79.3799C55.0252 78.7017 55.4684 77.9381 55.9892 77.2727C56.0045 77.5729 55.3953 78.3425 55.1956 78.6186C55.3317 78.6033 55.4048 78.435 55.4686 78.5089C55.808 78.9023 55.9092 79.4197 55.835 79.9143C56.1395 79.5083 56.9786 78.1451 57.2299 78.0147Z" fill="url(#paint8_linear_54_2228)"/>
<path d="M44.4182 44.9652C51.0524 46.958 56.3963 51.9005 58.9 58.3592C61.4037 64.8182 60.7876 72.0708 57.2299 78.0146C56.9786 78.145 56.1395 79.5082 55.835 79.9142C55.9092 79.4196 55.808 78.9023 55.4686 78.5088C55.4048 78.4349 55.3317 78.6033 55.1956 78.6185C55.3953 78.3425 56.0044 77.5728 55.9892 77.2726C56.1129 76.9543 56.4775 76.4542 56.6455 76.1278C62.5318 64.6894 57.1874 51.9746 45.6126 47.115L45.6587 47.0732C45.0672 46.3121 41.1761 46.0141 40.1318 45.642L40.1188 45.6022C40.2616 45.6048 40.4418 45.63 40.5876 45.646C40.7546 45.5099 41.3439 45.1086 41.3916 44.9952L41.3053 44.7929L41.5507 44.7303L41.4861 44.6349C40.8269 44.2971 37.3976 44.2154 36.5113 44.2621L36.449 44.266C37.3561 43.4957 44.3473 45.0019 44.4182 44.9652Z" fill="url(#paint9_linear_54_2228)"/>
<path d="M63.101 47.115C62.0474 47.0384 61.0829 45.6598 62.3342 44.9846C63.0116 44.9026 63.5627 45.8209 63.818 46.3494C63.6092 46.8101 63.5505 46.883 63.101 47.115Z" fill="url(#paint10_linear_54_2228)"/>
<path d="M67.1984 54.1921C66.3341 54.132 64.8001 50.4776 64.1858 49.4713C63.8497 48.9208 64.1755 48.5355 64.7044 48.2964C65.5102 48.2724 65.7442 48.9454 66.0936 49.584C66.7844 50.8468 68.8447 53.429 67.1984 54.1921Z" fill="url(#paint11_linear_54_2228)"/>
<path d="M36.0281 54.8186C36.021 53.0605 36.052 52.0664 38.1225 51.7138C40.1956 51.5293 40.5907 53.0963 40.5876 54.8186C42.67 55.2788 47.6364 56.2152 46.0462 59.5946C45.673 60.3878 44.7358 61.5848 43.8683 61.8668C41.9406 61.3129 38.2135 58.4364 36.5241 60.9194C35.3417 62.6573 41.6605 64.5943 42.9116 65.1958C46.7037 67.0188 48.1841 71.2757 46.1896 75.0155C44.8575 77.5131 42.7576 78.4966 40.1651 79.3282C40.2098 81.3643 39.3922 83.5796 36.8682 82.4836C35.6196 81.7517 35.6066 80.812 35.5865 79.5415C32.2485 79.0091 26.0961 76.9943 30.1143 72.5026C31.4825 71.1933 31.6985 71.4137 32.8004 72.6424C34.2048 74.2085 39.6744 75.3094 39.9532 72.2365C40.1245 70.3509 32.525 69.1886 30.4379 65.9167C27.5173 61.3383 31.2776 55.0263 36.0281 54.8186ZM38.1225 53.1192C37.1101 53.4237 37.3539 55.0351 37.3604 55.9583C35.0807 56.5455 32.7604 57.2609 31.6207 59.4059C29.382 63.6198 32.1662 66.7213 36.1294 68.0353C37.8391 68.7267 40.7584 69.5209 41.3467 71.5233C42.7332 76.2442 34.244 76.9953 31.3867 73.3299C28.8967 76.3134 32.2481 77.3478 34.9172 77.9171C37.559 78.4682 37.1387 78.0437 37.1164 80.8096C38.9019 82.6284 38.5592 78.5913 38.7497 78.3122C39.6693 77.2529 46.1303 77.2708 45.4921 70.7844C44.9142 64.9494 35.4796 66.0682 34.919 61.6754C34.8375 61.038 35.0583 60.3923 35.4668 59.8924C37.5279 57.3698 41.5047 58.7933 43.7462 60.296C44.1703 59.7734 44.646 59.2296 44.8642 58.5883C44.411 56.7555 40.9679 56.5715 39.3489 56.0791C38.4314 55.8 39.9996 53.0254 38.1225 53.1192Z" fill="url(#paint12_linear_54_2228)"/>
<path d="M65.8202 83.3844C64.1177 83.5069 65.105 81.2037 66.0725 80.8096C67.9277 80.4676 66.6019 82.9583 65.8202 83.3844Z" fill="url(#paint13_linear_54_2228)"/>
<path d="M59.9619 90.4457C59.3741 90.5932 58.8687 90.1636 58.9323 89.5455C58.9628 89.2485 61.0184 87.304 61.3083 86.969C61.6846 86.5587 62.5707 85.4316 62.9361 85.1643C66.182 84.9695 60.6729 89.9487 59.9619 90.4457Z" fill="url(#paint14_linear_54_2228)"/>
<path d="M69.1732 88.9609C68.6455 88.9684 65.8548 86.8793 67.5096 86.0686C67.8655 86.0393 70.7952 87.8738 69.1732 88.9609Z" fill="url(#paint15_linear_54_2228)"/>
<path d="M73.1133 88.9608C70.9486 89.0429 73.3103 86.5499 74.1555 86.0685C76.3783 86.0576 73.86 88.4668 73.1133 88.9608Z" fill="url(#paint16_linear_54_2228)"/>
<path d="M67.6748 93.8597C65.6228 93.7012 68.0459 91.3444 68.8826 90.9948C70.7611 90.817 68.8517 93.3421 67.6748 93.8597Z" fill="url(#paint17_linear_54_2228)"/>
<path d="M74.4467 93.8595C73.902 93.8482 71.2059 91.8772 72.7738 90.9947C73.4228 90.9837 76.1485 93.1228 74.4467 93.8595Z" fill="url(#paint18_linear_54_2228)"/>
<defs>
<linearGradient id="paint0_linear_54_2228" x1="72.3151" y1="19.7542" x2="94.2407" y2="19.7542" gradientUnits="userSpaceOnUse">
<stop stop-color="#C427E0"/>
<stop offset="0.471154" stop-color="#844AFF"/>
<stop offset="1" stop-color="#12A9FF"/>
</linearGradient>
<linearGradient id="paint1_linear_54_2228" x1="38.8132" y1="23.9857" x2="41.0701" y2="23.9857" gradientUnits="userSpaceOnUse">
<stop stop-color="#C427E0"/>
<stop offset="0.471154" stop-color="#844AFF"/>
<stop offset="1" stop-color="#12A9FF"/>
</linearGradient>
<linearGradient id="paint2_linear_54_2228" x1="42.8685" y1="23.9857" x2="45.2452" y2="23.9857" gradientUnits="userSpaceOnUse">
<stop stop-color="#C427E0"/>
<stop offset="0.471154" stop-color="#844AFF"/>
<stop offset="1" stop-color="#12A9FF"/>
</linearGradient>
<linearGradient id="paint3_linear_54_2228" x1="38.8069" y1="27.7984" x2="41.1018" y2="27.7984" gradientUnits="userSpaceOnUse">
<stop stop-color="#C427E0"/>
<stop offset="0.471154" stop-color="#844AFF"/>
<stop offset="1" stop-color="#12A9FF"/>
</linearGradient>
<linearGradient id="paint4_linear_54_2228" x1="42.8668" y1="27.7985" x2="44.9743" y2="27.7985" gradientUnits="userSpaceOnUse">
<stop stop-color="#C427E0"/>
<stop offset="0.471154" stop-color="#844AFF"/>
<stop offset="1" stop-color="#12A9FF"/>
</linearGradient>
<linearGradient id="paint5_linear_54_2228" x1="9.02295" y1="62.189" x2="94.9427" y2="62.189" gradientUnits="userSpaceOnUse">
<stop stop-color="#C427E0"/>
<stop offset="0.471154" stop-color="#844AFF"/>
<stop offset="1" stop-color="#12A9FF"/>
</linearGradient>
<linearGradient id="paint6_linear_54_2228" x1="45.0002" y1="36.0248" x2="46.6873" y2="36.0248" gradientUnits="userSpaceOnUse">
<stop stop-color="#C427E0"/>
<stop offset="0.471154" stop-color="#844AFF"/>
<stop offset="1" stop-color="#12A9FF"/>
</linearGradient>
<linearGradient id="paint7_linear_54_2228" x1="48.4075" y1="40.195" x2="60.6495" y2="40.195" gradientUnits="userSpaceOnUse">
<stop stop-color="#C427E0"/>
<stop offset="0.471154" stop-color="#844AFF"/>
<stop offset="1" stop-color="#12A9FF"/>
</linearGradient>
<linearGradient id="paint8_linear_54_2228" x1="15.4888" y1="66.4779" x2="57.2299" y2="66.4779" gradientUnits="userSpaceOnUse">
<stop stop-color="#C427E0"/>
<stop offset="0.471154" stop-color="#844AFF"/>
<stop offset="1" stop-color="#12A9FF"/>
</linearGradient>
<linearGradient id="paint9_linear_54_2228" x1="36.449" y1="61.9803" x2="60.4187" y2="61.9803" gradientUnits="userSpaceOnUse">
<stop stop-color="#C427E0"/>
<stop offset="0.471154" stop-color="#844AFF"/>
<stop offset="1" stop-color="#12A9FF"/>
</linearGradient>
<linearGradient id="paint10_linear_54_2228" x1="61.7427" y1="46.0473" x2="63.818" y2="46.0473" gradientUnits="userSpaceOnUse">
<stop stop-color="#C427E0"/>
<stop offset="0.471154" stop-color="#844AFF"/>
<stop offset="1" stop-color="#12A9FF"/>
</linearGradient>
<linearGradient id="paint11_linear_54_2228" x1="64.0491" y1="51.2439" x2="67.8212" y2="51.2439" gradientUnits="userSpaceOnUse">
<stop stop-color="#C427E0"/>
<stop offset="0.471154" stop-color="#844AFF"/>
<stop offset="1" stop-color="#12A9FF"/>
</linearGradient>
<linearGradient id="paint12_linear_54_2228" x1="28.7977" y1="67.2365" x2="47.0779" y2="67.2365" gradientUnits="userSpaceOnUse">
<stop stop-color="#C427E0"/>
<stop offset="0.471154" stop-color="#844AFF"/>
<stop offset="1" stop-color="#12A9FF"/>
</linearGradient>
<linearGradient id="paint13_linear_54_2228" x1="64.8948" y1="82.0833" x2="67.0141" y2="82.0833" gradientUnits="userSpaceOnUse">
<stop stop-color="#C427E0"/>
<stop offset="0.471154" stop-color="#844AFF"/>
<stop offset="1" stop-color="#12A9FF"/>
</linearGradient>
<linearGradient id="paint14_linear_54_2228" x1="58.9269" y1="87.8168" x2="63.9518" y2="87.8168" gradientUnits="userSpaceOnUse">
<stop stop-color="#C427E0"/>
<stop offset="0.471154" stop-color="#844AFF"/>
<stop offset="1" stop-color="#12A9FF"/>
</linearGradient>
<linearGradient id="paint15_linear_54_2228" x1="66.9913" y1="87.5146" x2="69.659" y2="87.5146" gradientUnits="userSpaceOnUse">
<stop stop-color="#C427E0"/>
<stop offset="0.471154" stop-color="#844AFF"/>
<stop offset="1" stop-color="#12A9FF"/>
</linearGradient>
<linearGradient id="paint16_linear_54_2228" x1="72.224" y1="87.5156" x2="75.0521" y2="87.5156" gradientUnits="userSpaceOnUse">
<stop stop-color="#C427E0"/>
<stop offset="0.471154" stop-color="#844AFF"/>
<stop offset="1" stop-color="#12A9FF"/>
</linearGradient>
<linearGradient id="paint17_linear_54_2228" x1="66.8705" y1="92.4227" x2="69.6726" y2="92.4227" gradientUnits="userSpaceOnUse">
<stop stop-color="#C427E0"/>
<stop offset="0.471154" stop-color="#844AFF"/>
<stop offset="1" stop-color="#12A9FF"/>
</linearGradient>
<linearGradient id="paint18_linear_54_2228" x1="72.2898" y1="92.4271" x2="74.9975" y2="92.4271" gradientUnits="userSpaceOnUse">
<stop stop-color="#C427E0"/>
<stop offset="0.471154" stop-color="#844AFF"/>
<stop offset="1" stop-color="#12A9FF"/>
</linearGradient>
</defs>
</svg>
