<svg width="154" height="52" viewBox="0 0 154 52" fill="none" xmlns="http://www.w3.org/2000/svg">
<rect width="153.483" height="52" rx="8" fill="#3390EC"/>
<path d="M40.3703 16.0145L36.0816 36.2401C35.758 37.6675 34.9142 38.0228 33.7152 37.3503L27.1805 32.535L24.0274 35.5676C23.6785 35.9165 23.3867 36.2084 22.7142 36.2084L23.1836 29.5532L35.2949 18.6093C35.8215 18.1398 35.1807 17.8797 34.4765 18.3492L19.504 27.7768L13.0582 25.7593C11.6561 25.3216 11.6307 24.3572 13.35 23.6847L38.5622 13.9717C39.7295 13.5339 40.751 14.2318 40.3703 16.0145Z" fill="white"/>
<path d="M53.2782 20.6634V18.4545H64.8833V20.6634H60.3876V33H57.7739V20.6634H53.2782ZM70.2544 33.2131C69.1606 33.2131 68.216 32.9858 67.4206 32.5312C66.6299 32.072 66.0214 31.4233 65.5953 30.5852C65.1692 29.7424 64.9561 28.7505 64.9561 27.6094C64.9561 26.4872 65.1692 25.5024 65.5953 24.6548C66.0262 23.8026 66.6275 23.1397 67.3993 22.6662C68.1711 22.188 69.0778 21.9489 70.1194 21.9489C70.7918 21.9489 71.4263 22.0578 72.0229 22.2756C72.6242 22.4886 73.1545 22.8201 73.6138 23.2699C74.0778 23.7197 74.4424 24.2926 74.7075 24.9886C74.9727 25.6799 75.1052 26.5038 75.1052 27.4602V28.2486H66.1635V26.5156H72.6408C72.636 26.0232 72.5295 25.5852 72.3212 25.2017C72.1128 24.8134 71.8216 24.508 71.4476 24.2855C71.0783 24.063 70.6474 23.9517 70.155 23.9517C69.6294 23.9517 69.1677 24.0795 68.77 24.3352C68.3723 24.5862 68.0622 24.9176 67.8396 25.3295C67.6218 25.7367 67.5105 26.1842 67.5058 26.6719V28.1847C67.5058 28.8191 67.6218 29.3636 67.8538 29.8182C68.0858 30.268 68.4102 30.6136 68.8268 30.8551C69.2435 31.0919 69.7312 31.2102 70.2899 31.2102C70.664 31.2102 71.0025 31.1581 71.3055 31.054C71.6086 30.9451 71.8713 30.7865 72.0939 30.5781C72.3164 30.3698 72.4845 30.1117 72.5981 29.804L74.9987 30.0739C74.8472 30.7083 74.5584 31.2623 74.1322 31.7358C73.7108 32.2045 73.1711 32.5691 72.5129 32.8295C71.8548 33.0852 71.1019 33.2131 70.2544 33.2131ZM79.8513 18.4545V33H77.2803V18.4545H79.8513ZM87.3247 33.2131C86.231 33.2131 85.2863 32.9858 84.4909 32.5312C83.7002 32.072 83.0917 31.4233 82.6656 30.5852C82.2395 29.7424 82.0264 28.7505 82.0264 27.6094C82.0264 26.4872 82.2395 25.5024 82.6656 24.6548C83.0965 23.8026 83.6978 23.1397 84.4696 22.6662C85.2414 22.188 86.1481 21.9489 87.1898 21.9489C87.8621 21.9489 88.4966 22.0578 89.0932 22.2756C89.6945 22.4886 90.2248 22.8201 90.6841 23.2699C91.1481 23.7197 91.5127 24.2926 91.7778 24.9886C92.043 25.6799 92.1756 26.5038 92.1756 27.4602V28.2486H83.2338V26.5156H89.7111C89.7063 26.0232 89.5998 25.5852 89.3915 25.2017C89.1831 24.8134 88.8919 24.508 88.5179 24.2855C88.1486 24.063 87.7177 23.9517 87.2253 23.9517C86.6997 23.9517 86.2381 24.0795 85.8403 24.3352C85.4426 24.5862 85.1325 24.9176 84.9099 25.3295C84.6921 25.7367 84.5809 26.1842 84.5761 26.6719V28.1847C84.5761 28.8191 84.6921 29.3636 84.9241 29.8182C85.1561 30.268 85.4805 30.6136 85.8971 30.8551C86.3138 31.0919 86.8015 31.2102 87.3602 31.2102C87.7343 31.2102 88.0728 31.1581 88.3758 31.054C88.6789 30.9451 88.9417 30.7865 89.1642 30.5781C89.3867 30.3698 89.5548 30.1117 89.6685 29.804L92.069 30.0739C91.9175 30.7083 91.6287 31.2623 91.2025 31.7358C90.7811 32.2045 90.2414 32.5691 89.5832 32.8295C88.9251 33.0852 88.1722 33.2131 87.3247 33.2131ZM99.0949 37.3182C98.1716 37.3182 97.3786 37.1927 96.7157 36.9418C96.0528 36.6955 95.5201 36.3641 95.1177 35.9474C94.7152 35.5308 94.4359 35.0691 94.2796 34.5625L96.5949 34.0014C96.6991 34.2145 96.8506 34.4252 97.0495 34.6335C97.2484 34.8466 97.5159 35.0218 97.852 35.1591C98.193 35.3011 98.6215 35.3722 99.1376 35.3722C99.8667 35.3722 100.47 35.1946 100.949 34.8395C101.427 34.4891 101.666 33.9115 101.666 33.1065V31.0398H101.538C101.406 31.3049 101.211 31.5772 100.956 31.8565C100.705 32.1359 100.371 32.3703 99.9543 32.5597C99.5424 32.7491 99.0239 32.8438 98.3989 32.8438C97.5609 32.8438 96.8009 32.6473 96.1191 32.2543C95.442 31.8565 94.9022 31.2647 94.4998 30.4787C94.102 29.688 93.9032 28.6984 93.9032 27.5099C93.9032 26.312 94.102 25.3011 94.4998 24.4773C94.9022 23.6487 95.4444 23.0213 96.1262 22.5952C96.808 22.1643 97.568 21.9489 98.406 21.9489C99.0452 21.9489 99.5708 22.0578 99.9827 22.2756C100.399 22.4886 100.731 22.7467 100.977 23.0497C101.223 23.348 101.41 23.6297 101.538 23.8949H101.68V22.0909H104.216V33.1776C104.216 34.1103 103.993 34.8821 103.548 35.4929C103.103 36.1037 102.495 36.5606 101.723 36.8636C100.951 37.1667 100.075 37.3182 99.0949 37.3182ZM99.1163 30.8267C99.6608 30.8267 100.125 30.6941 100.508 30.429C100.892 30.1638 101.183 29.7827 101.382 29.2855C101.581 28.7884 101.68 28.1918 101.68 27.4957C101.68 26.8092 101.581 26.2079 101.382 25.6918C101.188 25.1757 100.899 24.7756 100.515 24.4915C100.137 24.2027 99.6702 24.0582 99.1163 24.0582C98.5433 24.0582 98.0651 24.2074 97.6816 24.5057C97.2981 24.804 97.0092 25.2135 96.8151 25.7344C96.621 26.2505 96.5239 26.8376 96.5239 27.4957C96.5239 28.1634 96.621 28.7481 96.8151 29.25C97.014 29.7472 97.3052 30.1354 97.6887 30.4148C98.077 30.6894 98.5528 30.8267 99.1163 30.8267ZM106.851 33V22.0909H109.344V23.9091H109.457C109.656 23.2794 109.997 22.794 110.48 22.4531C110.968 22.1075 111.524 21.9347 112.149 21.9347C112.291 21.9347 112.45 21.9418 112.625 21.956C112.805 21.9654 112.954 21.982 113.072 22.0057V24.3707C112.963 24.3329 112.79 24.2997 112.554 24.2713C112.322 24.2382 112.097 24.2216 111.879 24.2216C111.41 24.2216 110.989 24.3234 110.615 24.527C110.246 24.7259 109.954 25.0028 109.741 25.358C109.528 25.7131 109.422 26.1226 109.422 26.5866V33H106.851ZM117.724 33.2202C117.033 33.2202 116.41 33.0971 115.856 32.8509C115.307 32.5999 114.871 32.2306 114.549 31.7429C114.232 31.2552 114.074 30.6539 114.074 29.9389C114.074 29.3234 114.187 28.8144 114.415 28.4119C114.642 28.0095 114.952 27.6875 115.345 27.446C115.738 27.2045 116.181 27.0223 116.673 26.8991C117.17 26.7713 117.684 26.679 118.214 26.6222C118.853 26.5559 119.372 26.4967 119.77 26.4446C120.167 26.3878 120.456 26.3026 120.636 26.1889C120.821 26.0705 120.913 25.8883 120.913 25.642V25.5994C120.913 25.0644 120.755 24.6501 120.437 24.3565C120.12 24.063 119.663 23.9162 119.067 23.9162C118.437 23.9162 117.937 24.0535 117.568 24.3281C117.203 24.6027 116.957 24.9271 116.829 25.3011L114.429 24.9602C114.618 24.2973 114.931 23.7434 115.366 23.2983C115.802 22.8485 116.335 22.5123 116.964 22.2898C117.594 22.0625 118.29 21.9489 119.052 21.9489C119.578 21.9489 120.101 22.0104 120.622 22.1335C121.143 22.2566 121.619 22.4602 122.049 22.7443C122.48 23.0237 122.826 23.4048 123.086 23.8878C123.352 24.3707 123.484 24.9744 123.484 25.6989V33H121.013V31.5014H120.927C120.771 31.8045 120.551 32.0885 120.267 32.3537C119.987 32.6141 119.635 32.8248 119.209 32.9858C118.787 33.142 118.292 33.2202 117.724 33.2202ZM118.392 31.331C118.908 31.331 119.355 31.2292 119.734 31.0256C120.113 30.8172 120.404 30.5426 120.608 30.2017C120.816 29.8608 120.92 29.4891 120.92 29.0866V27.8011C120.84 27.8674 120.702 27.929 120.508 27.9858C120.319 28.0426 120.106 28.0923 119.869 28.1349C119.632 28.1776 119.398 28.2154 119.166 28.2486C118.934 28.2817 118.733 28.3101 118.562 28.3338C118.179 28.3859 117.835 28.4711 117.532 28.5895C117.229 28.7079 116.99 28.8736 116.815 29.0866C116.64 29.295 116.552 29.5649 116.552 29.8963C116.552 30.3698 116.725 30.7273 117.071 30.9688C117.416 31.2102 117.857 31.331 118.392 31.331ZM126.069 33V22.0909H128.527V23.9446H128.655C128.882 23.3196 129.258 22.8319 129.784 22.4815C130.309 22.1264 130.937 21.9489 131.666 21.9489C132.405 21.9489 133.027 22.1288 133.534 22.4886C134.045 22.8437 134.405 23.3291 134.613 23.9446H134.727C134.969 23.3385 135.376 22.8556 135.949 22.4957C136.526 22.1312 137.21 21.9489 138.001 21.9489C139.005 21.9489 139.824 22.2661 140.459 22.9006C141.093 23.535 141.41 24.4607 141.41 25.6776V33H138.832V26.0753C138.832 25.3982 138.652 24.9034 138.292 24.5909C137.933 24.2737 137.492 24.1151 136.971 24.1151C136.351 24.1151 135.866 24.3092 135.515 24.6974C135.17 25.081 134.997 25.5805 134.997 26.196V33H132.476V25.9688C132.476 25.4053 132.305 24.9555 131.964 24.6193C131.628 24.2831 131.188 24.1151 130.643 24.1151C130.274 24.1151 129.938 24.2098 129.635 24.3991C129.332 24.5838 129.09 24.8466 128.91 25.1875C128.73 25.5237 128.64 25.9167 128.64 26.3665V33H126.069Z" fill="#E0E0E0"/>
</svg>
